G04 #@! TF.FileFunction,Copper,L1,Top,Signal*
%FSLAX46Y46*%
G04 Gerber Fmt 4.6, Leading zero omitted, Abs format (unit mm)*
G04 Created by KiCad (PCBNEW 4.0.2+dfsg1-stable) date Tue 07 Aug 2018 11:45:59 AM EDT*
%MOMM*%
G01*
G04 APERTURE LIST*
%ADD10C,0.100000*%
%ADD11R,0.300000X2.000000*%
%ADD12R,1.000000X0.800000*%
%ADD13R,1.270000X1.270000*%
%ADD14R,1.600000X3.700000*%
%ADD15R,1.270000X1.016000*%
%ADD16R,1.016000X1.270000*%
%ADD17R,0.800000X1.000000*%
%ADD18R,1.600000X1.800000*%
%ADD19R,1.800000X1.600000*%
%ADD20C,1.524000*%
%ADD21R,2.000000X0.300000*%
%ADD22O,0.635000X1.270000*%
%ADD23C,3.048000*%
%ADD24C,0.609600*%
%ADD25C,0.177800*%
%ADD26C,0.254000*%
G04 APERTURE END LIST*
D10*
D11*
X150495000Y-98933000D03*
X151145000Y-98933000D03*
X151795000Y-98933000D03*
X152445000Y-98933000D03*
X153095000Y-98933000D03*
X153745000Y-98933000D03*
X154395000Y-98933000D03*
X154395000Y-92933000D03*
X153745000Y-92933000D03*
X153095000Y-92933000D03*
X152445000Y-92933000D03*
X151795000Y-92933000D03*
X151145000Y-92933000D03*
X150495000Y-92933000D03*
D12*
X155384500Y-106233000D03*
X155384500Y-104333000D03*
D13*
X155448000Y-115951000D03*
D14*
X142430500Y-90551000D03*
X142430500Y-96351000D03*
D15*
X140970000Y-110998000D03*
X140970000Y-113157000D03*
D12*
X143891000Y-112837000D03*
X143891000Y-110937000D03*
X146685000Y-112837000D03*
X146685000Y-110937000D03*
X138049000Y-112837000D03*
X138049000Y-110937000D03*
X136652000Y-112837000D03*
X136652000Y-110937000D03*
X133858000Y-112837000D03*
X133858000Y-110937000D03*
X131064000Y-112837000D03*
X131064000Y-110937000D03*
D15*
X128143000Y-110998000D03*
X128143000Y-113157000D03*
D16*
X133350000Y-99695000D03*
X135509000Y-99695000D03*
D17*
X139131000Y-101409500D03*
X141031000Y-101409500D03*
D12*
X128651000Y-98867000D03*
X128651000Y-96967000D03*
D18*
X127762000Y-90297000D03*
X130562000Y-90297000D03*
X135763000Y-90297000D03*
X132963000Y-90297000D03*
D19*
X148590000Y-95631000D03*
X148590000Y-98431000D03*
D12*
X146558000Y-96078000D03*
X146558000Y-97978000D03*
D17*
X137221000Y-94107000D03*
X135321000Y-94107000D03*
D13*
X153289000Y-115951000D03*
D20*
X155321000Y-88201500D03*
X152781000Y-88201500D03*
D13*
X151130000Y-115951000D03*
D12*
X149860000Y-112837000D03*
X149860000Y-110937000D03*
X152654000Y-110937000D03*
X152654000Y-112837000D03*
X154051000Y-110937000D03*
X154051000Y-112837000D03*
X155448000Y-110937000D03*
X155448000Y-112837000D03*
X151257000Y-110937000D03*
X151257000Y-112837000D03*
X151765000Y-106233000D03*
X151765000Y-104333000D03*
X153543000Y-106233000D03*
X153543000Y-104333000D03*
X149860000Y-106233000D03*
X149860000Y-104333000D03*
D17*
X153164500Y-90424000D03*
X155064500Y-90424000D03*
X147386000Y-92964000D03*
X149286000Y-92964000D03*
D12*
X139446000Y-112837000D03*
X139446000Y-110937000D03*
X142494000Y-112837000D03*
X142494000Y-110937000D03*
X145288000Y-112837000D03*
X145288000Y-110937000D03*
X135255000Y-112837000D03*
X135255000Y-110937000D03*
X132461000Y-112837000D03*
X132461000Y-110937000D03*
X129667000Y-112837000D03*
X129667000Y-110937000D03*
X126619000Y-112837000D03*
X126619000Y-110937000D03*
X140970000Y-106233000D03*
X140970000Y-104333000D03*
X143891000Y-106233000D03*
X143891000Y-104333000D03*
X146685000Y-106233000D03*
X146685000Y-104333000D03*
X138049000Y-106233000D03*
X138049000Y-104333000D03*
X136652000Y-106233000D03*
X136652000Y-104333000D03*
X135255000Y-106233000D03*
X135255000Y-104333000D03*
X132334000Y-106233000D03*
X132334000Y-104333000D03*
X129540000Y-106233000D03*
X129540000Y-104333000D03*
D17*
X133289000Y-102616000D03*
X135189000Y-102616000D03*
X135189000Y-101219000D03*
X133289000Y-101219000D03*
X139131000Y-102806500D03*
X141031000Y-102806500D03*
D12*
X127127000Y-98867000D03*
X127127000Y-96967000D03*
D17*
X131760000Y-92456000D03*
X129860000Y-92456000D03*
X133416000Y-92456000D03*
X135316000Y-92456000D03*
D13*
X149034500Y-115951000D03*
X140843000Y-115951000D03*
X129921000Y-115951000D03*
X135382000Y-115951000D03*
D21*
X131660000Y-96236000D03*
X131660000Y-96886000D03*
X131660000Y-97536000D03*
X131660000Y-98186000D03*
X137160000Y-98186000D03*
X137160000Y-97536000D03*
X137160000Y-96886000D03*
X137160000Y-96236000D03*
D13*
X143510000Y-115951000D03*
X132588000Y-115951000D03*
X138176000Y-115951000D03*
X127254000Y-115951000D03*
X127254000Y-101727000D03*
X146304000Y-115951000D03*
D12*
X148082000Y-112837000D03*
X148082000Y-110937000D03*
D22*
X144602200Y-88900000D03*
X145415000Y-88900000D03*
X146227800Y-88900000D03*
D20*
X134493000Y-86614000D03*
X132461000Y-86614000D03*
X130429000Y-86614000D03*
X136525000Y-86614000D03*
X138557000Y-86614000D03*
X138557000Y-84074000D03*
X130429000Y-84074000D03*
X135763000Y-84074000D03*
X133731000Y-84074000D03*
D23*
X134493000Y-80518000D03*
X127254000Y-81280000D03*
X141732000Y-81280000D03*
D24*
X126619000Y-109474000D03*
X137223500Y-99314000D03*
X155384500Y-108331000D03*
X153543000Y-108331000D03*
X151765000Y-108331000D03*
X149860000Y-108331000D03*
X148082000Y-108331000D03*
X145288000Y-93472000D03*
X145288000Y-97980500D03*
X135318500Y-95186500D03*
X155575000Y-94488000D03*
X146558000Y-99060000D03*
X153035000Y-97028000D03*
X148590000Y-97028000D03*
X127254000Y-103124000D03*
X127254000Y-100330000D03*
X131660000Y-99021000D03*
X128524000Y-101727000D03*
X133477000Y-88392000D03*
X134484199Y-98679000D03*
X135636000Y-96266000D03*
X149860000Y-114173000D03*
X146240500Y-90424000D03*
D25*
X142430500Y-90551000D02*
X140462000Y-90551000D01*
X140462000Y-90551000D02*
X136525000Y-86614000D01*
X144602200Y-88900000D02*
X144602200Y-89712800D01*
X144602200Y-89712800D02*
X143764000Y-90551000D01*
X143764000Y-90551000D02*
X143408300Y-90551000D01*
X143408300Y-90551000D02*
X142430500Y-90551000D01*
X147386000Y-92964000D02*
X147386000Y-93064000D01*
X147386000Y-93064000D02*
X144099000Y-96351000D01*
X144099000Y-96351000D02*
X142430500Y-96351000D01*
X140970000Y-106233000D02*
X140970000Y-110998000D01*
X143891000Y-106233000D02*
X143891000Y-110937000D01*
X146685000Y-106233000D02*
X146685000Y-106810800D01*
X146685000Y-106810800D02*
X146685000Y-110937000D01*
X138049000Y-106233000D02*
X138049000Y-106810800D01*
X138049000Y-106810800D02*
X138049000Y-110937000D01*
X136652000Y-106233000D02*
X136652000Y-106810800D01*
X136652000Y-106810800D02*
X136652000Y-110937000D01*
X133858000Y-108207800D02*
X133858000Y-110937000D01*
X135255000Y-106233000D02*
X135255000Y-106810800D01*
X135255000Y-106810800D02*
X133858000Y-108207800D01*
X131064000Y-108080800D02*
X131064000Y-110937000D01*
X132334000Y-106233000D02*
X132334000Y-106810800D01*
X132334000Y-106810800D02*
X131064000Y-108080800D01*
X129540000Y-106233000D02*
X129540000Y-106810800D01*
X129540000Y-106810800D02*
X128143000Y-108207800D01*
X128143000Y-108207800D02*
X128143000Y-110998000D01*
D26*
X126619000Y-110937000D02*
X126619000Y-109474000D01*
X155384500Y-106233000D02*
X155384500Y-108331000D01*
X153543000Y-108331000D02*
X153543000Y-106233000D01*
X151765000Y-108331000D02*
X151765000Y-106233000D01*
X149860000Y-108331000D02*
X149860000Y-106233000D01*
X146558000Y-97978000D02*
X145290500Y-97978000D01*
X145290500Y-97978000D02*
X145288000Y-97980500D01*
X135321000Y-95057000D02*
X135321000Y-95184000D01*
X135321000Y-95184000D02*
X135318500Y-95186500D01*
X148082000Y-110937000D02*
X148082000Y-108331000D01*
X146558000Y-97978000D02*
X146558000Y-99060000D01*
X153745000Y-98933000D02*
X153095000Y-98933000D01*
X153095000Y-98933000D02*
X153095000Y-97088000D01*
X153095000Y-97088000D02*
X153035000Y-97028000D01*
X148590000Y-98431000D02*
X148590000Y-97028000D01*
X135321000Y-94107000D02*
X135321000Y-95057000D01*
X148590000Y-98431000D02*
X148457000Y-98431000D01*
X146558000Y-97978000D02*
X148137000Y-97978000D01*
X148137000Y-97978000D02*
X148590000Y-98431000D01*
X147640329Y-112014000D02*
X145288000Y-112014000D01*
X145288000Y-112014000D02*
X142494000Y-112014000D01*
X145288000Y-110937000D02*
X145288000Y-111591000D01*
X145288000Y-111591000D02*
X145288000Y-112014000D01*
X142494000Y-112014000D02*
X139446000Y-112014000D01*
X142494000Y-110937000D02*
X142494000Y-112014000D01*
X139446000Y-112014000D02*
X135255000Y-112014000D01*
X139446000Y-110937000D02*
X139446000Y-112014000D01*
X135255000Y-112014000D02*
X132461000Y-112014000D01*
X135255000Y-110937000D02*
X135255000Y-111591000D01*
X135255000Y-111591000D02*
X135255000Y-112014000D01*
X132461000Y-110937000D02*
X132461000Y-111591000D01*
X132461000Y-112014000D02*
X129667000Y-112014000D01*
X132461000Y-111591000D02*
X132461000Y-112014000D01*
X129667000Y-112014000D02*
X127042000Y-112014000D01*
X129667000Y-110937000D02*
X129667000Y-111591000D01*
X129667000Y-111591000D02*
X129667000Y-112014000D01*
X127042000Y-112014000D02*
X126619000Y-111591000D01*
X126619000Y-111591000D02*
X126619000Y-110937000D01*
X148082000Y-110937000D02*
X148082000Y-111572329D01*
X148082000Y-111572329D02*
X147640329Y-112014000D01*
X127254000Y-101727000D02*
X127254000Y-103124000D01*
X127254000Y-101727000D02*
X127254000Y-100330000D01*
X127254000Y-101727000D02*
X128524000Y-101727000D01*
X131660000Y-99021000D02*
X132334000Y-99695000D01*
X132334000Y-99695000D02*
X133350000Y-99695000D01*
X131660000Y-98186000D02*
X131660000Y-99021000D01*
X133289000Y-101219000D02*
X133289000Y-99756000D01*
X133289000Y-99756000D02*
X133350000Y-99695000D01*
D25*
X135189000Y-102616000D02*
X134611200Y-102616000D01*
X130048000Y-102362000D02*
X130048000Y-97970200D01*
X134611200Y-102616000D02*
X133722200Y-103505000D01*
X133722200Y-103505000D02*
X131191000Y-103505000D01*
X131191000Y-103505000D02*
X130048000Y-102362000D01*
X130048000Y-97970200D02*
X130482200Y-97536000D01*
X130482200Y-97536000D02*
X131660000Y-97536000D01*
X137160000Y-98186000D02*
X135982200Y-98186000D01*
X135982200Y-98186000D02*
X135509000Y-98659200D01*
X135509000Y-98659200D02*
X135509000Y-99695000D01*
X135189000Y-101219000D02*
X135189000Y-100015000D01*
X135189000Y-100015000D02*
X135509000Y-99695000D01*
X135189000Y-102616000D02*
X135189000Y-101219000D01*
X138557000Y-100076000D02*
X139131000Y-100650000D01*
X139131000Y-100650000D02*
X139131000Y-101409500D01*
X138557000Y-97755200D02*
X138557000Y-100076000D01*
X137160000Y-97536000D02*
X138337800Y-97536000D01*
X138337800Y-97536000D02*
X138557000Y-97755200D01*
X139131000Y-101409500D02*
X139131000Y-102806500D01*
X139131000Y-102806500D02*
X138553200Y-102806500D01*
X138553200Y-102806500D02*
X138049000Y-103310700D01*
X138049000Y-103310700D02*
X138049000Y-103755200D01*
X138049000Y-103755200D02*
X138049000Y-104333000D01*
X140716000Y-104079000D02*
X140970000Y-104333000D01*
X143891000Y-104333000D02*
X146685000Y-104333000D01*
X140970000Y-104333000D02*
X143891000Y-104333000D01*
X138049000Y-104333000D02*
X140970000Y-104333000D01*
X141031000Y-101409500D02*
X140453200Y-101409500D01*
X140453200Y-101409500D02*
X138912610Y-99868910D01*
X138912610Y-99868910D02*
X138912610Y-97460810D01*
X138912610Y-97460810D02*
X138337800Y-96886000D01*
X138337800Y-96886000D02*
X137160000Y-96886000D01*
X141031000Y-102806500D02*
X141031000Y-101409500D01*
X134478000Y-96886000D02*
X133416000Y-95824000D01*
X133416000Y-95824000D02*
X133416000Y-92456000D01*
X137160000Y-96886000D02*
X134478000Y-96886000D01*
X129540000Y-104333000D02*
X129540000Y-99656000D01*
X129540000Y-99656000D02*
X128751000Y-98867000D01*
X128751000Y-98867000D02*
X128651000Y-98867000D01*
X131660000Y-96886000D02*
X130054200Y-96886000D01*
X130054200Y-96886000D02*
X128651000Y-98289200D01*
X128651000Y-98289200D02*
X128651000Y-98867000D01*
X127127000Y-98867000D02*
X128651000Y-98867000D01*
X129440000Y-104333000D02*
X129540000Y-104333000D01*
X132334000Y-104333000D02*
X129540000Y-104333000D01*
X135255000Y-104333000D02*
X132334000Y-104333000D01*
X136652000Y-104333000D02*
X135255000Y-104333000D01*
X131760000Y-92456000D02*
X131760000Y-96136000D01*
X131760000Y-96136000D02*
X131660000Y-96236000D01*
X131660000Y-96236000D02*
X129482000Y-96236000D01*
X129482000Y-96236000D02*
X128751000Y-96967000D01*
X128751000Y-96967000D02*
X128651000Y-96967000D01*
X127127000Y-96967000D02*
X128651000Y-96967000D01*
X127762000Y-90297000D02*
X127762000Y-90397000D01*
X127762000Y-90397000D02*
X129821000Y-92456000D01*
X129821000Y-92456000D02*
X129860000Y-92456000D01*
X130562000Y-90297000D02*
X130562000Y-86747000D01*
X130562000Y-86747000D02*
X130429000Y-86614000D01*
X135316000Y-92456000D02*
X135316000Y-90744000D01*
X135316000Y-90744000D02*
X135763000Y-90297000D01*
X132461000Y-86614000D02*
X132461000Y-89795000D01*
X132461000Y-89795000D02*
X132963000Y-90297000D01*
D26*
X148971000Y-109394000D02*
X148971000Y-100711000D01*
X148971000Y-100711000D02*
X149987000Y-99695000D01*
X149860000Y-110937000D02*
X149860000Y-110283000D01*
X149860000Y-110283000D02*
X148971000Y-109394000D01*
X140144500Y-95885000D02*
X138366500Y-94107000D01*
X138366500Y-94107000D02*
X137221000Y-94107000D01*
X140144500Y-99123500D02*
X140144500Y-95885000D01*
X140716000Y-99695000D02*
X140144500Y-99123500D01*
X144018000Y-99695000D02*
X140716000Y-99695000D01*
X144462500Y-99250500D02*
X144018000Y-99695000D01*
X144462500Y-97419500D02*
X144462500Y-99250500D01*
X146558000Y-96078000D02*
X145804000Y-96078000D01*
X145804000Y-96078000D02*
X144462500Y-97419500D01*
X153095000Y-92933000D02*
X153095000Y-90493500D01*
X153095000Y-90493500D02*
X153164500Y-90424000D01*
X152463500Y-95631000D02*
X153095000Y-94999500D01*
X153095000Y-94999500D02*
X153095000Y-92933000D01*
X148590000Y-95631000D02*
X152463500Y-95631000D01*
X149760000Y-110937000D02*
X149860000Y-110937000D01*
X148378000Y-111887000D02*
X148810000Y-111887000D01*
X148810000Y-111887000D02*
X149760000Y-110937000D01*
X153162000Y-92866000D02*
X153095000Y-92933000D01*
X136106642Y-88392000D02*
X133477000Y-88392000D01*
X137221000Y-94107000D02*
X137221000Y-89506358D01*
X137221000Y-89506358D02*
X136106642Y-88392000D01*
X134484199Y-102074801D02*
X134484199Y-98679000D01*
X137160000Y-96236000D02*
X135666000Y-96236000D01*
X135666000Y-96236000D02*
X135636000Y-96266000D01*
X146558000Y-96078000D02*
X148143000Y-96078000D01*
X148143000Y-96078000D02*
X148590000Y-95631000D01*
X149987000Y-99695000D02*
X149987000Y-96928000D01*
X149987000Y-96928000D02*
X148690000Y-95631000D01*
X148690000Y-95631000D02*
X148590000Y-95631000D01*
X137221000Y-94107000D02*
X137221000Y-96175000D01*
X137221000Y-96175000D02*
X137160000Y-96236000D01*
X133289000Y-102616000D02*
X133943000Y-102616000D01*
X133943000Y-102616000D02*
X134484199Y-102074801D01*
X148378000Y-111887000D02*
X148082000Y-112183000D01*
X148082000Y-112183000D02*
X148082000Y-112837000D01*
X147574000Y-114427000D02*
X148082000Y-113919000D01*
X148082000Y-113919000D02*
X148082000Y-112837000D01*
X146939000Y-114427000D02*
X147574000Y-114427000D01*
X146304000Y-115951000D02*
X146304000Y-115062000D01*
X146304000Y-115062000D02*
X146939000Y-114427000D01*
D25*
X145415000Y-88900000D02*
X145415000Y-91059000D01*
X145415000Y-91059000D02*
X143573500Y-92900500D01*
X143573500Y-92900500D02*
X141478000Y-92900500D01*
X135877290Y-87998290D02*
X134493000Y-86614000D01*
X141478000Y-92900500D02*
X136575790Y-87998290D01*
X136575790Y-87998290D02*
X135877290Y-87998290D01*
X155064500Y-90424000D02*
X155064500Y-90324000D01*
X155064500Y-90324000D02*
X152942000Y-88201500D01*
X152942000Y-88201500D02*
X152781000Y-88201500D01*
X155064500Y-90424000D02*
X155064500Y-90524000D01*
X155064500Y-90524000D02*
X153745000Y-91843500D01*
X153745000Y-91843500D02*
X153745000Y-92933000D01*
X149034500Y-115951000D02*
X149034500Y-114998500D01*
X149034500Y-114998500D02*
X149860000Y-114173000D01*
X149860000Y-112837000D02*
X149860000Y-114173000D01*
X146227800Y-88900000D02*
X146227800Y-90411300D01*
X146227800Y-90411300D02*
X146240500Y-90424000D01*
X151257000Y-112837000D02*
X149860000Y-112837000D01*
X149760000Y-112837000D02*
X149860000Y-112837000D01*
X152654000Y-105918000D02*
X152654000Y-110937000D01*
X151765000Y-104333000D02*
X151765000Y-104910800D01*
X151765000Y-104910800D02*
X152654000Y-105799800D01*
X152654000Y-105799800D02*
X152654000Y-105918000D01*
X151765000Y-103378000D02*
X151765000Y-104333000D01*
X151145000Y-102504000D02*
X151765000Y-103124000D01*
X151765000Y-103124000D02*
X151765000Y-103378000D01*
X151145000Y-98933000D02*
X151145000Y-102504000D01*
X153543000Y-103378000D02*
X153543000Y-103568500D01*
X151795000Y-98933000D02*
X151795000Y-101630000D01*
X151795000Y-101630000D02*
X153543000Y-103378000D01*
X153543000Y-103568500D02*
X153543000Y-104333000D01*
X154495500Y-109914700D02*
X154495500Y-105863300D01*
X154495500Y-105863300D02*
X153543000Y-104910800D01*
X153543000Y-104910800D02*
X153543000Y-104333000D01*
X154051000Y-110937000D02*
X154051000Y-110359200D01*
X154051000Y-110359200D02*
X154495500Y-109914700D01*
X152445000Y-98933000D02*
X152445000Y-101493500D01*
X152445000Y-101493500D02*
X155284500Y-104333000D01*
X155284500Y-104333000D02*
X155384500Y-104333000D01*
X156210000Y-109597200D02*
X156210000Y-105736300D01*
X156210000Y-105736300D02*
X155384500Y-104910800D01*
X155384500Y-104910800D02*
X155384500Y-104333000D01*
X155448000Y-110937000D02*
X155448000Y-110359200D01*
X155448000Y-110359200D02*
X156210000Y-109597200D01*
X149860000Y-103187500D02*
X149860000Y-104333000D01*
X150495000Y-98933000D02*
X150495000Y-102552500D01*
X150495000Y-102552500D02*
X149860000Y-103187500D01*
X150812500Y-109914700D02*
X150812500Y-105863300D01*
X150812500Y-105863300D02*
X149860000Y-104910800D01*
X149860000Y-104910800D02*
X149860000Y-104333000D01*
X151257000Y-110937000D02*
X151257000Y-110359200D01*
X151257000Y-110359200D02*
X150812500Y-109914700D01*
X150495000Y-92933000D02*
X149317000Y-92933000D01*
X149317000Y-92933000D02*
X149286000Y-92964000D01*
X155448000Y-112837000D02*
X155448000Y-113414800D01*
X155448000Y-113414800D02*
X155448000Y-115951000D01*
X138176000Y-114684800D02*
X138176000Y-115951000D01*
X139446000Y-112837000D02*
X139446000Y-113414800D01*
X139446000Y-113414800D02*
X138176000Y-114684800D01*
X139446000Y-112837000D02*
X140650000Y-112837000D01*
X140650000Y-112837000D02*
X140970000Y-113157000D01*
X142494000Y-112837000D02*
X142494000Y-113414800D01*
X142494000Y-113414800D02*
X140843000Y-115065800D01*
X140843000Y-115065800D02*
X140843000Y-115951000D01*
X143891000Y-112837000D02*
X142494000Y-112837000D01*
X145288000Y-112837000D02*
X145288000Y-113919000D01*
X144348200Y-114300000D02*
X144907000Y-114300000D01*
X144907000Y-114300000D02*
X145288000Y-113919000D01*
X143510000Y-115951000D02*
X143510000Y-115138200D01*
X143510000Y-115138200D02*
X144348200Y-114300000D01*
X146685000Y-112837000D02*
X145288000Y-112837000D01*
X135255000Y-112837000D02*
X135255000Y-115824000D01*
X135255000Y-115824000D02*
X135382000Y-115951000D01*
X135255000Y-112837000D02*
X136652000Y-112837000D01*
X138049000Y-112837000D02*
X136652000Y-112837000D01*
X132461000Y-112837000D02*
X132461000Y-115824000D01*
X132461000Y-115824000D02*
X132588000Y-115951000D01*
X133858000Y-112837000D02*
X132461000Y-112837000D01*
X129667000Y-112837000D02*
X129667000Y-115697000D01*
X129667000Y-115697000D02*
X129921000Y-115951000D01*
X129667000Y-112837000D02*
X131064000Y-112837000D01*
X127254000Y-114731800D02*
X127254000Y-115951000D01*
X128143000Y-113157000D02*
X128143000Y-113842800D01*
X128143000Y-113842800D02*
X127254000Y-114731800D01*
X126619000Y-112837000D02*
X127823000Y-112837000D01*
X127823000Y-112837000D02*
X128143000Y-113157000D01*
X138557000Y-86614000D02*
X146875500Y-86614000D01*
X146875500Y-86614000D02*
X151145000Y-90883500D01*
X151145000Y-90883500D02*
X151145000Y-92933000D01*
X151145000Y-92933000D02*
X151145000Y-92123500D01*
X138557000Y-84074000D02*
X140741390Y-86258390D01*
X140741390Y-86258390D02*
X147022798Y-86258390D01*
X147022798Y-86258390D02*
X151795000Y-91030592D01*
X151795000Y-91030592D02*
X151795000Y-92933000D01*
X135763000Y-84074000D02*
X137096500Y-82740500D01*
X139382500Y-82740500D02*
X140398500Y-83756500D01*
X140398500Y-85412592D02*
X140888688Y-85902780D01*
X137096500Y-82740500D02*
X139382500Y-82740500D01*
X140398500Y-83756500D02*
X140398500Y-85412592D01*
X140888688Y-85902780D02*
X147170096Y-85902780D01*
X147170096Y-85902780D02*
X152445000Y-91177684D01*
X152445000Y-91177684D02*
X152445000Y-92933000D01*
X154051000Y-113474500D02*
X153289000Y-114236500D01*
X153289000Y-114236500D02*
X153289000Y-115951000D01*
X154051000Y-112837000D02*
X154051000Y-113474500D01*
X153416000Y-115824000D02*
X153289000Y-115951000D01*
X152654000Y-112837000D02*
X152654000Y-113414800D01*
X152654000Y-113414800D02*
X151130000Y-114938800D01*
X151130000Y-114938800D02*
X151130000Y-115951000D01*
G36*
X133190972Y-78982486D02*
X134493000Y-80284513D01*
X135795028Y-78982486D01*
X135710549Y-78828900D01*
X156375100Y-78828900D01*
X156375100Y-87475226D01*
X156304107Y-87451880D01*
X155554487Y-88201500D01*
X156304107Y-88951120D01*
X156375100Y-88927774D01*
X156375100Y-105218900D01*
X156169485Y-105013285D01*
X156254287Y-104889172D01*
X156285913Y-104733000D01*
X156285913Y-103933000D01*
X156258461Y-103787103D01*
X156172236Y-103653106D01*
X156040672Y-103563213D01*
X155884500Y-103531587D01*
X155165586Y-103531587D01*
X152927600Y-101293600D01*
X152927600Y-100473075D01*
X153020000Y-100380675D01*
X153020000Y-100104602D01*
X153088973Y-100271117D01*
X153170000Y-100352144D01*
X153170000Y-100380675D01*
X153319225Y-100529900D01*
X153363731Y-100529900D01*
X153420000Y-100506593D01*
X153476269Y-100529900D01*
X153520775Y-100529900D01*
X153670000Y-100380675D01*
X153670000Y-100352144D01*
X153751027Y-100271117D01*
X153820000Y-100104602D01*
X153820000Y-100380675D01*
X153969225Y-100529900D01*
X154013731Y-100529900D01*
X154233117Y-100439028D01*
X154337731Y-100334413D01*
X154545000Y-100334413D01*
X154690897Y-100306961D01*
X154824894Y-100220736D01*
X154914787Y-100089172D01*
X154946413Y-99933000D01*
X154946413Y-97933000D01*
X154918961Y-97787103D01*
X154832736Y-97653106D01*
X154701172Y-97563213D01*
X154545000Y-97531587D01*
X154337731Y-97531587D01*
X154233117Y-97426972D01*
X154013731Y-97336100D01*
X153969225Y-97336100D01*
X153820000Y-97485325D01*
X153820000Y-97761398D01*
X153751027Y-97594883D01*
X153670000Y-97513856D01*
X153670000Y-97485325D01*
X153520775Y-97336100D01*
X153476269Y-97336100D01*
X153420000Y-97359407D01*
X153363731Y-97336100D01*
X153319225Y-97336100D01*
X153170000Y-97485325D01*
X153170000Y-97513856D01*
X153088973Y-97594883D01*
X153020000Y-97761398D01*
X153020000Y-97485325D01*
X152870775Y-97336100D01*
X152826269Y-97336100D01*
X152606883Y-97426972D01*
X152502269Y-97531587D01*
X152295000Y-97531587D01*
X152149103Y-97559039D01*
X152121273Y-97576947D01*
X152101172Y-97563213D01*
X151945000Y-97531587D01*
X151645000Y-97531587D01*
X151499103Y-97559039D01*
X151471273Y-97576947D01*
X151451172Y-97563213D01*
X151295000Y-97531587D01*
X150995000Y-97531587D01*
X150849103Y-97559039D01*
X150821273Y-97576947D01*
X150801172Y-97563213D01*
X150645000Y-97531587D01*
X150507700Y-97531587D01*
X150507700Y-96928005D01*
X150507701Y-96928000D01*
X150468064Y-96728737D01*
X150449743Y-96701317D01*
X150355191Y-96559809D01*
X150355188Y-96559807D01*
X149947081Y-96151700D01*
X152463495Y-96151700D01*
X152463500Y-96151701D01*
X152662763Y-96112064D01*
X152831691Y-95999191D01*
X153463188Y-95367693D01*
X153463191Y-95367691D01*
X153576064Y-95198763D01*
X153615701Y-94999500D01*
X153615700Y-94999495D01*
X153615700Y-94334413D01*
X153895000Y-94334413D01*
X154040897Y-94306961D01*
X154068727Y-94289053D01*
X154088828Y-94302787D01*
X154245000Y-94334413D01*
X154545000Y-94334413D01*
X154690897Y-94306961D01*
X154824894Y-94220736D01*
X154914787Y-94089172D01*
X154946413Y-93933000D01*
X154946413Y-91933000D01*
X154918961Y-91787103D01*
X154832736Y-91653106D01*
X154705102Y-91565898D01*
X154945587Y-91325413D01*
X155464500Y-91325413D01*
X155610397Y-91297961D01*
X155744394Y-91211736D01*
X155834287Y-91080172D01*
X155865913Y-90924000D01*
X155865913Y-89924000D01*
X155838461Y-89778103D01*
X155752236Y-89644106D01*
X155620672Y-89554213D01*
X155572902Y-89544539D01*
X155699267Y-89534386D01*
X155996018Y-89411467D01*
X156070620Y-89184607D01*
X155321000Y-88434987D01*
X155306858Y-88449129D01*
X155073371Y-88215642D01*
X155087513Y-88201500D01*
X154337893Y-87451880D01*
X154111033Y-87526482D01*
X153944817Y-88040899D01*
X153986834Y-88563834D01*
X153912702Y-88489702D01*
X153936499Y-88432392D01*
X153936901Y-87972626D01*
X153761326Y-87547704D01*
X153436506Y-87222316D01*
X153427059Y-87218393D01*
X154571380Y-87218393D01*
X155321000Y-87968013D01*
X156070620Y-87218393D01*
X155996018Y-86991533D01*
X155481601Y-86825317D01*
X154942733Y-86868614D01*
X154645982Y-86991533D01*
X154571380Y-87218393D01*
X153427059Y-87218393D01*
X153011892Y-87046001D01*
X152552126Y-87045599D01*
X152127204Y-87221174D01*
X151801816Y-87545994D01*
X151625501Y-87970608D01*
X151625099Y-88430374D01*
X151800674Y-88855296D01*
X152125494Y-89180684D01*
X152550108Y-89356999D01*
X153009874Y-89357401D01*
X153296832Y-89238832D01*
X153584672Y-89526672D01*
X153564500Y-89522587D01*
X152764500Y-89522587D01*
X152618603Y-89550039D01*
X152484606Y-89636264D01*
X152394713Y-89767828D01*
X152363087Y-89924000D01*
X152363087Y-90413271D01*
X147511346Y-85561530D01*
X147354779Y-85456916D01*
X147170096Y-85420180D01*
X141088587Y-85420180D01*
X140881100Y-85212692D01*
X140881100Y-83756500D01*
X140844364Y-83571817D01*
X140739750Y-83415250D01*
X140140014Y-82815514D01*
X140429972Y-82815514D01*
X140598222Y-83121397D01*
X141389198Y-83415107D01*
X142232362Y-83383766D01*
X142865778Y-83121397D01*
X143034028Y-82815514D01*
X141732000Y-81513487D01*
X140429972Y-82815514D01*
X140140014Y-82815514D01*
X139723750Y-82399250D01*
X139567183Y-82294636D01*
X139382500Y-82257900D01*
X137096505Y-82257900D01*
X137096500Y-82257899D01*
X136911817Y-82294636D01*
X136755250Y-82399250D01*
X136164964Y-82989536D01*
X135993892Y-82918501D01*
X135534126Y-82918099D01*
X135109204Y-83093674D01*
X134783816Y-83418494D01*
X134747127Y-83506850D01*
X134711326Y-83420204D01*
X134386506Y-83094816D01*
X133961892Y-82918501D01*
X133502126Y-82918099D01*
X133077204Y-83093674D01*
X132751816Y-83418494D01*
X132575501Y-83843108D01*
X132575099Y-84302874D01*
X132750674Y-84727796D01*
X133075494Y-85053184D01*
X133500108Y-85229499D01*
X133959874Y-85229901D01*
X134384796Y-85054326D01*
X134710184Y-84729506D01*
X134746873Y-84641150D01*
X134782674Y-84727796D01*
X135107494Y-85053184D01*
X135532108Y-85229499D01*
X135991874Y-85229901D01*
X136416796Y-85054326D01*
X136742184Y-84729506D01*
X136918499Y-84304892D01*
X136918901Y-83845126D01*
X136847406Y-83672094D01*
X137296400Y-83223100D01*
X137773552Y-83223100D01*
X137577816Y-83418494D01*
X137401501Y-83843108D01*
X137401099Y-84302874D01*
X137576674Y-84727796D01*
X137901494Y-85053184D01*
X138326108Y-85229499D01*
X138785874Y-85229901D01*
X138958906Y-85158406D01*
X139931900Y-86131400D01*
X139608063Y-86131400D01*
X139537326Y-85960204D01*
X139212506Y-85634816D01*
X138787892Y-85458501D01*
X138328126Y-85458099D01*
X137903204Y-85633674D01*
X137577816Y-85958494D01*
X137541127Y-86046850D01*
X137505326Y-85960204D01*
X137180506Y-85634816D01*
X136755892Y-85458501D01*
X136296126Y-85458099D01*
X135871204Y-85633674D01*
X135545816Y-85958494D01*
X135509127Y-86046850D01*
X135473326Y-85960204D01*
X135148506Y-85634816D01*
X134723892Y-85458501D01*
X134264126Y-85458099D01*
X133839204Y-85633674D01*
X133513816Y-85958494D01*
X133477127Y-86046850D01*
X133441326Y-85960204D01*
X133116506Y-85634816D01*
X132691892Y-85458501D01*
X132232126Y-85458099D01*
X131807204Y-85633674D01*
X131481816Y-85958494D01*
X131445127Y-86046850D01*
X131409326Y-85960204D01*
X131084506Y-85634816D01*
X130659892Y-85458501D01*
X130200126Y-85458099D01*
X129775204Y-85633674D01*
X129449816Y-85958494D01*
X129273501Y-86383108D01*
X129273099Y-86842874D01*
X129448674Y-87267796D01*
X129773494Y-87593184D01*
X130079400Y-87720207D01*
X130079400Y-88995587D01*
X129762000Y-88995587D01*
X129616103Y-89023039D01*
X129482106Y-89109264D01*
X129392213Y-89240828D01*
X129360587Y-89397000D01*
X129360587Y-91197000D01*
X129387492Y-91339992D01*
X128963413Y-90915913D01*
X128963413Y-89397000D01*
X128935961Y-89251103D01*
X128849736Y-89117106D01*
X128718172Y-89027213D01*
X128562000Y-88995587D01*
X126962000Y-88995587D01*
X126816103Y-89023039D01*
X126682106Y-89109264D01*
X126592213Y-89240828D01*
X126560587Y-89397000D01*
X126560587Y-91197000D01*
X126588039Y-91342897D01*
X126674264Y-91476894D01*
X126805828Y-91566787D01*
X126962000Y-91598413D01*
X128280913Y-91598413D01*
X129058587Y-92376087D01*
X129058587Y-92956000D01*
X129086039Y-93101897D01*
X129172264Y-93235894D01*
X129303828Y-93325787D01*
X129460000Y-93357413D01*
X130260000Y-93357413D01*
X130405897Y-93329961D01*
X130539894Y-93243736D01*
X130629787Y-93112172D01*
X130661413Y-92956000D01*
X130661413Y-91956000D01*
X130633961Y-91810103D01*
X130547736Y-91676106D01*
X130434027Y-91598413D01*
X131188657Y-91598413D01*
X131080106Y-91668264D01*
X130990213Y-91799828D01*
X130958587Y-91956000D01*
X130958587Y-92956000D01*
X130986039Y-93101897D01*
X131072264Y-93235894D01*
X131203828Y-93325787D01*
X131277400Y-93340686D01*
X131277400Y-95684587D01*
X130660000Y-95684587D01*
X130514103Y-95712039D01*
X130449826Y-95753400D01*
X129482000Y-95753400D01*
X129297317Y-95790136D01*
X129140750Y-95894750D01*
X128869913Y-96165587D01*
X128151000Y-96165587D01*
X128005103Y-96193039D01*
X127887664Y-96268609D01*
X127783172Y-96197213D01*
X127627000Y-96165587D01*
X126627000Y-96165587D01*
X126481103Y-96193039D01*
X126347106Y-96279264D01*
X126257213Y-96410828D01*
X126225587Y-96567000D01*
X126225587Y-97367000D01*
X126253039Y-97512897D01*
X126339264Y-97646894D01*
X126470828Y-97736787D01*
X126627000Y-97768413D01*
X127627000Y-97768413D01*
X127772897Y-97740961D01*
X127890336Y-97665391D01*
X127994828Y-97736787D01*
X128151000Y-97768413D01*
X128489287Y-97768413D01*
X128309750Y-97947950D01*
X128231148Y-98065587D01*
X128151000Y-98065587D01*
X128005103Y-98093039D01*
X127887664Y-98168609D01*
X127783172Y-98097213D01*
X127627000Y-98065587D01*
X126627000Y-98065587D01*
X126481103Y-98093039D01*
X126347106Y-98179264D01*
X126257213Y-98310828D01*
X126225587Y-98467000D01*
X126225587Y-99267000D01*
X126253039Y-99412897D01*
X126339264Y-99546894D01*
X126470828Y-99636787D01*
X126627000Y-99668413D01*
X127627000Y-99668413D01*
X127772897Y-99640961D01*
X127890336Y-99565391D01*
X127994828Y-99636787D01*
X128151000Y-99668413D01*
X128869914Y-99668413D01*
X129057400Y-99855899D01*
X129057400Y-103531587D01*
X129040000Y-103531587D01*
X128894103Y-103559039D01*
X128760106Y-103645264D01*
X128670213Y-103776828D01*
X128638587Y-103933000D01*
X128638587Y-104733000D01*
X128666039Y-104878897D01*
X128752264Y-105012894D01*
X128883828Y-105102787D01*
X129040000Y-105134413D01*
X130040000Y-105134413D01*
X130185897Y-105106961D01*
X130319894Y-105020736D01*
X130409787Y-104889172D01*
X130424686Y-104815600D01*
X131448129Y-104815600D01*
X131460039Y-104878897D01*
X131546264Y-105012894D01*
X131677828Y-105102787D01*
X131834000Y-105134413D01*
X132834000Y-105134413D01*
X132979897Y-105106961D01*
X133113894Y-105020736D01*
X133203787Y-104889172D01*
X133218686Y-104815600D01*
X134369129Y-104815600D01*
X134381039Y-104878897D01*
X134467264Y-105012894D01*
X134598828Y-105102787D01*
X134755000Y-105134413D01*
X135755000Y-105134413D01*
X135900897Y-105106961D01*
X135952932Y-105073477D01*
X135995828Y-105102787D01*
X136152000Y-105134413D01*
X137152000Y-105134413D01*
X137297897Y-105106961D01*
X137349932Y-105073477D01*
X137392828Y-105102787D01*
X137549000Y-105134413D01*
X138549000Y-105134413D01*
X138694897Y-105106961D01*
X138828894Y-105020736D01*
X138918787Y-104889172D01*
X138933686Y-104815600D01*
X140084129Y-104815600D01*
X140096039Y-104878897D01*
X140182264Y-105012894D01*
X140313828Y-105102787D01*
X140470000Y-105134413D01*
X141470000Y-105134413D01*
X141615897Y-105106961D01*
X141749894Y-105020736D01*
X141839787Y-104889172D01*
X141854686Y-104815600D01*
X143005129Y-104815600D01*
X143017039Y-104878897D01*
X143103264Y-105012894D01*
X143234828Y-105102787D01*
X143391000Y-105134413D01*
X144391000Y-105134413D01*
X144536897Y-105106961D01*
X144670894Y-105020736D01*
X144760787Y-104889172D01*
X144775686Y-104815600D01*
X145799129Y-104815600D01*
X145811039Y-104878897D01*
X145897264Y-105012894D01*
X146028828Y-105102787D01*
X146185000Y-105134413D01*
X147185000Y-105134413D01*
X147330897Y-105106961D01*
X147464894Y-105020736D01*
X147554787Y-104889172D01*
X147586413Y-104733000D01*
X147586413Y-103933000D01*
X147558961Y-103787103D01*
X147472736Y-103653106D01*
X147341172Y-103563213D01*
X147185000Y-103531587D01*
X146185000Y-103531587D01*
X146039103Y-103559039D01*
X145905106Y-103645264D01*
X145815213Y-103776828D01*
X145800314Y-103850400D01*
X144776871Y-103850400D01*
X144764961Y-103787103D01*
X144678736Y-103653106D01*
X144547172Y-103563213D01*
X144391000Y-103531587D01*
X143391000Y-103531587D01*
X143245103Y-103559039D01*
X143111106Y-103645264D01*
X143021213Y-103776828D01*
X143006314Y-103850400D01*
X141855871Y-103850400D01*
X141843961Y-103787103D01*
X141757736Y-103653106D01*
X141690646Y-103607266D01*
X141710894Y-103594236D01*
X141800787Y-103462672D01*
X141832413Y-103306500D01*
X141832413Y-102306500D01*
X141804961Y-102160603D01*
X141771477Y-102108568D01*
X141800787Y-102065672D01*
X141832413Y-101909500D01*
X141832413Y-100909500D01*
X141804961Y-100763603D01*
X141718736Y-100629606D01*
X141587172Y-100539713D01*
X141431000Y-100508087D01*
X140631000Y-100508087D01*
X140485103Y-100535539D01*
X140351106Y-100621764D01*
X140349831Y-100623631D01*
X139395210Y-99669010D01*
X139395210Y-97460810D01*
X139358474Y-97276127D01*
X139253860Y-97119560D01*
X138679050Y-96544750D01*
X138547117Y-96456596D01*
X138561413Y-96386000D01*
X138561413Y-96086000D01*
X138533961Y-95940103D01*
X138447736Y-95806106D01*
X138316172Y-95716213D01*
X138160000Y-95684587D01*
X137741700Y-95684587D01*
X137741700Y-94985702D01*
X137766897Y-94980961D01*
X137900894Y-94894736D01*
X137990787Y-94763172D01*
X138018221Y-94627700D01*
X138150818Y-94627700D01*
X139623800Y-96100681D01*
X139623800Y-99123495D01*
X139623799Y-99123500D01*
X139663436Y-99322763D01*
X139776309Y-99491691D01*
X140347807Y-100063188D01*
X140347809Y-100063191D01*
X140464056Y-100140864D01*
X140516737Y-100176064D01*
X140716000Y-100215701D01*
X140716005Y-100215700D01*
X144017995Y-100215700D01*
X144018000Y-100215701D01*
X144217263Y-100176064D01*
X144386191Y-100063191D01*
X144830688Y-99618693D01*
X144830691Y-99618691D01*
X144943564Y-99449763D01*
X144957914Y-99377621D01*
X144983201Y-99250500D01*
X144983200Y-99250495D01*
X144983200Y-98292325D01*
X145461100Y-98292325D01*
X145461100Y-98496731D01*
X145551973Y-98716117D01*
X145719883Y-98884028D01*
X145939269Y-98974900D01*
X146243675Y-98974900D01*
X146392900Y-98825675D01*
X146392900Y-98143100D01*
X145610325Y-98143100D01*
X145461100Y-98292325D01*
X144983200Y-98292325D01*
X144983200Y-97635182D01*
X145159112Y-97459269D01*
X145461100Y-97459269D01*
X145461100Y-97663675D01*
X145610325Y-97812900D01*
X146392900Y-97812900D01*
X146392900Y-97130325D01*
X146723100Y-97130325D01*
X146723100Y-97812900D01*
X146743100Y-97812900D01*
X146743100Y-98143100D01*
X146723100Y-98143100D01*
X146723100Y-98825675D01*
X146872325Y-98974900D01*
X147093100Y-98974900D01*
X147093100Y-99349731D01*
X147183973Y-99569117D01*
X147351883Y-99737028D01*
X147571269Y-99827900D01*
X148275675Y-99827900D01*
X148424900Y-99678675D01*
X148424900Y-98596100D01*
X148404900Y-98596100D01*
X148404900Y-98265900D01*
X148424900Y-98265900D01*
X148424900Y-97183325D01*
X148275675Y-97034100D01*
X147571269Y-97034100D01*
X147420638Y-97096493D01*
X147396117Y-97071972D01*
X147176731Y-96981100D01*
X146872325Y-96981100D01*
X146723100Y-97130325D01*
X146392900Y-97130325D01*
X146243675Y-96981100D01*
X145939269Y-96981100D01*
X145719883Y-97071972D01*
X145551973Y-97239883D01*
X145461100Y-97459269D01*
X145159112Y-97459269D01*
X145823864Y-96794517D01*
X145901828Y-96847787D01*
X146058000Y-96879413D01*
X147058000Y-96879413D01*
X147203897Y-96851961D01*
X147337894Y-96765736D01*
X147389218Y-96690620D01*
X147402264Y-96710894D01*
X147533828Y-96800787D01*
X147690000Y-96832413D01*
X149155032Y-96832413D01*
X149356719Y-97034100D01*
X148904325Y-97034100D01*
X148755100Y-97183325D01*
X148755100Y-98265900D01*
X148775100Y-98265900D01*
X148775100Y-98596100D01*
X148755100Y-98596100D01*
X148755100Y-99678675D01*
X148904325Y-99827900D01*
X149117719Y-99827900D01*
X148602809Y-100342809D01*
X148489936Y-100511737D01*
X148450299Y-100711000D01*
X148450300Y-100711005D01*
X148450300Y-109393995D01*
X148450299Y-109394000D01*
X148489936Y-109593263D01*
X148602809Y-109762191D01*
X148837277Y-109996659D01*
X148700731Y-109940100D01*
X148396325Y-109940100D01*
X148247100Y-110089325D01*
X148247100Y-110771900D01*
X148267100Y-110771900D01*
X148267100Y-111102100D01*
X148247100Y-111102100D01*
X148247100Y-111122100D01*
X147916900Y-111122100D01*
X147916900Y-111102100D01*
X147896900Y-111102100D01*
X147896900Y-110771900D01*
X147916900Y-110771900D01*
X147916900Y-110089325D01*
X147767675Y-109940100D01*
X147463269Y-109940100D01*
X147243883Y-110030972D01*
X147167600Y-110107255D01*
X147167600Y-107034413D01*
X147185000Y-107034413D01*
X147330897Y-107006961D01*
X147464894Y-106920736D01*
X147554787Y-106789172D01*
X147586413Y-106633000D01*
X147586413Y-105833000D01*
X147558961Y-105687103D01*
X147472736Y-105553106D01*
X147341172Y-105463213D01*
X147185000Y-105431587D01*
X146185000Y-105431587D01*
X146039103Y-105459039D01*
X145905106Y-105545264D01*
X145815213Y-105676828D01*
X145783587Y-105833000D01*
X145783587Y-106633000D01*
X145811039Y-106778897D01*
X145897264Y-106912894D01*
X146028828Y-107002787D01*
X146185000Y-107034413D01*
X146202400Y-107034413D01*
X146202400Y-110107255D01*
X146126117Y-110030972D01*
X145906731Y-109940100D01*
X145602325Y-109940100D01*
X145453100Y-110089325D01*
X145453100Y-110771900D01*
X145473100Y-110771900D01*
X145473100Y-111102100D01*
X145453100Y-111102100D01*
X145453100Y-111784675D01*
X145602325Y-111933900D01*
X145906731Y-111933900D01*
X146126117Y-111843028D01*
X146230731Y-111738413D01*
X147139269Y-111738413D01*
X147243883Y-111843028D01*
X147463269Y-111933900D01*
X147634236Y-111933900D01*
X147600936Y-111983737D01*
X147590622Y-112035587D01*
X147582000Y-112035587D01*
X147436103Y-112063039D01*
X147384068Y-112096523D01*
X147341172Y-112067213D01*
X147185000Y-112035587D01*
X146185000Y-112035587D01*
X146039103Y-112063039D01*
X145987068Y-112096523D01*
X145944172Y-112067213D01*
X145788000Y-112035587D01*
X144788000Y-112035587D01*
X144642103Y-112063039D01*
X144590068Y-112096523D01*
X144547172Y-112067213D01*
X144391000Y-112035587D01*
X143391000Y-112035587D01*
X143245103Y-112063039D01*
X143193068Y-112096523D01*
X143150172Y-112067213D01*
X142994000Y-112035587D01*
X141994000Y-112035587D01*
X141848103Y-112063039D01*
X141714106Y-112149264D01*
X141641829Y-112255045D01*
X141605000Y-112247587D01*
X140335000Y-112247587D01*
X140296608Y-112254811D01*
X140233736Y-112157106D01*
X140102172Y-112067213D01*
X139946000Y-112035587D01*
X138946000Y-112035587D01*
X138800103Y-112063039D01*
X138748068Y-112096523D01*
X138705172Y-112067213D01*
X138549000Y-112035587D01*
X137549000Y-112035587D01*
X137403103Y-112063039D01*
X137351068Y-112096523D01*
X137308172Y-112067213D01*
X137152000Y-112035587D01*
X136152000Y-112035587D01*
X136006103Y-112063039D01*
X135954068Y-112096523D01*
X135911172Y-112067213D01*
X135755000Y-112035587D01*
X134755000Y-112035587D01*
X134609103Y-112063039D01*
X134557068Y-112096523D01*
X134514172Y-112067213D01*
X134358000Y-112035587D01*
X133358000Y-112035587D01*
X133212103Y-112063039D01*
X133160068Y-112096523D01*
X133117172Y-112067213D01*
X132961000Y-112035587D01*
X131961000Y-112035587D01*
X131815103Y-112063039D01*
X131763068Y-112096523D01*
X131720172Y-112067213D01*
X131564000Y-112035587D01*
X130564000Y-112035587D01*
X130418103Y-112063039D01*
X130366068Y-112096523D01*
X130323172Y-112067213D01*
X130167000Y-112035587D01*
X129167000Y-112035587D01*
X129021103Y-112063039D01*
X128887106Y-112149264D01*
X128814829Y-112255045D01*
X128778000Y-112247587D01*
X127508000Y-112247587D01*
X127469608Y-112254811D01*
X127406736Y-112157106D01*
X127275172Y-112067213D01*
X127119000Y-112035587D01*
X126119000Y-112035587D01*
X125973103Y-112063039D01*
X125839106Y-112149264D01*
X125749213Y-112280828D01*
X125717587Y-112437000D01*
X125717587Y-113237000D01*
X125745039Y-113382897D01*
X125831264Y-113516894D01*
X125962828Y-113606787D01*
X126119000Y-113638413D01*
X127106587Y-113638413D01*
X127106587Y-113665000D01*
X127134039Y-113810897D01*
X127220264Y-113944894D01*
X127302332Y-114000968D01*
X126912750Y-114390550D01*
X126808136Y-114547117D01*
X126771400Y-114731800D01*
X126771400Y-114914587D01*
X126619000Y-114914587D01*
X126473103Y-114942039D01*
X126339106Y-115028264D01*
X126249213Y-115159828D01*
X126217587Y-115316000D01*
X126217587Y-116586000D01*
X126245039Y-116731897D01*
X126331264Y-116865894D01*
X126349128Y-116878100D01*
X125691900Y-116878100D01*
X125691900Y-111754044D01*
X125780883Y-111843028D01*
X126000269Y-111933900D01*
X126304675Y-111933900D01*
X126453900Y-111784675D01*
X126453900Y-111102100D01*
X126433900Y-111102100D01*
X126433900Y-110771900D01*
X126453900Y-110771900D01*
X126453900Y-110089325D01*
X126784100Y-110089325D01*
X126784100Y-110771900D01*
X126804100Y-110771900D01*
X126804100Y-111102100D01*
X126784100Y-111102100D01*
X126784100Y-111784675D01*
X126933325Y-111933900D01*
X127237731Y-111933900D01*
X127369426Y-111879351D01*
X127508000Y-111907413D01*
X128778000Y-111907413D01*
X128919875Y-111880718D01*
X129048269Y-111933900D01*
X129352675Y-111933900D01*
X129501900Y-111784675D01*
X129501900Y-111102100D01*
X129481900Y-111102100D01*
X129481900Y-110771900D01*
X129501900Y-110771900D01*
X129501900Y-110089325D01*
X129832100Y-110089325D01*
X129832100Y-110771900D01*
X129852100Y-110771900D01*
X129852100Y-111102100D01*
X129832100Y-111102100D01*
X129832100Y-111784675D01*
X129981325Y-111933900D01*
X130285731Y-111933900D01*
X130505117Y-111843028D01*
X130609731Y-111738413D01*
X131518269Y-111738413D01*
X131622883Y-111843028D01*
X131842269Y-111933900D01*
X132146675Y-111933900D01*
X132295900Y-111784675D01*
X132295900Y-111102100D01*
X132275900Y-111102100D01*
X132275900Y-110771900D01*
X132295900Y-110771900D01*
X132295900Y-110089325D01*
X132626100Y-110089325D01*
X132626100Y-110771900D01*
X132646100Y-110771900D01*
X132646100Y-111102100D01*
X132626100Y-111102100D01*
X132626100Y-111784675D01*
X132775325Y-111933900D01*
X133079731Y-111933900D01*
X133299117Y-111843028D01*
X133403731Y-111738413D01*
X134312269Y-111738413D01*
X134416883Y-111843028D01*
X134636269Y-111933900D01*
X134940675Y-111933900D01*
X135089900Y-111784675D01*
X135089900Y-111102100D01*
X135069900Y-111102100D01*
X135069900Y-110771900D01*
X135089900Y-110771900D01*
X135089900Y-110089325D01*
X134940675Y-109940100D01*
X134636269Y-109940100D01*
X134416883Y-110030972D01*
X134340600Y-110107255D01*
X134340600Y-108407700D01*
X135596247Y-107152052D01*
X135596250Y-107152050D01*
X135674852Y-107034413D01*
X135755000Y-107034413D01*
X135900897Y-107006961D01*
X135952932Y-106973477D01*
X135995828Y-107002787D01*
X136152000Y-107034413D01*
X136169400Y-107034413D01*
X136169400Y-110107255D01*
X136093117Y-110030972D01*
X135873731Y-109940100D01*
X135569325Y-109940100D01*
X135420100Y-110089325D01*
X135420100Y-110771900D01*
X135440100Y-110771900D01*
X135440100Y-111102100D01*
X135420100Y-111102100D01*
X135420100Y-111784675D01*
X135569325Y-111933900D01*
X135873731Y-111933900D01*
X136093117Y-111843028D01*
X136197731Y-111738413D01*
X137152000Y-111738413D01*
X137297897Y-111710961D01*
X137349932Y-111677477D01*
X137392828Y-111706787D01*
X137549000Y-111738413D01*
X138503269Y-111738413D01*
X138607883Y-111843028D01*
X138827269Y-111933900D01*
X139131675Y-111933900D01*
X139280900Y-111784675D01*
X139280900Y-111102100D01*
X139260900Y-111102100D01*
X139260900Y-110771900D01*
X139280900Y-110771900D01*
X139280900Y-110089325D01*
X139611100Y-110089325D01*
X139611100Y-110771900D01*
X139631100Y-110771900D01*
X139631100Y-111102100D01*
X139611100Y-111102100D01*
X139611100Y-111784675D01*
X139760325Y-111933900D01*
X140064731Y-111933900D01*
X140196426Y-111879351D01*
X140335000Y-111907413D01*
X141605000Y-111907413D01*
X141746875Y-111880718D01*
X141875269Y-111933900D01*
X142179675Y-111933900D01*
X142328900Y-111784675D01*
X142328900Y-111102100D01*
X142308900Y-111102100D01*
X142308900Y-110771900D01*
X142328900Y-110771900D01*
X142328900Y-110089325D01*
X142659100Y-110089325D01*
X142659100Y-110771900D01*
X142679100Y-110771900D01*
X142679100Y-111102100D01*
X142659100Y-111102100D01*
X142659100Y-111784675D01*
X142808325Y-111933900D01*
X143112731Y-111933900D01*
X143332117Y-111843028D01*
X143436731Y-111738413D01*
X144345269Y-111738413D01*
X144449883Y-111843028D01*
X144669269Y-111933900D01*
X144973675Y-111933900D01*
X145122900Y-111784675D01*
X145122900Y-111102100D01*
X145102900Y-111102100D01*
X145102900Y-110771900D01*
X145122900Y-110771900D01*
X145122900Y-110089325D01*
X144973675Y-109940100D01*
X144669269Y-109940100D01*
X144449883Y-110030972D01*
X144373600Y-110107255D01*
X144373600Y-107034413D01*
X144391000Y-107034413D01*
X144536897Y-107006961D01*
X144670894Y-106920736D01*
X144760787Y-106789172D01*
X144792413Y-106633000D01*
X144792413Y-105833000D01*
X144764961Y-105687103D01*
X144678736Y-105553106D01*
X144547172Y-105463213D01*
X144391000Y-105431587D01*
X143391000Y-105431587D01*
X143245103Y-105459039D01*
X143111106Y-105545264D01*
X143021213Y-105676828D01*
X142989587Y-105833000D01*
X142989587Y-106633000D01*
X143017039Y-106778897D01*
X143103264Y-106912894D01*
X143234828Y-107002787D01*
X143391000Y-107034413D01*
X143408400Y-107034413D01*
X143408400Y-110107255D01*
X143332117Y-110030972D01*
X143112731Y-109940100D01*
X142808325Y-109940100D01*
X142659100Y-110089325D01*
X142328900Y-110089325D01*
X142179675Y-109940100D01*
X141875269Y-109940100D01*
X141655883Y-110030972D01*
X141598268Y-110088587D01*
X141452600Y-110088587D01*
X141452600Y-107034413D01*
X141470000Y-107034413D01*
X141615897Y-107006961D01*
X141749894Y-106920736D01*
X141839787Y-106789172D01*
X141871413Y-106633000D01*
X141871413Y-105833000D01*
X141843961Y-105687103D01*
X141757736Y-105553106D01*
X141626172Y-105463213D01*
X141470000Y-105431587D01*
X140470000Y-105431587D01*
X140324103Y-105459039D01*
X140190106Y-105545264D01*
X140100213Y-105676828D01*
X140068587Y-105833000D01*
X140068587Y-106633000D01*
X140096039Y-106778897D01*
X140182264Y-106912894D01*
X140313828Y-107002787D01*
X140470000Y-107034413D01*
X140487400Y-107034413D01*
X140487400Y-110088587D01*
X140341732Y-110088587D01*
X140284117Y-110030972D01*
X140064731Y-109940100D01*
X139760325Y-109940100D01*
X139611100Y-110089325D01*
X139280900Y-110089325D01*
X139131675Y-109940100D01*
X138827269Y-109940100D01*
X138607883Y-110030972D01*
X138531600Y-110107255D01*
X138531600Y-107034413D01*
X138549000Y-107034413D01*
X138694897Y-107006961D01*
X138828894Y-106920736D01*
X138918787Y-106789172D01*
X138950413Y-106633000D01*
X138950413Y-105833000D01*
X138922961Y-105687103D01*
X138836736Y-105553106D01*
X138705172Y-105463213D01*
X138549000Y-105431587D01*
X137549000Y-105431587D01*
X137403103Y-105459039D01*
X137351068Y-105492523D01*
X137308172Y-105463213D01*
X137152000Y-105431587D01*
X136152000Y-105431587D01*
X136006103Y-105459039D01*
X135954068Y-105492523D01*
X135911172Y-105463213D01*
X135755000Y-105431587D01*
X134755000Y-105431587D01*
X134609103Y-105459039D01*
X134475106Y-105545264D01*
X134385213Y-105676828D01*
X134353587Y-105833000D01*
X134353587Y-106633000D01*
X134381039Y-106778897D01*
X134467264Y-106912894D01*
X134469131Y-106914170D01*
X133516750Y-107866550D01*
X133412136Y-108023117D01*
X133375400Y-108207800D01*
X133375400Y-110107255D01*
X133299117Y-110030972D01*
X133079731Y-109940100D01*
X132775325Y-109940100D01*
X132626100Y-110089325D01*
X132295900Y-110089325D01*
X132146675Y-109940100D01*
X131842269Y-109940100D01*
X131622883Y-110030972D01*
X131546600Y-110107255D01*
X131546600Y-108280700D01*
X132675250Y-107152050D01*
X132753852Y-107034413D01*
X132834000Y-107034413D01*
X132979897Y-107006961D01*
X133113894Y-106920736D01*
X133203787Y-106789172D01*
X133235413Y-106633000D01*
X133235413Y-105833000D01*
X133207961Y-105687103D01*
X133121736Y-105553106D01*
X132990172Y-105463213D01*
X132834000Y-105431587D01*
X131834000Y-105431587D01*
X131688103Y-105459039D01*
X131554106Y-105545264D01*
X131464213Y-105676828D01*
X131432587Y-105833000D01*
X131432587Y-106633000D01*
X131460039Y-106778897D01*
X131546264Y-106912894D01*
X131548131Y-106914169D01*
X130722750Y-107739550D01*
X130618136Y-107896117D01*
X130581400Y-108080800D01*
X130581400Y-110107255D01*
X130505117Y-110030972D01*
X130285731Y-109940100D01*
X129981325Y-109940100D01*
X129832100Y-110089325D01*
X129501900Y-110089325D01*
X129352675Y-109940100D01*
X129048269Y-109940100D01*
X128828883Y-110030972D01*
X128771268Y-110088587D01*
X128625600Y-110088587D01*
X128625600Y-108407700D01*
X129881247Y-107152052D01*
X129881250Y-107152050D01*
X129959852Y-107034413D01*
X130040000Y-107034413D01*
X130185897Y-107006961D01*
X130319894Y-106920736D01*
X130409787Y-106789172D01*
X130441413Y-106633000D01*
X130441413Y-105833000D01*
X130413961Y-105687103D01*
X130327736Y-105553106D01*
X130196172Y-105463213D01*
X130040000Y-105431587D01*
X129040000Y-105431587D01*
X128894103Y-105459039D01*
X128760106Y-105545264D01*
X128670213Y-105676828D01*
X128638587Y-105833000D01*
X128638587Y-106633000D01*
X128666039Y-106778897D01*
X128752264Y-106912894D01*
X128754131Y-106914170D01*
X127801750Y-107866550D01*
X127697136Y-108023117D01*
X127660400Y-108207800D01*
X127660400Y-110088587D01*
X127514732Y-110088587D01*
X127457117Y-110030972D01*
X127237731Y-109940100D01*
X126933325Y-109940100D01*
X126784100Y-110089325D01*
X126453900Y-110089325D01*
X126304675Y-109940100D01*
X126000269Y-109940100D01*
X125780883Y-110030972D01*
X125691900Y-110119956D01*
X125691900Y-102041325D01*
X126022100Y-102041325D01*
X126022100Y-102480731D01*
X126112972Y-102700117D01*
X126280883Y-102868027D01*
X126500269Y-102958900D01*
X126939675Y-102958900D01*
X127088900Y-102809675D01*
X127088900Y-101892100D01*
X127419100Y-101892100D01*
X127419100Y-102809675D01*
X127568325Y-102958900D01*
X128007731Y-102958900D01*
X128227117Y-102868027D01*
X128395028Y-102700117D01*
X128485900Y-102480731D01*
X128485900Y-102041325D01*
X128336675Y-101892100D01*
X127419100Y-101892100D01*
X127088900Y-101892100D01*
X126171325Y-101892100D01*
X126022100Y-102041325D01*
X125691900Y-102041325D01*
X125691900Y-100973269D01*
X126022100Y-100973269D01*
X126022100Y-101412675D01*
X126171325Y-101561900D01*
X127088900Y-101561900D01*
X127088900Y-100644325D01*
X127419100Y-100644325D01*
X127419100Y-101561900D01*
X128336675Y-101561900D01*
X128485900Y-101412675D01*
X128485900Y-100973269D01*
X128395028Y-100753883D01*
X128227117Y-100585973D01*
X128007731Y-100495100D01*
X127568325Y-100495100D01*
X127419100Y-100644325D01*
X127088900Y-100644325D01*
X126939675Y-100495100D01*
X126500269Y-100495100D01*
X126280883Y-100585973D01*
X126112972Y-100753883D01*
X126022100Y-100973269D01*
X125691900Y-100973269D01*
X125691900Y-84302874D01*
X129273099Y-84302874D01*
X129448674Y-84727796D01*
X129773494Y-85053184D01*
X130198108Y-85229499D01*
X130657874Y-85229901D01*
X131082796Y-85054326D01*
X131408184Y-84729506D01*
X131584499Y-84304892D01*
X131584901Y-83845126D01*
X131409326Y-83420204D01*
X131084506Y-83094816D01*
X130659892Y-82918501D01*
X130200126Y-82918099D01*
X129775204Y-83093674D01*
X129449816Y-83418494D01*
X129273501Y-83843108D01*
X129273099Y-84302874D01*
X125691900Y-84302874D01*
X125691900Y-82815514D01*
X125951972Y-82815514D01*
X126120222Y-83121397D01*
X126911198Y-83415107D01*
X127754362Y-83383766D01*
X128387778Y-83121397D01*
X128556028Y-82815514D01*
X127254000Y-81513487D01*
X125951972Y-82815514D01*
X125691900Y-82815514D01*
X125691900Y-82567405D01*
X125718486Y-82582028D01*
X127020513Y-81280000D01*
X127487487Y-81280000D01*
X128789514Y-82582028D01*
X129095397Y-82413778D01*
X129229172Y-82053514D01*
X133190972Y-82053514D01*
X133359222Y-82359397D01*
X134150198Y-82653107D01*
X134993362Y-82621766D01*
X135626778Y-82359397D01*
X135795028Y-82053514D01*
X134493000Y-80751487D01*
X133190972Y-82053514D01*
X129229172Y-82053514D01*
X129389107Y-81622802D01*
X129357766Y-80779638D01*
X129107400Y-80175198D01*
X132357893Y-80175198D01*
X132389234Y-81018362D01*
X132651603Y-81651778D01*
X132957486Y-81820028D01*
X134259513Y-80518000D01*
X134726487Y-80518000D01*
X136028514Y-81820028D01*
X136334397Y-81651778D01*
X136599739Y-80937198D01*
X139596893Y-80937198D01*
X139628234Y-81780362D01*
X139890603Y-82413778D01*
X140196486Y-82582028D01*
X141498513Y-81280000D01*
X141965487Y-81280000D01*
X143267514Y-82582028D01*
X143573397Y-82413778D01*
X143867107Y-81622802D01*
X143835766Y-80779638D01*
X143573397Y-80146222D01*
X143267514Y-79977972D01*
X141965487Y-81280000D01*
X141498513Y-81280000D01*
X140196486Y-79977972D01*
X139890603Y-80146222D01*
X139596893Y-80937198D01*
X136599739Y-80937198D01*
X136628107Y-80860802D01*
X136596766Y-80017638D01*
X136483623Y-79744486D01*
X140429972Y-79744486D01*
X141732000Y-81046513D01*
X143034028Y-79744486D01*
X142865778Y-79438603D01*
X142074802Y-79144893D01*
X141231638Y-79176234D01*
X140598222Y-79438603D01*
X140429972Y-79744486D01*
X136483623Y-79744486D01*
X136334397Y-79384222D01*
X136028514Y-79215972D01*
X134726487Y-80518000D01*
X134259513Y-80518000D01*
X132957486Y-79215972D01*
X132651603Y-79384222D01*
X132357893Y-80175198D01*
X129107400Y-80175198D01*
X129095397Y-80146222D01*
X128789514Y-79977972D01*
X127487487Y-81280000D01*
X127020513Y-81280000D01*
X125718486Y-79977972D01*
X125691900Y-79992595D01*
X125691900Y-79744486D01*
X125951972Y-79744486D01*
X127254000Y-81046513D01*
X128556028Y-79744486D01*
X128387778Y-79438603D01*
X127596802Y-79144893D01*
X126753638Y-79176234D01*
X126120222Y-79438603D01*
X125951972Y-79744486D01*
X125691900Y-79744486D01*
X125691900Y-78828900D01*
X133275451Y-78828900D01*
X133190972Y-78982486D01*
X133190972Y-78982486D01*
G37*
X133190972Y-78982486D02*
X134493000Y-80284513D01*
X135795028Y-78982486D01*
X135710549Y-78828900D01*
X156375100Y-78828900D01*
X156375100Y-87475226D01*
X156304107Y-87451880D01*
X155554487Y-88201500D01*
X156304107Y-88951120D01*
X156375100Y-88927774D01*
X156375100Y-105218900D01*
X156169485Y-105013285D01*
X156254287Y-104889172D01*
X156285913Y-104733000D01*
X156285913Y-103933000D01*
X156258461Y-103787103D01*
X156172236Y-103653106D01*
X156040672Y-103563213D01*
X155884500Y-103531587D01*
X155165586Y-103531587D01*
X152927600Y-101293600D01*
X152927600Y-100473075D01*
X153020000Y-100380675D01*
X153020000Y-100104602D01*
X153088973Y-100271117D01*
X153170000Y-100352144D01*
X153170000Y-100380675D01*
X153319225Y-100529900D01*
X153363731Y-100529900D01*
X153420000Y-100506593D01*
X153476269Y-100529900D01*
X153520775Y-100529900D01*
X153670000Y-100380675D01*
X153670000Y-100352144D01*
X153751027Y-100271117D01*
X153820000Y-100104602D01*
X153820000Y-100380675D01*
X153969225Y-100529900D01*
X154013731Y-100529900D01*
X154233117Y-100439028D01*
X154337731Y-100334413D01*
X154545000Y-100334413D01*
X154690897Y-100306961D01*
X154824894Y-100220736D01*
X154914787Y-100089172D01*
X154946413Y-99933000D01*
X154946413Y-97933000D01*
X154918961Y-97787103D01*
X154832736Y-97653106D01*
X154701172Y-97563213D01*
X154545000Y-97531587D01*
X154337731Y-97531587D01*
X154233117Y-97426972D01*
X154013731Y-97336100D01*
X153969225Y-97336100D01*
X153820000Y-97485325D01*
X153820000Y-97761398D01*
X153751027Y-97594883D01*
X153670000Y-97513856D01*
X153670000Y-97485325D01*
X153520775Y-97336100D01*
X153476269Y-97336100D01*
X153420000Y-97359407D01*
X153363731Y-97336100D01*
X153319225Y-97336100D01*
X153170000Y-97485325D01*
X153170000Y-97513856D01*
X153088973Y-97594883D01*
X153020000Y-97761398D01*
X153020000Y-97485325D01*
X152870775Y-97336100D01*
X152826269Y-97336100D01*
X152606883Y-97426972D01*
X152502269Y-97531587D01*
X152295000Y-97531587D01*
X152149103Y-97559039D01*
X152121273Y-97576947D01*
X152101172Y-97563213D01*
X151945000Y-97531587D01*
X151645000Y-97531587D01*
X151499103Y-97559039D01*
X151471273Y-97576947D01*
X151451172Y-97563213D01*
X151295000Y-97531587D01*
X150995000Y-97531587D01*
X150849103Y-97559039D01*
X150821273Y-97576947D01*
X150801172Y-97563213D01*
X150645000Y-97531587D01*
X150507700Y-97531587D01*
X150507700Y-96928005D01*
X150507701Y-96928000D01*
X150468064Y-96728737D01*
X150449743Y-96701317D01*
X150355191Y-96559809D01*
X150355188Y-96559807D01*
X149947081Y-96151700D01*
X152463495Y-96151700D01*
X152463500Y-96151701D01*
X152662763Y-96112064D01*
X152831691Y-95999191D01*
X153463188Y-95367693D01*
X153463191Y-95367691D01*
X153576064Y-95198763D01*
X153615701Y-94999500D01*
X153615700Y-94999495D01*
X153615700Y-94334413D01*
X153895000Y-94334413D01*
X154040897Y-94306961D01*
X154068727Y-94289053D01*
X154088828Y-94302787D01*
X154245000Y-94334413D01*
X154545000Y-94334413D01*
X154690897Y-94306961D01*
X154824894Y-94220736D01*
X154914787Y-94089172D01*
X154946413Y-93933000D01*
X154946413Y-91933000D01*
X154918961Y-91787103D01*
X154832736Y-91653106D01*
X154705102Y-91565898D01*
X154945587Y-91325413D01*
X155464500Y-91325413D01*
X155610397Y-91297961D01*
X155744394Y-91211736D01*
X155834287Y-91080172D01*
X155865913Y-90924000D01*
X155865913Y-89924000D01*
X155838461Y-89778103D01*
X155752236Y-89644106D01*
X155620672Y-89554213D01*
X155572902Y-89544539D01*
X155699267Y-89534386D01*
X155996018Y-89411467D01*
X156070620Y-89184607D01*
X155321000Y-88434987D01*
X155306858Y-88449129D01*
X155073371Y-88215642D01*
X155087513Y-88201500D01*
X154337893Y-87451880D01*
X154111033Y-87526482D01*
X153944817Y-88040899D01*
X153986834Y-88563834D01*
X153912702Y-88489702D01*
X153936499Y-88432392D01*
X153936901Y-87972626D01*
X153761326Y-87547704D01*
X153436506Y-87222316D01*
X153427059Y-87218393D01*
X154571380Y-87218393D01*
X155321000Y-87968013D01*
X156070620Y-87218393D01*
X155996018Y-86991533D01*
X155481601Y-86825317D01*
X154942733Y-86868614D01*
X154645982Y-86991533D01*
X154571380Y-87218393D01*
X153427059Y-87218393D01*
X153011892Y-87046001D01*
X152552126Y-87045599D01*
X152127204Y-87221174D01*
X151801816Y-87545994D01*
X151625501Y-87970608D01*
X151625099Y-88430374D01*
X151800674Y-88855296D01*
X152125494Y-89180684D01*
X152550108Y-89356999D01*
X153009874Y-89357401D01*
X153296832Y-89238832D01*
X153584672Y-89526672D01*
X153564500Y-89522587D01*
X152764500Y-89522587D01*
X152618603Y-89550039D01*
X152484606Y-89636264D01*
X152394713Y-89767828D01*
X152363087Y-89924000D01*
X152363087Y-90413271D01*
X147511346Y-85561530D01*
X147354779Y-85456916D01*
X147170096Y-85420180D01*
X141088587Y-85420180D01*
X140881100Y-85212692D01*
X140881100Y-83756500D01*
X140844364Y-83571817D01*
X140739750Y-83415250D01*
X140140014Y-82815514D01*
X140429972Y-82815514D01*
X140598222Y-83121397D01*
X141389198Y-83415107D01*
X142232362Y-83383766D01*
X142865778Y-83121397D01*
X143034028Y-82815514D01*
X141732000Y-81513487D01*
X140429972Y-82815514D01*
X140140014Y-82815514D01*
X139723750Y-82399250D01*
X139567183Y-82294636D01*
X139382500Y-82257900D01*
X137096505Y-82257900D01*
X137096500Y-82257899D01*
X136911817Y-82294636D01*
X136755250Y-82399250D01*
X136164964Y-82989536D01*
X135993892Y-82918501D01*
X135534126Y-82918099D01*
X135109204Y-83093674D01*
X134783816Y-83418494D01*
X134747127Y-83506850D01*
X134711326Y-83420204D01*
X134386506Y-83094816D01*
X133961892Y-82918501D01*
X133502126Y-82918099D01*
X133077204Y-83093674D01*
X132751816Y-83418494D01*
X132575501Y-83843108D01*
X132575099Y-84302874D01*
X132750674Y-84727796D01*
X133075494Y-85053184D01*
X133500108Y-85229499D01*
X133959874Y-85229901D01*
X134384796Y-85054326D01*
X134710184Y-84729506D01*
X134746873Y-84641150D01*
X134782674Y-84727796D01*
X135107494Y-85053184D01*
X135532108Y-85229499D01*
X135991874Y-85229901D01*
X136416796Y-85054326D01*
X136742184Y-84729506D01*
X136918499Y-84304892D01*
X136918901Y-83845126D01*
X136847406Y-83672094D01*
X137296400Y-83223100D01*
X137773552Y-83223100D01*
X137577816Y-83418494D01*
X137401501Y-83843108D01*
X137401099Y-84302874D01*
X137576674Y-84727796D01*
X137901494Y-85053184D01*
X138326108Y-85229499D01*
X138785874Y-85229901D01*
X138958906Y-85158406D01*
X139931900Y-86131400D01*
X139608063Y-86131400D01*
X139537326Y-85960204D01*
X139212506Y-85634816D01*
X138787892Y-85458501D01*
X138328126Y-85458099D01*
X137903204Y-85633674D01*
X137577816Y-85958494D01*
X137541127Y-86046850D01*
X137505326Y-85960204D01*
X137180506Y-85634816D01*
X136755892Y-85458501D01*
X136296126Y-85458099D01*
X135871204Y-85633674D01*
X135545816Y-85958494D01*
X135509127Y-86046850D01*
X135473326Y-85960204D01*
X135148506Y-85634816D01*
X134723892Y-85458501D01*
X134264126Y-85458099D01*
X133839204Y-85633674D01*
X133513816Y-85958494D01*
X133477127Y-86046850D01*
X133441326Y-85960204D01*
X133116506Y-85634816D01*
X132691892Y-85458501D01*
X132232126Y-85458099D01*
X131807204Y-85633674D01*
X131481816Y-85958494D01*
X131445127Y-86046850D01*
X131409326Y-85960204D01*
X131084506Y-85634816D01*
X130659892Y-85458501D01*
X130200126Y-85458099D01*
X129775204Y-85633674D01*
X129449816Y-85958494D01*
X129273501Y-86383108D01*
X129273099Y-86842874D01*
X129448674Y-87267796D01*
X129773494Y-87593184D01*
X130079400Y-87720207D01*
X130079400Y-88995587D01*
X129762000Y-88995587D01*
X129616103Y-89023039D01*
X129482106Y-89109264D01*
X129392213Y-89240828D01*
X129360587Y-89397000D01*
X129360587Y-91197000D01*
X129387492Y-91339992D01*
X128963413Y-90915913D01*
X128963413Y-89397000D01*
X128935961Y-89251103D01*
X128849736Y-89117106D01*
X128718172Y-89027213D01*
X128562000Y-88995587D01*
X126962000Y-88995587D01*
X126816103Y-89023039D01*
X126682106Y-89109264D01*
X126592213Y-89240828D01*
X126560587Y-89397000D01*
X126560587Y-91197000D01*
X126588039Y-91342897D01*
X126674264Y-91476894D01*
X126805828Y-91566787D01*
X126962000Y-91598413D01*
X128280913Y-91598413D01*
X129058587Y-92376087D01*
X129058587Y-92956000D01*
X129086039Y-93101897D01*
X129172264Y-93235894D01*
X129303828Y-93325787D01*
X129460000Y-93357413D01*
X130260000Y-93357413D01*
X130405897Y-93329961D01*
X130539894Y-93243736D01*
X130629787Y-93112172D01*
X130661413Y-92956000D01*
X130661413Y-91956000D01*
X130633961Y-91810103D01*
X130547736Y-91676106D01*
X130434027Y-91598413D01*
X131188657Y-91598413D01*
X131080106Y-91668264D01*
X130990213Y-91799828D01*
X130958587Y-91956000D01*
X130958587Y-92956000D01*
X130986039Y-93101897D01*
X131072264Y-93235894D01*
X131203828Y-93325787D01*
X131277400Y-93340686D01*
X131277400Y-95684587D01*
X130660000Y-95684587D01*
X130514103Y-95712039D01*
X130449826Y-95753400D01*
X129482000Y-95753400D01*
X129297317Y-95790136D01*
X129140750Y-95894750D01*
X128869913Y-96165587D01*
X128151000Y-96165587D01*
X128005103Y-96193039D01*
X127887664Y-96268609D01*
X127783172Y-96197213D01*
X127627000Y-96165587D01*
X126627000Y-96165587D01*
X126481103Y-96193039D01*
X126347106Y-96279264D01*
X126257213Y-96410828D01*
X126225587Y-96567000D01*
X126225587Y-97367000D01*
X126253039Y-97512897D01*
X126339264Y-97646894D01*
X126470828Y-97736787D01*
X126627000Y-97768413D01*
X127627000Y-97768413D01*
X127772897Y-97740961D01*
X127890336Y-97665391D01*
X127994828Y-97736787D01*
X128151000Y-97768413D01*
X128489287Y-97768413D01*
X128309750Y-97947950D01*
X128231148Y-98065587D01*
X128151000Y-98065587D01*
X128005103Y-98093039D01*
X127887664Y-98168609D01*
X127783172Y-98097213D01*
X127627000Y-98065587D01*
X126627000Y-98065587D01*
X126481103Y-98093039D01*
X126347106Y-98179264D01*
X126257213Y-98310828D01*
X126225587Y-98467000D01*
X126225587Y-99267000D01*
X126253039Y-99412897D01*
X126339264Y-99546894D01*
X126470828Y-99636787D01*
X126627000Y-99668413D01*
X127627000Y-99668413D01*
X127772897Y-99640961D01*
X127890336Y-99565391D01*
X127994828Y-99636787D01*
X128151000Y-99668413D01*
X128869914Y-99668413D01*
X129057400Y-99855899D01*
X129057400Y-103531587D01*
X129040000Y-103531587D01*
X128894103Y-103559039D01*
X128760106Y-103645264D01*
X128670213Y-103776828D01*
X128638587Y-103933000D01*
X128638587Y-104733000D01*
X128666039Y-104878897D01*
X128752264Y-105012894D01*
X128883828Y-105102787D01*
X129040000Y-105134413D01*
X130040000Y-105134413D01*
X130185897Y-105106961D01*
X130319894Y-105020736D01*
X130409787Y-104889172D01*
X130424686Y-104815600D01*
X131448129Y-104815600D01*
X131460039Y-104878897D01*
X131546264Y-105012894D01*
X131677828Y-105102787D01*
X131834000Y-105134413D01*
X132834000Y-105134413D01*
X132979897Y-105106961D01*
X133113894Y-105020736D01*
X133203787Y-104889172D01*
X133218686Y-104815600D01*
X134369129Y-104815600D01*
X134381039Y-104878897D01*
X134467264Y-105012894D01*
X134598828Y-105102787D01*
X134755000Y-105134413D01*
X135755000Y-105134413D01*
X135900897Y-105106961D01*
X135952932Y-105073477D01*
X135995828Y-105102787D01*
X136152000Y-105134413D01*
X137152000Y-105134413D01*
X137297897Y-105106961D01*
X137349932Y-105073477D01*
X137392828Y-105102787D01*
X137549000Y-105134413D01*
X138549000Y-105134413D01*
X138694897Y-105106961D01*
X138828894Y-105020736D01*
X138918787Y-104889172D01*
X138933686Y-104815600D01*
X140084129Y-104815600D01*
X140096039Y-104878897D01*
X140182264Y-105012894D01*
X140313828Y-105102787D01*
X140470000Y-105134413D01*
X141470000Y-105134413D01*
X141615897Y-105106961D01*
X141749894Y-105020736D01*
X141839787Y-104889172D01*
X141854686Y-104815600D01*
X143005129Y-104815600D01*
X143017039Y-104878897D01*
X143103264Y-105012894D01*
X143234828Y-105102787D01*
X143391000Y-105134413D01*
X144391000Y-105134413D01*
X144536897Y-105106961D01*
X144670894Y-105020736D01*
X144760787Y-104889172D01*
X144775686Y-104815600D01*
X145799129Y-104815600D01*
X145811039Y-104878897D01*
X145897264Y-105012894D01*
X146028828Y-105102787D01*
X146185000Y-105134413D01*
X147185000Y-105134413D01*
X147330897Y-105106961D01*
X147464894Y-105020736D01*
X147554787Y-104889172D01*
X147586413Y-104733000D01*
X147586413Y-103933000D01*
X147558961Y-103787103D01*
X147472736Y-103653106D01*
X147341172Y-103563213D01*
X147185000Y-103531587D01*
X146185000Y-103531587D01*
X146039103Y-103559039D01*
X145905106Y-103645264D01*
X145815213Y-103776828D01*
X145800314Y-103850400D01*
X144776871Y-103850400D01*
X144764961Y-103787103D01*
X144678736Y-103653106D01*
X144547172Y-103563213D01*
X144391000Y-103531587D01*
X143391000Y-103531587D01*
X143245103Y-103559039D01*
X143111106Y-103645264D01*
X143021213Y-103776828D01*
X143006314Y-103850400D01*
X141855871Y-103850400D01*
X141843961Y-103787103D01*
X141757736Y-103653106D01*
X141690646Y-103607266D01*
X141710894Y-103594236D01*
X141800787Y-103462672D01*
X141832413Y-103306500D01*
X141832413Y-102306500D01*
X141804961Y-102160603D01*
X141771477Y-102108568D01*
X141800787Y-102065672D01*
X141832413Y-101909500D01*
X141832413Y-100909500D01*
X141804961Y-100763603D01*
X141718736Y-100629606D01*
X141587172Y-100539713D01*
X141431000Y-100508087D01*
X140631000Y-100508087D01*
X140485103Y-100535539D01*
X140351106Y-100621764D01*
X140349831Y-100623631D01*
X139395210Y-99669010D01*
X139395210Y-97460810D01*
X139358474Y-97276127D01*
X139253860Y-97119560D01*
X138679050Y-96544750D01*
X138547117Y-96456596D01*
X138561413Y-96386000D01*
X138561413Y-96086000D01*
X138533961Y-95940103D01*
X138447736Y-95806106D01*
X138316172Y-95716213D01*
X138160000Y-95684587D01*
X137741700Y-95684587D01*
X137741700Y-94985702D01*
X137766897Y-94980961D01*
X137900894Y-94894736D01*
X137990787Y-94763172D01*
X138018221Y-94627700D01*
X138150818Y-94627700D01*
X139623800Y-96100681D01*
X139623800Y-99123495D01*
X139623799Y-99123500D01*
X139663436Y-99322763D01*
X139776309Y-99491691D01*
X140347807Y-100063188D01*
X140347809Y-100063191D01*
X140464056Y-100140864D01*
X140516737Y-100176064D01*
X140716000Y-100215701D01*
X140716005Y-100215700D01*
X144017995Y-100215700D01*
X144018000Y-100215701D01*
X144217263Y-100176064D01*
X144386191Y-100063191D01*
X144830688Y-99618693D01*
X144830691Y-99618691D01*
X144943564Y-99449763D01*
X144957914Y-99377621D01*
X144983201Y-99250500D01*
X144983200Y-99250495D01*
X144983200Y-98292325D01*
X145461100Y-98292325D01*
X145461100Y-98496731D01*
X145551973Y-98716117D01*
X145719883Y-98884028D01*
X145939269Y-98974900D01*
X146243675Y-98974900D01*
X146392900Y-98825675D01*
X146392900Y-98143100D01*
X145610325Y-98143100D01*
X145461100Y-98292325D01*
X144983200Y-98292325D01*
X144983200Y-97635182D01*
X145159112Y-97459269D01*
X145461100Y-97459269D01*
X145461100Y-97663675D01*
X145610325Y-97812900D01*
X146392900Y-97812900D01*
X146392900Y-97130325D01*
X146723100Y-97130325D01*
X146723100Y-97812900D01*
X146743100Y-97812900D01*
X146743100Y-98143100D01*
X146723100Y-98143100D01*
X146723100Y-98825675D01*
X146872325Y-98974900D01*
X147093100Y-98974900D01*
X147093100Y-99349731D01*
X147183973Y-99569117D01*
X147351883Y-99737028D01*
X147571269Y-99827900D01*
X148275675Y-99827900D01*
X148424900Y-99678675D01*
X148424900Y-98596100D01*
X148404900Y-98596100D01*
X148404900Y-98265900D01*
X148424900Y-98265900D01*
X148424900Y-97183325D01*
X148275675Y-97034100D01*
X147571269Y-97034100D01*
X147420638Y-97096493D01*
X147396117Y-97071972D01*
X147176731Y-96981100D01*
X146872325Y-96981100D01*
X146723100Y-97130325D01*
X146392900Y-97130325D01*
X146243675Y-96981100D01*
X145939269Y-96981100D01*
X145719883Y-97071972D01*
X145551973Y-97239883D01*
X145461100Y-97459269D01*
X145159112Y-97459269D01*
X145823864Y-96794517D01*
X145901828Y-96847787D01*
X146058000Y-96879413D01*
X147058000Y-96879413D01*
X147203897Y-96851961D01*
X147337894Y-96765736D01*
X147389218Y-96690620D01*
X147402264Y-96710894D01*
X147533828Y-96800787D01*
X147690000Y-96832413D01*
X149155032Y-96832413D01*
X149356719Y-97034100D01*
X148904325Y-97034100D01*
X148755100Y-97183325D01*
X148755100Y-98265900D01*
X148775100Y-98265900D01*
X148775100Y-98596100D01*
X148755100Y-98596100D01*
X148755100Y-99678675D01*
X148904325Y-99827900D01*
X149117719Y-99827900D01*
X148602809Y-100342809D01*
X148489936Y-100511737D01*
X148450299Y-100711000D01*
X148450300Y-100711005D01*
X148450300Y-109393995D01*
X148450299Y-109394000D01*
X148489936Y-109593263D01*
X148602809Y-109762191D01*
X148837277Y-109996659D01*
X148700731Y-109940100D01*
X148396325Y-109940100D01*
X148247100Y-110089325D01*
X148247100Y-110771900D01*
X148267100Y-110771900D01*
X148267100Y-111102100D01*
X148247100Y-111102100D01*
X148247100Y-111122100D01*
X147916900Y-111122100D01*
X147916900Y-111102100D01*
X147896900Y-111102100D01*
X147896900Y-110771900D01*
X147916900Y-110771900D01*
X147916900Y-110089325D01*
X147767675Y-109940100D01*
X147463269Y-109940100D01*
X147243883Y-110030972D01*
X147167600Y-110107255D01*
X147167600Y-107034413D01*
X147185000Y-107034413D01*
X147330897Y-107006961D01*
X147464894Y-106920736D01*
X147554787Y-106789172D01*
X147586413Y-106633000D01*
X147586413Y-105833000D01*
X147558961Y-105687103D01*
X147472736Y-105553106D01*
X147341172Y-105463213D01*
X147185000Y-105431587D01*
X146185000Y-105431587D01*
X146039103Y-105459039D01*
X145905106Y-105545264D01*
X145815213Y-105676828D01*
X145783587Y-105833000D01*
X145783587Y-106633000D01*
X145811039Y-106778897D01*
X145897264Y-106912894D01*
X146028828Y-107002787D01*
X146185000Y-107034413D01*
X146202400Y-107034413D01*
X146202400Y-110107255D01*
X146126117Y-110030972D01*
X145906731Y-109940100D01*
X145602325Y-109940100D01*
X145453100Y-110089325D01*
X145453100Y-110771900D01*
X145473100Y-110771900D01*
X145473100Y-111102100D01*
X145453100Y-111102100D01*
X145453100Y-111784675D01*
X145602325Y-111933900D01*
X145906731Y-111933900D01*
X146126117Y-111843028D01*
X146230731Y-111738413D01*
X147139269Y-111738413D01*
X147243883Y-111843028D01*
X147463269Y-111933900D01*
X147634236Y-111933900D01*
X147600936Y-111983737D01*
X147590622Y-112035587D01*
X147582000Y-112035587D01*
X147436103Y-112063039D01*
X147384068Y-112096523D01*
X147341172Y-112067213D01*
X147185000Y-112035587D01*
X146185000Y-112035587D01*
X146039103Y-112063039D01*
X145987068Y-112096523D01*
X145944172Y-112067213D01*
X145788000Y-112035587D01*
X144788000Y-112035587D01*
X144642103Y-112063039D01*
X144590068Y-112096523D01*
X144547172Y-112067213D01*
X144391000Y-112035587D01*
X143391000Y-112035587D01*
X143245103Y-112063039D01*
X143193068Y-112096523D01*
X143150172Y-112067213D01*
X142994000Y-112035587D01*
X141994000Y-112035587D01*
X141848103Y-112063039D01*
X141714106Y-112149264D01*
X141641829Y-112255045D01*
X141605000Y-112247587D01*
X140335000Y-112247587D01*
X140296608Y-112254811D01*
X140233736Y-112157106D01*
X140102172Y-112067213D01*
X139946000Y-112035587D01*
X138946000Y-112035587D01*
X138800103Y-112063039D01*
X138748068Y-112096523D01*
X138705172Y-112067213D01*
X138549000Y-112035587D01*
X137549000Y-112035587D01*
X137403103Y-112063039D01*
X137351068Y-112096523D01*
X137308172Y-112067213D01*
X137152000Y-112035587D01*
X136152000Y-112035587D01*
X136006103Y-112063039D01*
X135954068Y-112096523D01*
X135911172Y-112067213D01*
X135755000Y-112035587D01*
X134755000Y-112035587D01*
X134609103Y-112063039D01*
X134557068Y-112096523D01*
X134514172Y-112067213D01*
X134358000Y-112035587D01*
X133358000Y-112035587D01*
X133212103Y-112063039D01*
X133160068Y-112096523D01*
X133117172Y-112067213D01*
X132961000Y-112035587D01*
X131961000Y-112035587D01*
X131815103Y-112063039D01*
X131763068Y-112096523D01*
X131720172Y-112067213D01*
X131564000Y-112035587D01*
X130564000Y-112035587D01*
X130418103Y-112063039D01*
X130366068Y-112096523D01*
X130323172Y-112067213D01*
X130167000Y-112035587D01*
X129167000Y-112035587D01*
X129021103Y-112063039D01*
X128887106Y-112149264D01*
X128814829Y-112255045D01*
X128778000Y-112247587D01*
X127508000Y-112247587D01*
X127469608Y-112254811D01*
X127406736Y-112157106D01*
X127275172Y-112067213D01*
X127119000Y-112035587D01*
X126119000Y-112035587D01*
X125973103Y-112063039D01*
X125839106Y-112149264D01*
X125749213Y-112280828D01*
X125717587Y-112437000D01*
X125717587Y-113237000D01*
X125745039Y-113382897D01*
X125831264Y-113516894D01*
X125962828Y-113606787D01*
X126119000Y-113638413D01*
X127106587Y-113638413D01*
X127106587Y-113665000D01*
X127134039Y-113810897D01*
X127220264Y-113944894D01*
X127302332Y-114000968D01*
X126912750Y-114390550D01*
X126808136Y-114547117D01*
X126771400Y-114731800D01*
X126771400Y-114914587D01*
X126619000Y-114914587D01*
X126473103Y-114942039D01*
X126339106Y-115028264D01*
X126249213Y-115159828D01*
X126217587Y-115316000D01*
X126217587Y-116586000D01*
X126245039Y-116731897D01*
X126331264Y-116865894D01*
X126349128Y-116878100D01*
X125691900Y-116878100D01*
X125691900Y-111754044D01*
X125780883Y-111843028D01*
X126000269Y-111933900D01*
X126304675Y-111933900D01*
X126453900Y-111784675D01*
X126453900Y-111102100D01*
X126433900Y-111102100D01*
X126433900Y-110771900D01*
X126453900Y-110771900D01*
X126453900Y-110089325D01*
X126784100Y-110089325D01*
X126784100Y-110771900D01*
X126804100Y-110771900D01*
X126804100Y-111102100D01*
X126784100Y-111102100D01*
X126784100Y-111784675D01*
X126933325Y-111933900D01*
X127237731Y-111933900D01*
X127369426Y-111879351D01*
X127508000Y-111907413D01*
X128778000Y-111907413D01*
X128919875Y-111880718D01*
X129048269Y-111933900D01*
X129352675Y-111933900D01*
X129501900Y-111784675D01*
X129501900Y-111102100D01*
X129481900Y-111102100D01*
X129481900Y-110771900D01*
X129501900Y-110771900D01*
X129501900Y-110089325D01*
X129832100Y-110089325D01*
X129832100Y-110771900D01*
X129852100Y-110771900D01*
X129852100Y-111102100D01*
X129832100Y-111102100D01*
X129832100Y-111784675D01*
X129981325Y-111933900D01*
X130285731Y-111933900D01*
X130505117Y-111843028D01*
X130609731Y-111738413D01*
X131518269Y-111738413D01*
X131622883Y-111843028D01*
X131842269Y-111933900D01*
X132146675Y-111933900D01*
X132295900Y-111784675D01*
X132295900Y-111102100D01*
X132275900Y-111102100D01*
X132275900Y-110771900D01*
X132295900Y-110771900D01*
X132295900Y-110089325D01*
X132626100Y-110089325D01*
X132626100Y-110771900D01*
X132646100Y-110771900D01*
X132646100Y-111102100D01*
X132626100Y-111102100D01*
X132626100Y-111784675D01*
X132775325Y-111933900D01*
X133079731Y-111933900D01*
X133299117Y-111843028D01*
X133403731Y-111738413D01*
X134312269Y-111738413D01*
X134416883Y-111843028D01*
X134636269Y-111933900D01*
X134940675Y-111933900D01*
X135089900Y-111784675D01*
X135089900Y-111102100D01*
X135069900Y-111102100D01*
X135069900Y-110771900D01*
X135089900Y-110771900D01*
X135089900Y-110089325D01*
X134940675Y-109940100D01*
X134636269Y-109940100D01*
X134416883Y-110030972D01*
X134340600Y-110107255D01*
X134340600Y-108407700D01*
X135596247Y-107152052D01*
X135596250Y-107152050D01*
X135674852Y-107034413D01*
X135755000Y-107034413D01*
X135900897Y-107006961D01*
X135952932Y-106973477D01*
X135995828Y-107002787D01*
X136152000Y-107034413D01*
X136169400Y-107034413D01*
X136169400Y-110107255D01*
X136093117Y-110030972D01*
X135873731Y-109940100D01*
X135569325Y-109940100D01*
X135420100Y-110089325D01*
X135420100Y-110771900D01*
X135440100Y-110771900D01*
X135440100Y-111102100D01*
X135420100Y-111102100D01*
X135420100Y-111784675D01*
X135569325Y-111933900D01*
X135873731Y-111933900D01*
X136093117Y-111843028D01*
X136197731Y-111738413D01*
X137152000Y-111738413D01*
X137297897Y-111710961D01*
X137349932Y-111677477D01*
X137392828Y-111706787D01*
X137549000Y-111738413D01*
X138503269Y-111738413D01*
X138607883Y-111843028D01*
X138827269Y-111933900D01*
X139131675Y-111933900D01*
X139280900Y-111784675D01*
X139280900Y-111102100D01*
X139260900Y-111102100D01*
X139260900Y-110771900D01*
X139280900Y-110771900D01*
X139280900Y-110089325D01*
X139611100Y-110089325D01*
X139611100Y-110771900D01*
X139631100Y-110771900D01*
X139631100Y-111102100D01*
X139611100Y-111102100D01*
X139611100Y-111784675D01*
X139760325Y-111933900D01*
X140064731Y-111933900D01*
X140196426Y-111879351D01*
X140335000Y-111907413D01*
X141605000Y-111907413D01*
X141746875Y-111880718D01*
X141875269Y-111933900D01*
X142179675Y-111933900D01*
X142328900Y-111784675D01*
X142328900Y-111102100D01*
X142308900Y-111102100D01*
X142308900Y-110771900D01*
X142328900Y-110771900D01*
X142328900Y-110089325D01*
X142659100Y-110089325D01*
X142659100Y-110771900D01*
X142679100Y-110771900D01*
X142679100Y-111102100D01*
X142659100Y-111102100D01*
X142659100Y-111784675D01*
X142808325Y-111933900D01*
X143112731Y-111933900D01*
X143332117Y-111843028D01*
X143436731Y-111738413D01*
X144345269Y-111738413D01*
X144449883Y-111843028D01*
X144669269Y-111933900D01*
X144973675Y-111933900D01*
X145122900Y-111784675D01*
X145122900Y-111102100D01*
X145102900Y-111102100D01*
X145102900Y-110771900D01*
X145122900Y-110771900D01*
X145122900Y-110089325D01*
X144973675Y-109940100D01*
X144669269Y-109940100D01*
X144449883Y-110030972D01*
X144373600Y-110107255D01*
X144373600Y-107034413D01*
X144391000Y-107034413D01*
X144536897Y-107006961D01*
X144670894Y-106920736D01*
X144760787Y-106789172D01*
X144792413Y-106633000D01*
X144792413Y-105833000D01*
X144764961Y-105687103D01*
X144678736Y-105553106D01*
X144547172Y-105463213D01*
X144391000Y-105431587D01*
X143391000Y-105431587D01*
X143245103Y-105459039D01*
X143111106Y-105545264D01*
X143021213Y-105676828D01*
X142989587Y-105833000D01*
X142989587Y-106633000D01*
X143017039Y-106778897D01*
X143103264Y-106912894D01*
X143234828Y-107002787D01*
X143391000Y-107034413D01*
X143408400Y-107034413D01*
X143408400Y-110107255D01*
X143332117Y-110030972D01*
X143112731Y-109940100D01*
X142808325Y-109940100D01*
X142659100Y-110089325D01*
X142328900Y-110089325D01*
X142179675Y-109940100D01*
X141875269Y-109940100D01*
X141655883Y-110030972D01*
X141598268Y-110088587D01*
X141452600Y-110088587D01*
X141452600Y-107034413D01*
X141470000Y-107034413D01*
X141615897Y-107006961D01*
X141749894Y-106920736D01*
X141839787Y-106789172D01*
X141871413Y-106633000D01*
X141871413Y-105833000D01*
X141843961Y-105687103D01*
X141757736Y-105553106D01*
X141626172Y-105463213D01*
X141470000Y-105431587D01*
X140470000Y-105431587D01*
X140324103Y-105459039D01*
X140190106Y-105545264D01*
X140100213Y-105676828D01*
X140068587Y-105833000D01*
X140068587Y-106633000D01*
X140096039Y-106778897D01*
X140182264Y-106912894D01*
X140313828Y-107002787D01*
X140470000Y-107034413D01*
X140487400Y-107034413D01*
X140487400Y-110088587D01*
X140341732Y-110088587D01*
X140284117Y-110030972D01*
X140064731Y-109940100D01*
X139760325Y-109940100D01*
X139611100Y-110089325D01*
X139280900Y-110089325D01*
X139131675Y-109940100D01*
X138827269Y-109940100D01*
X138607883Y-110030972D01*
X138531600Y-110107255D01*
X138531600Y-107034413D01*
X138549000Y-107034413D01*
X138694897Y-107006961D01*
X138828894Y-106920736D01*
X138918787Y-106789172D01*
X138950413Y-106633000D01*
X138950413Y-105833000D01*
X138922961Y-105687103D01*
X138836736Y-105553106D01*
X138705172Y-105463213D01*
X138549000Y-105431587D01*
X137549000Y-105431587D01*
X137403103Y-105459039D01*
X137351068Y-105492523D01*
X137308172Y-105463213D01*
X137152000Y-105431587D01*
X136152000Y-105431587D01*
X136006103Y-105459039D01*
X135954068Y-105492523D01*
X135911172Y-105463213D01*
X135755000Y-105431587D01*
X134755000Y-105431587D01*
X134609103Y-105459039D01*
X134475106Y-105545264D01*
X134385213Y-105676828D01*
X134353587Y-105833000D01*
X134353587Y-106633000D01*
X134381039Y-106778897D01*
X134467264Y-106912894D01*
X134469131Y-106914170D01*
X133516750Y-107866550D01*
X133412136Y-108023117D01*
X133375400Y-108207800D01*
X133375400Y-110107255D01*
X133299117Y-110030972D01*
X133079731Y-109940100D01*
X132775325Y-109940100D01*
X132626100Y-110089325D01*
X132295900Y-110089325D01*
X132146675Y-109940100D01*
X131842269Y-109940100D01*
X131622883Y-110030972D01*
X131546600Y-110107255D01*
X131546600Y-108280700D01*
X132675250Y-107152050D01*
X132753852Y-107034413D01*
X132834000Y-107034413D01*
X132979897Y-107006961D01*
X133113894Y-106920736D01*
X133203787Y-106789172D01*
X133235413Y-106633000D01*
X133235413Y-105833000D01*
X133207961Y-105687103D01*
X133121736Y-105553106D01*
X132990172Y-105463213D01*
X132834000Y-105431587D01*
X131834000Y-105431587D01*
X131688103Y-105459039D01*
X131554106Y-105545264D01*
X131464213Y-105676828D01*
X131432587Y-105833000D01*
X131432587Y-106633000D01*
X131460039Y-106778897D01*
X131546264Y-106912894D01*
X131548131Y-106914169D01*
X130722750Y-107739550D01*
X130618136Y-107896117D01*
X130581400Y-108080800D01*
X130581400Y-110107255D01*
X130505117Y-110030972D01*
X130285731Y-109940100D01*
X129981325Y-109940100D01*
X129832100Y-110089325D01*
X129501900Y-110089325D01*
X129352675Y-109940100D01*
X129048269Y-109940100D01*
X128828883Y-110030972D01*
X128771268Y-110088587D01*
X128625600Y-110088587D01*
X128625600Y-108407700D01*
X129881247Y-107152052D01*
X129881250Y-107152050D01*
X129959852Y-107034413D01*
X130040000Y-107034413D01*
X130185897Y-107006961D01*
X130319894Y-106920736D01*
X130409787Y-106789172D01*
X130441413Y-106633000D01*
X130441413Y-105833000D01*
X130413961Y-105687103D01*
X130327736Y-105553106D01*
X130196172Y-105463213D01*
X130040000Y-105431587D01*
X129040000Y-105431587D01*
X128894103Y-105459039D01*
X128760106Y-105545264D01*
X128670213Y-105676828D01*
X128638587Y-105833000D01*
X128638587Y-106633000D01*
X128666039Y-106778897D01*
X128752264Y-106912894D01*
X128754131Y-106914170D01*
X127801750Y-107866550D01*
X127697136Y-108023117D01*
X127660400Y-108207800D01*
X127660400Y-110088587D01*
X127514732Y-110088587D01*
X127457117Y-110030972D01*
X127237731Y-109940100D01*
X126933325Y-109940100D01*
X126784100Y-110089325D01*
X126453900Y-110089325D01*
X126304675Y-109940100D01*
X126000269Y-109940100D01*
X125780883Y-110030972D01*
X125691900Y-110119956D01*
X125691900Y-102041325D01*
X126022100Y-102041325D01*
X126022100Y-102480731D01*
X126112972Y-102700117D01*
X126280883Y-102868027D01*
X126500269Y-102958900D01*
X126939675Y-102958900D01*
X127088900Y-102809675D01*
X127088900Y-101892100D01*
X127419100Y-101892100D01*
X127419100Y-102809675D01*
X127568325Y-102958900D01*
X128007731Y-102958900D01*
X128227117Y-102868027D01*
X128395028Y-102700117D01*
X128485900Y-102480731D01*
X128485900Y-102041325D01*
X128336675Y-101892100D01*
X127419100Y-101892100D01*
X127088900Y-101892100D01*
X126171325Y-101892100D01*
X126022100Y-102041325D01*
X125691900Y-102041325D01*
X125691900Y-100973269D01*
X126022100Y-100973269D01*
X126022100Y-101412675D01*
X126171325Y-101561900D01*
X127088900Y-101561900D01*
X127088900Y-100644325D01*
X127419100Y-100644325D01*
X127419100Y-101561900D01*
X128336675Y-101561900D01*
X128485900Y-101412675D01*
X128485900Y-100973269D01*
X128395028Y-100753883D01*
X128227117Y-100585973D01*
X128007731Y-100495100D01*
X127568325Y-100495100D01*
X127419100Y-100644325D01*
X127088900Y-100644325D01*
X126939675Y-100495100D01*
X126500269Y-100495100D01*
X126280883Y-100585973D01*
X126112972Y-100753883D01*
X126022100Y-100973269D01*
X125691900Y-100973269D01*
X125691900Y-84302874D01*
X129273099Y-84302874D01*
X129448674Y-84727796D01*
X129773494Y-85053184D01*
X130198108Y-85229499D01*
X130657874Y-85229901D01*
X131082796Y-85054326D01*
X131408184Y-84729506D01*
X131584499Y-84304892D01*
X131584901Y-83845126D01*
X131409326Y-83420204D01*
X131084506Y-83094816D01*
X130659892Y-82918501D01*
X130200126Y-82918099D01*
X129775204Y-83093674D01*
X129449816Y-83418494D01*
X129273501Y-83843108D01*
X129273099Y-84302874D01*
X125691900Y-84302874D01*
X125691900Y-82815514D01*
X125951972Y-82815514D01*
X126120222Y-83121397D01*
X126911198Y-83415107D01*
X127754362Y-83383766D01*
X128387778Y-83121397D01*
X128556028Y-82815514D01*
X127254000Y-81513487D01*
X125951972Y-82815514D01*
X125691900Y-82815514D01*
X125691900Y-82567405D01*
X125718486Y-82582028D01*
X127020513Y-81280000D01*
X127487487Y-81280000D01*
X128789514Y-82582028D01*
X129095397Y-82413778D01*
X129229172Y-82053514D01*
X133190972Y-82053514D01*
X133359222Y-82359397D01*
X134150198Y-82653107D01*
X134993362Y-82621766D01*
X135626778Y-82359397D01*
X135795028Y-82053514D01*
X134493000Y-80751487D01*
X133190972Y-82053514D01*
X129229172Y-82053514D01*
X129389107Y-81622802D01*
X129357766Y-80779638D01*
X129107400Y-80175198D01*
X132357893Y-80175198D01*
X132389234Y-81018362D01*
X132651603Y-81651778D01*
X132957486Y-81820028D01*
X134259513Y-80518000D01*
X134726487Y-80518000D01*
X136028514Y-81820028D01*
X136334397Y-81651778D01*
X136599739Y-80937198D01*
X139596893Y-80937198D01*
X139628234Y-81780362D01*
X139890603Y-82413778D01*
X140196486Y-82582028D01*
X141498513Y-81280000D01*
X141965487Y-81280000D01*
X143267514Y-82582028D01*
X143573397Y-82413778D01*
X143867107Y-81622802D01*
X143835766Y-80779638D01*
X143573397Y-80146222D01*
X143267514Y-79977972D01*
X141965487Y-81280000D01*
X141498513Y-81280000D01*
X140196486Y-79977972D01*
X139890603Y-80146222D01*
X139596893Y-80937198D01*
X136599739Y-80937198D01*
X136628107Y-80860802D01*
X136596766Y-80017638D01*
X136483623Y-79744486D01*
X140429972Y-79744486D01*
X141732000Y-81046513D01*
X143034028Y-79744486D01*
X142865778Y-79438603D01*
X142074802Y-79144893D01*
X141231638Y-79176234D01*
X140598222Y-79438603D01*
X140429972Y-79744486D01*
X136483623Y-79744486D01*
X136334397Y-79384222D01*
X136028514Y-79215972D01*
X134726487Y-80518000D01*
X134259513Y-80518000D01*
X132957486Y-79215972D01*
X132651603Y-79384222D01*
X132357893Y-80175198D01*
X129107400Y-80175198D01*
X129095397Y-80146222D01*
X128789514Y-79977972D01*
X127487487Y-81280000D01*
X127020513Y-81280000D01*
X125718486Y-79977972D01*
X125691900Y-79992595D01*
X125691900Y-79744486D01*
X125951972Y-79744486D01*
X127254000Y-81046513D01*
X128556028Y-79744486D01*
X128387778Y-79438603D01*
X127596802Y-79144893D01*
X126753638Y-79176234D01*
X126120222Y-79438603D01*
X125951972Y-79744486D01*
X125691900Y-79744486D01*
X125691900Y-78828900D01*
X133275451Y-78828900D01*
X133190972Y-78982486D01*
G36*
X151930100Y-106067900D02*
X151950100Y-106067900D01*
X151950100Y-106398100D01*
X151930100Y-106398100D01*
X151930100Y-107080675D01*
X152079325Y-107229900D01*
X152171400Y-107229900D01*
X152171400Y-110135587D01*
X152154000Y-110135587D01*
X152008103Y-110163039D01*
X151956068Y-110196523D01*
X151913172Y-110167213D01*
X151757000Y-110135587D01*
X151676852Y-110135587D01*
X151598250Y-110017950D01*
X151295100Y-109714800D01*
X151295100Y-107229900D01*
X151450675Y-107229900D01*
X151599900Y-107080675D01*
X151599900Y-106398100D01*
X151579900Y-106398100D01*
X151579900Y-106067900D01*
X151599900Y-106067900D01*
X151599900Y-106047900D01*
X151930100Y-106047900D01*
X151930100Y-106067900D01*
X151930100Y-106067900D01*
G37*
X151930100Y-106067900D02*
X151950100Y-106067900D01*
X151950100Y-106398100D01*
X151930100Y-106398100D01*
X151930100Y-107080675D01*
X152079325Y-107229900D01*
X152171400Y-107229900D01*
X152171400Y-110135587D01*
X152154000Y-110135587D01*
X152008103Y-110163039D01*
X151956068Y-110196523D01*
X151913172Y-110167213D01*
X151757000Y-110135587D01*
X151676852Y-110135587D01*
X151598250Y-110017950D01*
X151295100Y-109714800D01*
X151295100Y-107229900D01*
X151450675Y-107229900D01*
X151599900Y-107080675D01*
X151599900Y-106398100D01*
X151579900Y-106398100D01*
X151579900Y-106067900D01*
X151599900Y-106067900D01*
X151599900Y-106047900D01*
X151930100Y-106047900D01*
X151930100Y-106067900D01*
G36*
X153708100Y-106067900D02*
X153728100Y-106067900D01*
X153728100Y-106398100D01*
X153708100Y-106398100D01*
X153708100Y-107080675D01*
X153857325Y-107229900D01*
X154012900Y-107229900D01*
X154012900Y-109714800D01*
X153709750Y-110017950D01*
X153631148Y-110135587D01*
X153551000Y-110135587D01*
X153405103Y-110163039D01*
X153353068Y-110196523D01*
X153310172Y-110167213D01*
X153154000Y-110135587D01*
X153136600Y-110135587D01*
X153136600Y-107229900D01*
X153228675Y-107229900D01*
X153377900Y-107080675D01*
X153377900Y-106398100D01*
X153357900Y-106398100D01*
X153357900Y-106067900D01*
X153377900Y-106067900D01*
X153377900Y-106047900D01*
X153708100Y-106047900D01*
X153708100Y-106067900D01*
X153708100Y-106067900D01*
G37*
X153708100Y-106067900D02*
X153728100Y-106067900D01*
X153728100Y-106398100D01*
X153708100Y-106398100D01*
X153708100Y-107080675D01*
X153857325Y-107229900D01*
X154012900Y-107229900D01*
X154012900Y-109714800D01*
X153709750Y-110017950D01*
X153631148Y-110135587D01*
X153551000Y-110135587D01*
X153405103Y-110163039D01*
X153353068Y-110196523D01*
X153310172Y-110167213D01*
X153154000Y-110135587D01*
X153136600Y-110135587D01*
X153136600Y-107229900D01*
X153228675Y-107229900D01*
X153377900Y-107080675D01*
X153377900Y-106398100D01*
X153357900Y-106398100D01*
X153357900Y-106067900D01*
X153377900Y-106067900D01*
X153377900Y-106047900D01*
X153708100Y-106047900D01*
X153708100Y-106067900D01*
G36*
X150025100Y-106067900D02*
X150045100Y-106067900D01*
X150045100Y-106398100D01*
X150025100Y-106398100D01*
X150025100Y-107080675D01*
X150174325Y-107229900D01*
X150329900Y-107229900D01*
X150329900Y-109914700D01*
X150366636Y-110099383D01*
X150395650Y-110142806D01*
X150360000Y-110135587D01*
X150351378Y-110135587D01*
X150341064Y-110083737D01*
X150297107Y-110017950D01*
X150228191Y-109914809D01*
X150228188Y-109914807D01*
X149491700Y-109178318D01*
X149491700Y-107229900D01*
X149545675Y-107229900D01*
X149694900Y-107080675D01*
X149694900Y-106398100D01*
X149674900Y-106398100D01*
X149674900Y-106067900D01*
X149694900Y-106067900D01*
X149694900Y-106047900D01*
X150025100Y-106047900D01*
X150025100Y-106067900D01*
X150025100Y-106067900D01*
G37*
X150025100Y-106067900D02*
X150045100Y-106067900D01*
X150045100Y-106398100D01*
X150025100Y-106398100D01*
X150025100Y-107080675D01*
X150174325Y-107229900D01*
X150329900Y-107229900D01*
X150329900Y-109914700D01*
X150366636Y-110099383D01*
X150395650Y-110142806D01*
X150360000Y-110135587D01*
X150351378Y-110135587D01*
X150341064Y-110083737D01*
X150297107Y-110017950D01*
X150228191Y-109914809D01*
X150228188Y-109914807D01*
X149491700Y-109178318D01*
X149491700Y-107229900D01*
X149545675Y-107229900D01*
X149694900Y-107080675D01*
X149694900Y-106398100D01*
X149674900Y-106398100D01*
X149674900Y-106067900D01*
X149694900Y-106067900D01*
X149694900Y-106047900D01*
X150025100Y-106047900D01*
X150025100Y-106067900D01*
G36*
X155549600Y-106067900D02*
X155569600Y-106067900D01*
X155569600Y-106398100D01*
X155549600Y-106398100D01*
X155549600Y-107080675D01*
X155698825Y-107229900D01*
X155727400Y-107229900D01*
X155727400Y-109397300D01*
X155106750Y-110017950D01*
X155028148Y-110135587D01*
X154948000Y-110135587D01*
X154912740Y-110142221D01*
X154941364Y-110099383D01*
X154978100Y-109914700D01*
X154978100Y-107229900D01*
X155070175Y-107229900D01*
X155219400Y-107080675D01*
X155219400Y-106398100D01*
X155199400Y-106398100D01*
X155199400Y-106067900D01*
X155219400Y-106067900D01*
X155219400Y-106047900D01*
X155549600Y-106047900D01*
X155549600Y-106067900D01*
X155549600Y-106067900D01*
G37*
X155549600Y-106067900D02*
X155569600Y-106067900D01*
X155569600Y-106398100D01*
X155549600Y-106398100D01*
X155549600Y-107080675D01*
X155698825Y-107229900D01*
X155727400Y-107229900D01*
X155727400Y-109397300D01*
X155106750Y-110017950D01*
X155028148Y-110135587D01*
X154948000Y-110135587D01*
X154912740Y-110142221D01*
X154941364Y-110099383D01*
X154978100Y-109914700D01*
X154978100Y-107229900D01*
X155070175Y-107229900D01*
X155219400Y-107080675D01*
X155219400Y-106398100D01*
X155199400Y-106398100D01*
X155199400Y-106067900D01*
X155219400Y-106067900D01*
X155219400Y-106047900D01*
X155549600Y-106047900D01*
X155549600Y-106067900D01*
G36*
X138074400Y-100076000D02*
X138111136Y-100260683D01*
X138215750Y-100417250D01*
X138438587Y-100640086D01*
X138361213Y-100753328D01*
X138329587Y-100909500D01*
X138329587Y-101909500D01*
X138357039Y-102055397D01*
X138390523Y-102107432D01*
X138361213Y-102150328D01*
X138329587Y-102306500D01*
X138329587Y-102386648D01*
X138211950Y-102465250D01*
X138211948Y-102465253D01*
X137707750Y-102969450D01*
X137603136Y-103126017D01*
X137566400Y-103310700D01*
X137566400Y-103531587D01*
X137549000Y-103531587D01*
X137403103Y-103559039D01*
X137351068Y-103592523D01*
X137308172Y-103563213D01*
X137152000Y-103531587D01*
X136152000Y-103531587D01*
X136006103Y-103559039D01*
X135954068Y-103592523D01*
X135911172Y-103563213D01*
X135755000Y-103531587D01*
X134755000Y-103531587D01*
X134609103Y-103559039D01*
X134475106Y-103645264D01*
X134385213Y-103776828D01*
X134370314Y-103850400D01*
X134057239Y-103850400D01*
X134063450Y-103846250D01*
X134508715Y-103400985D01*
X134632828Y-103485787D01*
X134789000Y-103517413D01*
X135589000Y-103517413D01*
X135734897Y-103489961D01*
X135868894Y-103403736D01*
X135958787Y-103272172D01*
X135990413Y-103116000D01*
X135990413Y-102116000D01*
X135962961Y-101970103D01*
X135929477Y-101918068D01*
X135958787Y-101875172D01*
X135990413Y-101719000D01*
X135990413Y-100731413D01*
X136017000Y-100731413D01*
X136162897Y-100703961D01*
X136296894Y-100617736D01*
X136386787Y-100486172D01*
X136418413Y-100330000D01*
X136418413Y-99060000D01*
X136390961Y-98914103D01*
X136304736Y-98780106D01*
X136242252Y-98737413D01*
X138074400Y-98737413D01*
X138074400Y-100076000D01*
X138074400Y-100076000D01*
G37*
X138074400Y-100076000D02*
X138111136Y-100260683D01*
X138215750Y-100417250D01*
X138438587Y-100640086D01*
X138361213Y-100753328D01*
X138329587Y-100909500D01*
X138329587Y-101909500D01*
X138357039Y-102055397D01*
X138390523Y-102107432D01*
X138361213Y-102150328D01*
X138329587Y-102306500D01*
X138329587Y-102386648D01*
X138211950Y-102465250D01*
X138211948Y-102465253D01*
X137707750Y-102969450D01*
X137603136Y-103126017D01*
X137566400Y-103310700D01*
X137566400Y-103531587D01*
X137549000Y-103531587D01*
X137403103Y-103559039D01*
X137351068Y-103592523D01*
X137308172Y-103563213D01*
X137152000Y-103531587D01*
X136152000Y-103531587D01*
X136006103Y-103559039D01*
X135954068Y-103592523D01*
X135911172Y-103563213D01*
X135755000Y-103531587D01*
X134755000Y-103531587D01*
X134609103Y-103559039D01*
X134475106Y-103645264D01*
X134385213Y-103776828D01*
X134370314Y-103850400D01*
X134057239Y-103850400D01*
X134063450Y-103846250D01*
X134508715Y-103400985D01*
X134632828Y-103485787D01*
X134789000Y-103517413D01*
X135589000Y-103517413D01*
X135734897Y-103489961D01*
X135868894Y-103403736D01*
X135958787Y-103272172D01*
X135990413Y-103116000D01*
X135990413Y-102116000D01*
X135962961Y-101970103D01*
X135929477Y-101918068D01*
X135958787Y-101875172D01*
X135990413Y-101719000D01*
X135990413Y-100731413D01*
X136017000Y-100731413D01*
X136162897Y-100703961D01*
X136296894Y-100617736D01*
X136386787Y-100486172D01*
X136418413Y-100330000D01*
X136418413Y-99060000D01*
X136390961Y-98914103D01*
X136304736Y-98780106D01*
X136242252Y-98737413D01*
X138074400Y-98737413D01*
X138074400Y-100076000D01*
G36*
X133074750Y-96165250D02*
X134136750Y-97227250D01*
X134293317Y-97331864D01*
X134478000Y-97368601D01*
X134478005Y-97368600D01*
X135762111Y-97368600D01*
X135758587Y-97386000D01*
X135758587Y-97686000D01*
X135771983Y-97757197D01*
X135640950Y-97844750D01*
X135167750Y-98317950D01*
X135120199Y-98389116D01*
X135076703Y-98283849D01*
X134880384Y-98087186D01*
X134623749Y-97980622D01*
X134345868Y-97980379D01*
X134089048Y-98086496D01*
X133892385Y-98282815D01*
X133817524Y-98463100D01*
X133664325Y-98463100D01*
X133515100Y-98612325D01*
X133515100Y-99529900D01*
X133535100Y-99529900D01*
X133535100Y-99860100D01*
X133515100Y-99860100D01*
X133515100Y-100210325D01*
X133454100Y-100271325D01*
X133454100Y-101053900D01*
X133474100Y-101053900D01*
X133474100Y-101384100D01*
X133454100Y-101384100D01*
X133454100Y-101404100D01*
X133123900Y-101404100D01*
X133123900Y-101384100D01*
X132441325Y-101384100D01*
X132292100Y-101533325D01*
X132292100Y-101837731D01*
X132382972Y-102057117D01*
X132487587Y-102161731D01*
X132487587Y-103022400D01*
X131390900Y-103022400D01*
X130530600Y-102162100D01*
X130530600Y-100009325D01*
X132245100Y-100009325D01*
X132245100Y-100448731D01*
X132299984Y-100581234D01*
X132292100Y-100600269D01*
X132292100Y-100904675D01*
X132441325Y-101053900D01*
X133123900Y-101053900D01*
X133123900Y-100838675D01*
X133184900Y-100777675D01*
X133184900Y-99860100D01*
X132394325Y-99860100D01*
X132245100Y-100009325D01*
X130530600Y-100009325D01*
X130530600Y-98928481D01*
X130541269Y-98932900D01*
X131345675Y-98932900D01*
X131494900Y-98783675D01*
X131494900Y-98261000D01*
X131825100Y-98261000D01*
X131825100Y-98783675D01*
X131974325Y-98932900D01*
X132248567Y-98932900D01*
X132245100Y-98941269D01*
X132245100Y-99380675D01*
X132394325Y-99529900D01*
X133184900Y-99529900D01*
X133184900Y-98628556D01*
X133256900Y-98454731D01*
X133256900Y-98410225D01*
X133107675Y-98261000D01*
X131825100Y-98261000D01*
X131494900Y-98261000D01*
X131474900Y-98261000D01*
X131474900Y-98111000D01*
X131494900Y-98111000D01*
X131494900Y-98087413D01*
X131825100Y-98087413D01*
X131825100Y-98111000D01*
X133107675Y-98111000D01*
X133256900Y-97961775D01*
X133256900Y-97917269D01*
X133166028Y-97697883D01*
X133061413Y-97593269D01*
X133061413Y-97386000D01*
X133033961Y-97240103D01*
X133016053Y-97212273D01*
X133029787Y-97192172D01*
X133061413Y-97036000D01*
X133061413Y-96736000D01*
X133033961Y-96590103D01*
X133016053Y-96562273D01*
X133029787Y-96542172D01*
X133061413Y-96386000D01*
X133061413Y-96145290D01*
X133074750Y-96165250D01*
X133074750Y-96165250D01*
G37*
X133074750Y-96165250D02*
X134136750Y-97227250D01*
X134293317Y-97331864D01*
X134478000Y-97368601D01*
X134478005Y-97368600D01*
X135762111Y-97368600D01*
X135758587Y-97386000D01*
X135758587Y-97686000D01*
X135771983Y-97757197D01*
X135640950Y-97844750D01*
X135167750Y-98317950D01*
X135120199Y-98389116D01*
X135076703Y-98283849D01*
X134880384Y-98087186D01*
X134623749Y-97980622D01*
X134345868Y-97980379D01*
X134089048Y-98086496D01*
X133892385Y-98282815D01*
X133817524Y-98463100D01*
X133664325Y-98463100D01*
X133515100Y-98612325D01*
X133515100Y-99529900D01*
X133535100Y-99529900D01*
X133535100Y-99860100D01*
X133515100Y-99860100D01*
X133515100Y-100210325D01*
X133454100Y-100271325D01*
X133454100Y-101053900D01*
X133474100Y-101053900D01*
X133474100Y-101384100D01*
X133454100Y-101384100D01*
X133454100Y-101404100D01*
X133123900Y-101404100D01*
X133123900Y-101384100D01*
X132441325Y-101384100D01*
X132292100Y-101533325D01*
X132292100Y-101837731D01*
X132382972Y-102057117D01*
X132487587Y-102161731D01*
X132487587Y-103022400D01*
X131390900Y-103022400D01*
X130530600Y-102162100D01*
X130530600Y-100009325D01*
X132245100Y-100009325D01*
X132245100Y-100448731D01*
X132299984Y-100581234D01*
X132292100Y-100600269D01*
X132292100Y-100904675D01*
X132441325Y-101053900D01*
X133123900Y-101053900D01*
X133123900Y-100838675D01*
X133184900Y-100777675D01*
X133184900Y-99860100D01*
X132394325Y-99860100D01*
X132245100Y-100009325D01*
X130530600Y-100009325D01*
X130530600Y-98928481D01*
X130541269Y-98932900D01*
X131345675Y-98932900D01*
X131494900Y-98783675D01*
X131494900Y-98261000D01*
X131825100Y-98261000D01*
X131825100Y-98783675D01*
X131974325Y-98932900D01*
X132248567Y-98932900D01*
X132245100Y-98941269D01*
X132245100Y-99380675D01*
X132394325Y-99529900D01*
X133184900Y-99529900D01*
X133184900Y-98628556D01*
X133256900Y-98454731D01*
X133256900Y-98410225D01*
X133107675Y-98261000D01*
X131825100Y-98261000D01*
X131494900Y-98261000D01*
X131474900Y-98261000D01*
X131474900Y-98111000D01*
X131494900Y-98111000D01*
X131494900Y-98087413D01*
X131825100Y-98087413D01*
X131825100Y-98111000D01*
X133107675Y-98111000D01*
X133256900Y-97961775D01*
X133256900Y-97917269D01*
X133166028Y-97697883D01*
X133061413Y-97593269D01*
X133061413Y-97386000D01*
X133033961Y-97240103D01*
X133016053Y-97212273D01*
X133029787Y-97192172D01*
X133061413Y-97036000D01*
X133061413Y-96736000D01*
X133033961Y-96590103D01*
X133016053Y-96562273D01*
X133029787Y-96542172D01*
X133061413Y-96386000D01*
X133061413Y-96145290D01*
X133074750Y-96165250D01*
G36*
X153820000Y-98767900D02*
X153843587Y-98767900D01*
X153843587Y-99098100D01*
X153820000Y-99098100D01*
X153820000Y-99225425D01*
X153692675Y-99098100D01*
X153147325Y-99098100D01*
X153020000Y-99225425D01*
X153020000Y-99098100D01*
X152996413Y-99098100D01*
X152996413Y-98767900D01*
X153020000Y-98767900D01*
X153020000Y-98640575D01*
X153147325Y-98767900D01*
X153692675Y-98767900D01*
X153820000Y-98640575D01*
X153820000Y-98767900D01*
X153820000Y-98767900D01*
G37*
X153820000Y-98767900D02*
X153843587Y-98767900D01*
X153843587Y-99098100D01*
X153820000Y-99098100D01*
X153820000Y-99225425D01*
X153692675Y-99098100D01*
X153147325Y-99098100D01*
X153020000Y-99225425D01*
X153020000Y-99098100D01*
X152996413Y-99098100D01*
X152996413Y-98767900D01*
X153020000Y-98767900D01*
X153020000Y-98640575D01*
X153147325Y-98767900D01*
X153692675Y-98767900D01*
X153820000Y-98640575D01*
X153820000Y-98767900D01*
G36*
X150662400Y-91083400D02*
X150662400Y-91535111D01*
X150645000Y-91531587D01*
X150345000Y-91531587D01*
X150199103Y-91559039D01*
X150065106Y-91645264D01*
X149975213Y-91776828D01*
X149943587Y-91933000D01*
X149943587Y-92163506D01*
X149842172Y-92094213D01*
X149686000Y-92062587D01*
X148886000Y-92062587D01*
X148740103Y-92090039D01*
X148606106Y-92176264D01*
X148516213Y-92307828D01*
X148484587Y-92464000D01*
X148484587Y-93464000D01*
X148512039Y-93609897D01*
X148598264Y-93743894D01*
X148729828Y-93833787D01*
X148886000Y-93865413D01*
X149686000Y-93865413D01*
X149831897Y-93837961D01*
X149943587Y-93766090D01*
X149943587Y-93933000D01*
X149971039Y-94078897D01*
X150057264Y-94212894D01*
X150188828Y-94302787D01*
X150345000Y-94334413D01*
X150645000Y-94334413D01*
X150790897Y-94306961D01*
X150818727Y-94289053D01*
X150838828Y-94302787D01*
X150995000Y-94334413D01*
X151295000Y-94334413D01*
X151440897Y-94306961D01*
X151468727Y-94289053D01*
X151488828Y-94302787D01*
X151645000Y-94334413D01*
X151945000Y-94334413D01*
X152090897Y-94306961D01*
X152118727Y-94289053D01*
X152138828Y-94302787D01*
X152295000Y-94334413D01*
X152574300Y-94334413D01*
X152574300Y-94783819D01*
X152247818Y-95110300D01*
X149891413Y-95110300D01*
X149891413Y-94831000D01*
X149863961Y-94685103D01*
X149777736Y-94551106D01*
X149646172Y-94461213D01*
X149490000Y-94429587D01*
X147690000Y-94429587D01*
X147544103Y-94457039D01*
X147410106Y-94543264D01*
X147320213Y-94674828D01*
X147288587Y-94831000D01*
X147288587Y-95359058D01*
X147214172Y-95308213D01*
X147058000Y-95276587D01*
X146058000Y-95276587D01*
X145912103Y-95304039D01*
X145778106Y-95390264D01*
X145688213Y-95521828D01*
X145675868Y-95582787D01*
X145604737Y-95596936D01*
X145435809Y-95709809D01*
X145435807Y-95709812D01*
X144094309Y-97051309D01*
X143981436Y-97220237D01*
X143941799Y-97419500D01*
X143941800Y-97419505D01*
X143941800Y-99034819D01*
X143802318Y-99174300D01*
X140931681Y-99174300D01*
X140665200Y-98907818D01*
X140665200Y-95885005D01*
X140665201Y-95885000D01*
X140625564Y-95685737D01*
X140566230Y-95596937D01*
X140512691Y-95516809D01*
X140512688Y-95516807D01*
X139496882Y-94501000D01*
X141229087Y-94501000D01*
X141229087Y-98201000D01*
X141256539Y-98346897D01*
X141342764Y-98480894D01*
X141474328Y-98570787D01*
X141630500Y-98602413D01*
X143230500Y-98602413D01*
X143376397Y-98574961D01*
X143510394Y-98488736D01*
X143600287Y-98357172D01*
X143631913Y-98201000D01*
X143631913Y-96833600D01*
X144099000Y-96833600D01*
X144283683Y-96796864D01*
X144440250Y-96692250D01*
X147267087Y-93865413D01*
X147786000Y-93865413D01*
X147931897Y-93837961D01*
X148065894Y-93751736D01*
X148155787Y-93620172D01*
X148187413Y-93464000D01*
X148187413Y-92464000D01*
X148159961Y-92318103D01*
X148073736Y-92184106D01*
X147942172Y-92094213D01*
X147786000Y-92062587D01*
X146986000Y-92062587D01*
X146840103Y-92090039D01*
X146706106Y-92176264D01*
X146616213Y-92307828D01*
X146584587Y-92464000D01*
X146584587Y-93182913D01*
X143899100Y-95868400D01*
X143631913Y-95868400D01*
X143631913Y-94501000D01*
X143604461Y-94355103D01*
X143518236Y-94221106D01*
X143386672Y-94131213D01*
X143230500Y-94099587D01*
X141630500Y-94099587D01*
X141484603Y-94127039D01*
X141350606Y-94213264D01*
X141260713Y-94344828D01*
X141229087Y-94501000D01*
X139496882Y-94501000D01*
X138734691Y-93738809D01*
X138565763Y-93625936D01*
X138366500Y-93586299D01*
X138366495Y-93586300D01*
X138018518Y-93586300D01*
X137994961Y-93461103D01*
X137908736Y-93327106D01*
X137777172Y-93237213D01*
X137741700Y-93230030D01*
X137741700Y-89846700D01*
X141136750Y-93241750D01*
X141293317Y-93346364D01*
X141478000Y-93383100D01*
X143573500Y-93383100D01*
X143758183Y-93346364D01*
X143914750Y-93241750D01*
X145756250Y-91400250D01*
X145860864Y-91243683D01*
X145897600Y-91059000D01*
X145897600Y-91037940D01*
X146100950Y-91122378D01*
X146378831Y-91122621D01*
X146635651Y-91016504D01*
X146832314Y-90820185D01*
X146938878Y-90563550D01*
X146939121Y-90285669D01*
X146833004Y-90028849D01*
X146710400Y-89906030D01*
X146710400Y-89754107D01*
X146730694Y-89740547D01*
X146884863Y-89509817D01*
X146939000Y-89237653D01*
X146939000Y-88562347D01*
X146884863Y-88290183D01*
X146730694Y-88059453D01*
X146499964Y-87905284D01*
X146227800Y-87851147D01*
X145955636Y-87905284D01*
X145821400Y-87994978D01*
X145687164Y-87905284D01*
X145415000Y-87851147D01*
X145142836Y-87905284D01*
X145008600Y-87994978D01*
X144874364Y-87905284D01*
X144602200Y-87851147D01*
X144330036Y-87905284D01*
X144099306Y-88059453D01*
X143945137Y-88290183D01*
X143891000Y-88562347D01*
X143891000Y-89237653D01*
X143945137Y-89509817D01*
X144016252Y-89616248D01*
X143631913Y-90000587D01*
X143631913Y-88701000D01*
X143604461Y-88555103D01*
X143518236Y-88421106D01*
X143386672Y-88331213D01*
X143230500Y-88299587D01*
X141630500Y-88299587D01*
X141484603Y-88327039D01*
X141350606Y-88413264D01*
X141260713Y-88544828D01*
X141229087Y-88701000D01*
X141229087Y-90068400D01*
X140661900Y-90068400D01*
X138363031Y-87769531D01*
X138785874Y-87769901D01*
X139210796Y-87594326D01*
X139536184Y-87269506D01*
X139607981Y-87096600D01*
X146675600Y-87096600D01*
X150662400Y-91083400D01*
X150662400Y-91083400D01*
G37*
X150662400Y-91083400D02*
X150662400Y-91535111D01*
X150645000Y-91531587D01*
X150345000Y-91531587D01*
X150199103Y-91559039D01*
X150065106Y-91645264D01*
X149975213Y-91776828D01*
X149943587Y-91933000D01*
X149943587Y-92163506D01*
X149842172Y-92094213D01*
X149686000Y-92062587D01*
X148886000Y-92062587D01*
X148740103Y-92090039D01*
X148606106Y-92176264D01*
X148516213Y-92307828D01*
X148484587Y-92464000D01*
X148484587Y-93464000D01*
X148512039Y-93609897D01*
X148598264Y-93743894D01*
X148729828Y-93833787D01*
X148886000Y-93865413D01*
X149686000Y-93865413D01*
X149831897Y-93837961D01*
X149943587Y-93766090D01*
X149943587Y-93933000D01*
X149971039Y-94078897D01*
X150057264Y-94212894D01*
X150188828Y-94302787D01*
X150345000Y-94334413D01*
X150645000Y-94334413D01*
X150790897Y-94306961D01*
X150818727Y-94289053D01*
X150838828Y-94302787D01*
X150995000Y-94334413D01*
X151295000Y-94334413D01*
X151440897Y-94306961D01*
X151468727Y-94289053D01*
X151488828Y-94302787D01*
X151645000Y-94334413D01*
X151945000Y-94334413D01*
X152090897Y-94306961D01*
X152118727Y-94289053D01*
X152138828Y-94302787D01*
X152295000Y-94334413D01*
X152574300Y-94334413D01*
X152574300Y-94783819D01*
X152247818Y-95110300D01*
X149891413Y-95110300D01*
X149891413Y-94831000D01*
X149863961Y-94685103D01*
X149777736Y-94551106D01*
X149646172Y-94461213D01*
X149490000Y-94429587D01*
X147690000Y-94429587D01*
X147544103Y-94457039D01*
X147410106Y-94543264D01*
X147320213Y-94674828D01*
X147288587Y-94831000D01*
X147288587Y-95359058D01*
X147214172Y-95308213D01*
X147058000Y-95276587D01*
X146058000Y-95276587D01*
X145912103Y-95304039D01*
X145778106Y-95390264D01*
X145688213Y-95521828D01*
X145675868Y-95582787D01*
X145604737Y-95596936D01*
X145435809Y-95709809D01*
X145435807Y-95709812D01*
X144094309Y-97051309D01*
X143981436Y-97220237D01*
X143941799Y-97419500D01*
X143941800Y-97419505D01*
X143941800Y-99034819D01*
X143802318Y-99174300D01*
X140931681Y-99174300D01*
X140665200Y-98907818D01*
X140665200Y-95885005D01*
X140665201Y-95885000D01*
X140625564Y-95685737D01*
X140566230Y-95596937D01*
X140512691Y-95516809D01*
X140512688Y-95516807D01*
X139496882Y-94501000D01*
X141229087Y-94501000D01*
X141229087Y-98201000D01*
X141256539Y-98346897D01*
X141342764Y-98480894D01*
X141474328Y-98570787D01*
X141630500Y-98602413D01*
X143230500Y-98602413D01*
X143376397Y-98574961D01*
X143510394Y-98488736D01*
X143600287Y-98357172D01*
X143631913Y-98201000D01*
X143631913Y-96833600D01*
X144099000Y-96833600D01*
X144283683Y-96796864D01*
X144440250Y-96692250D01*
X147267087Y-93865413D01*
X147786000Y-93865413D01*
X147931897Y-93837961D01*
X148065894Y-93751736D01*
X148155787Y-93620172D01*
X148187413Y-93464000D01*
X148187413Y-92464000D01*
X148159961Y-92318103D01*
X148073736Y-92184106D01*
X147942172Y-92094213D01*
X147786000Y-92062587D01*
X146986000Y-92062587D01*
X146840103Y-92090039D01*
X146706106Y-92176264D01*
X146616213Y-92307828D01*
X146584587Y-92464000D01*
X146584587Y-93182913D01*
X143899100Y-95868400D01*
X143631913Y-95868400D01*
X143631913Y-94501000D01*
X143604461Y-94355103D01*
X143518236Y-94221106D01*
X143386672Y-94131213D01*
X143230500Y-94099587D01*
X141630500Y-94099587D01*
X141484603Y-94127039D01*
X141350606Y-94213264D01*
X141260713Y-94344828D01*
X141229087Y-94501000D01*
X139496882Y-94501000D01*
X138734691Y-93738809D01*
X138565763Y-93625936D01*
X138366500Y-93586299D01*
X138366495Y-93586300D01*
X138018518Y-93586300D01*
X137994961Y-93461103D01*
X137908736Y-93327106D01*
X137777172Y-93237213D01*
X137741700Y-93230030D01*
X137741700Y-89846700D01*
X141136750Y-93241750D01*
X141293317Y-93346364D01*
X141478000Y-93383100D01*
X143573500Y-93383100D01*
X143758183Y-93346364D01*
X143914750Y-93241750D01*
X145756250Y-91400250D01*
X145860864Y-91243683D01*
X145897600Y-91059000D01*
X145897600Y-91037940D01*
X146100950Y-91122378D01*
X146378831Y-91122621D01*
X146635651Y-91016504D01*
X146832314Y-90820185D01*
X146938878Y-90563550D01*
X146939121Y-90285669D01*
X146833004Y-90028849D01*
X146710400Y-89906030D01*
X146710400Y-89754107D01*
X146730694Y-89740547D01*
X146884863Y-89509817D01*
X146939000Y-89237653D01*
X146939000Y-88562347D01*
X146884863Y-88290183D01*
X146730694Y-88059453D01*
X146499964Y-87905284D01*
X146227800Y-87851147D01*
X145955636Y-87905284D01*
X145821400Y-87994978D01*
X145687164Y-87905284D01*
X145415000Y-87851147D01*
X145142836Y-87905284D01*
X145008600Y-87994978D01*
X144874364Y-87905284D01*
X144602200Y-87851147D01*
X144330036Y-87905284D01*
X144099306Y-88059453D01*
X143945137Y-88290183D01*
X143891000Y-88562347D01*
X143891000Y-89237653D01*
X143945137Y-89509817D01*
X144016252Y-89616248D01*
X143631913Y-90000587D01*
X143631913Y-88701000D01*
X143604461Y-88555103D01*
X143518236Y-88421106D01*
X143386672Y-88331213D01*
X143230500Y-88299587D01*
X141630500Y-88299587D01*
X141484603Y-88327039D01*
X141350606Y-88413264D01*
X141260713Y-88544828D01*
X141229087Y-88701000D01*
X141229087Y-90068400D01*
X140661900Y-90068400D01*
X138363031Y-87769531D01*
X138785874Y-87769901D01*
X139210796Y-87594326D01*
X139536184Y-87269506D01*
X139607981Y-87096600D01*
X146675600Y-87096600D01*
X150662400Y-91083400D01*
G36*
X135973847Y-88995587D02*
X134963000Y-88995587D01*
X134817103Y-89023039D01*
X134683106Y-89109264D01*
X134593213Y-89240828D01*
X134561587Y-89397000D01*
X134561587Y-91197000D01*
X134589039Y-91342897D01*
X134675264Y-91476894D01*
X134806828Y-91566787D01*
X134828181Y-91571111D01*
X134770103Y-91582039D01*
X134636106Y-91668264D01*
X134546213Y-91799828D01*
X134514587Y-91956000D01*
X134514587Y-92956000D01*
X134542039Y-93101897D01*
X134557669Y-93126187D01*
X134414972Y-93268883D01*
X134324100Y-93488269D01*
X134324100Y-93792675D01*
X134473325Y-93941900D01*
X135155900Y-93941900D01*
X135155900Y-93921900D01*
X135486100Y-93921900D01*
X135486100Y-93941900D01*
X136168675Y-93941900D01*
X136317900Y-93792675D01*
X136317900Y-93488269D01*
X136227028Y-93268883D01*
X136079507Y-93121363D01*
X136085787Y-93112172D01*
X136117413Y-92956000D01*
X136117413Y-91956000D01*
X136089961Y-91810103D01*
X136003736Y-91676106D01*
X135890027Y-91598413D01*
X136563000Y-91598413D01*
X136700300Y-91572579D01*
X136700300Y-93228298D01*
X136675103Y-93233039D01*
X136541106Y-93319264D01*
X136451213Y-93450828D01*
X136419587Y-93607000D01*
X136419587Y-94607000D01*
X136447039Y-94752897D01*
X136533264Y-94886894D01*
X136664828Y-94976787D01*
X136700300Y-94983970D01*
X136700300Y-95684587D01*
X136160000Y-95684587D01*
X136061137Y-95703189D01*
X136032185Y-95674186D01*
X135775550Y-95567622D01*
X135497669Y-95567379D01*
X135240849Y-95673496D01*
X135044186Y-95869815D01*
X134937622Y-96126450D01*
X134937380Y-96403400D01*
X134677900Y-96403400D01*
X133898600Y-95624100D01*
X133898600Y-94421325D01*
X134324100Y-94421325D01*
X134324100Y-94725731D01*
X134414972Y-94945117D01*
X134582883Y-95113027D01*
X134802269Y-95203900D01*
X135006675Y-95203900D01*
X135155900Y-95054675D01*
X135155900Y-94272100D01*
X135486100Y-94272100D01*
X135486100Y-95054675D01*
X135635325Y-95203900D01*
X135839731Y-95203900D01*
X136059117Y-95113027D01*
X136227028Y-94945117D01*
X136317900Y-94725731D01*
X136317900Y-94421325D01*
X136168675Y-94272100D01*
X135486100Y-94272100D01*
X135155900Y-94272100D01*
X134473325Y-94272100D01*
X134324100Y-94421325D01*
X133898600Y-94421325D01*
X133898600Y-93341871D01*
X133961897Y-93329961D01*
X134095894Y-93243736D01*
X134185787Y-93112172D01*
X134217413Y-92956000D01*
X134217413Y-91956000D01*
X134189961Y-91810103D01*
X134103736Y-91676106D01*
X133972172Y-91586213D01*
X133902656Y-91572135D01*
X133908897Y-91570961D01*
X134042894Y-91484736D01*
X134132787Y-91353172D01*
X134164413Y-91197000D01*
X134164413Y-89397000D01*
X134136961Y-89251103D01*
X134050736Y-89117106D01*
X133919172Y-89027213D01*
X133818250Y-89006776D01*
X133872151Y-88984504D01*
X133944081Y-88912700D01*
X135890960Y-88912700D01*
X135973847Y-88995587D01*
X135973847Y-88995587D01*
G37*
X135973847Y-88995587D02*
X134963000Y-88995587D01*
X134817103Y-89023039D01*
X134683106Y-89109264D01*
X134593213Y-89240828D01*
X134561587Y-89397000D01*
X134561587Y-91197000D01*
X134589039Y-91342897D01*
X134675264Y-91476894D01*
X134806828Y-91566787D01*
X134828181Y-91571111D01*
X134770103Y-91582039D01*
X134636106Y-91668264D01*
X134546213Y-91799828D01*
X134514587Y-91956000D01*
X134514587Y-92956000D01*
X134542039Y-93101897D01*
X134557669Y-93126187D01*
X134414972Y-93268883D01*
X134324100Y-93488269D01*
X134324100Y-93792675D01*
X134473325Y-93941900D01*
X135155900Y-93941900D01*
X135155900Y-93921900D01*
X135486100Y-93921900D01*
X135486100Y-93941900D01*
X136168675Y-93941900D01*
X136317900Y-93792675D01*
X136317900Y-93488269D01*
X136227028Y-93268883D01*
X136079507Y-93121363D01*
X136085787Y-93112172D01*
X136117413Y-92956000D01*
X136117413Y-91956000D01*
X136089961Y-91810103D01*
X136003736Y-91676106D01*
X135890027Y-91598413D01*
X136563000Y-91598413D01*
X136700300Y-91572579D01*
X136700300Y-93228298D01*
X136675103Y-93233039D01*
X136541106Y-93319264D01*
X136451213Y-93450828D01*
X136419587Y-93607000D01*
X136419587Y-94607000D01*
X136447039Y-94752897D01*
X136533264Y-94886894D01*
X136664828Y-94976787D01*
X136700300Y-94983970D01*
X136700300Y-95684587D01*
X136160000Y-95684587D01*
X136061137Y-95703189D01*
X136032185Y-95674186D01*
X135775550Y-95567622D01*
X135497669Y-95567379D01*
X135240849Y-95673496D01*
X135044186Y-95869815D01*
X134937622Y-96126450D01*
X134937380Y-96403400D01*
X134677900Y-96403400D01*
X133898600Y-95624100D01*
X133898600Y-94421325D01*
X134324100Y-94421325D01*
X134324100Y-94725731D01*
X134414972Y-94945117D01*
X134582883Y-95113027D01*
X134802269Y-95203900D01*
X135006675Y-95203900D01*
X135155900Y-95054675D01*
X135155900Y-94272100D01*
X135486100Y-94272100D01*
X135486100Y-95054675D01*
X135635325Y-95203900D01*
X135839731Y-95203900D01*
X136059117Y-95113027D01*
X136227028Y-94945117D01*
X136317900Y-94725731D01*
X136317900Y-94421325D01*
X136168675Y-94272100D01*
X135486100Y-94272100D01*
X135155900Y-94272100D01*
X134473325Y-94272100D01*
X134324100Y-94421325D01*
X133898600Y-94421325D01*
X133898600Y-93341871D01*
X133961897Y-93329961D01*
X134095894Y-93243736D01*
X134185787Y-93112172D01*
X134217413Y-92956000D01*
X134217413Y-91956000D01*
X134189961Y-91810103D01*
X134103736Y-91676106D01*
X133972172Y-91586213D01*
X133902656Y-91572135D01*
X133908897Y-91570961D01*
X134042894Y-91484736D01*
X134132787Y-91353172D01*
X134164413Y-91197000D01*
X134164413Y-89397000D01*
X134136961Y-89251103D01*
X134050736Y-89117106D01*
X133919172Y-89027213D01*
X133818250Y-89006776D01*
X133872151Y-88984504D01*
X133944081Y-88912700D01*
X135890960Y-88912700D01*
X135973847Y-88995587D01*
M02*
