G04 #@! TF.FileFunction,Copper,L2,Bot,Signal*
%FSLAX46Y46*%
G04 Gerber Fmt 4.6, Leading zero omitted, Abs format (unit mm)*
G04 Created by KiCad (PCBNEW 4.0.2+dfsg1-stable) date Tue 07 Aug 2018 11:45:59 AM EDT*
%MOMM*%
G01*
G04 APERTURE LIST*
%ADD10C,0.100000*%
%ADD11C,1.524000*%
%ADD12C,3.048000*%
%ADD13C,0.609600*%
%ADD14C,0.254000*%
%ADD15C,0.177800*%
G04 APERTURE END LIST*
D10*
D11*
X155321000Y-88201500D03*
X152781000Y-88201500D03*
X134493000Y-86614000D03*
X132461000Y-86614000D03*
X130429000Y-86614000D03*
X136525000Y-86614000D03*
X138557000Y-86614000D03*
X138557000Y-84074000D03*
X130429000Y-84074000D03*
X135763000Y-84074000D03*
X133731000Y-84074000D03*
D12*
X134493000Y-80518000D03*
X127254000Y-81280000D03*
X141732000Y-81280000D03*
D13*
X126619000Y-109474000D03*
X137223500Y-99314000D03*
X155384500Y-108331000D03*
X153543000Y-108331000D03*
X151765000Y-108331000D03*
X149860000Y-108331000D03*
X148082000Y-108331000D03*
X145288000Y-93472000D03*
X145288000Y-97980500D03*
X135318500Y-95186500D03*
X155575000Y-94488000D03*
X146558000Y-99060000D03*
X153035000Y-97028000D03*
X148590000Y-97028000D03*
X127254000Y-103124000D03*
X127254000Y-100330000D03*
X131660000Y-99021000D03*
X128524000Y-101727000D03*
X133477000Y-88392000D03*
X134484199Y-98679000D03*
X135636000Y-96266000D03*
X149860000Y-114173000D03*
X146240500Y-90424000D03*
D14*
X154495500Y-108331000D02*
X155384500Y-108331000D01*
X153543000Y-108331000D02*
X154495500Y-108331000D01*
X152654000Y-108331000D02*
X153543000Y-108331000D01*
X152196052Y-108331000D02*
X152654000Y-108331000D01*
X150812500Y-108331000D02*
X151765000Y-108331000D01*
X149860000Y-108331000D02*
X150812500Y-108331000D01*
X131660000Y-99021000D02*
X133923989Y-99021000D01*
X133923989Y-99021000D02*
X134216989Y-99314000D01*
X134216989Y-99314000D02*
X137223500Y-99314000D01*
X151765000Y-108331000D02*
X152196052Y-108331000D01*
X148082000Y-108331000D02*
X149860000Y-108331000D01*
X145288000Y-97980500D02*
X145288000Y-93472000D01*
X153339799Y-96723201D02*
X155575000Y-94488000D01*
X153035000Y-97028000D02*
X153339799Y-96723201D01*
X148590000Y-97028000D02*
X153035000Y-97028000D01*
X128524000Y-101727000D02*
X131230000Y-99021000D01*
X131230000Y-99021000D02*
X131660000Y-99021000D01*
X133477000Y-88392000D02*
X129540000Y-88392000D01*
X129540000Y-88392000D02*
X128968500Y-87820500D01*
X128968500Y-87820500D02*
X128968500Y-85852000D01*
X128968500Y-85852000D02*
X129476500Y-85344000D01*
X129476500Y-85344000D02*
X132461000Y-85344000D01*
X132461000Y-85344000D02*
X133731000Y-84074000D01*
X135636000Y-96266000D02*
X134484199Y-97417801D01*
X134484199Y-97417801D02*
X134484199Y-98679000D01*
D15*
X146240500Y-90424000D02*
X146240500Y-93726000D01*
X146240500Y-93726000D02*
X146240500Y-95186500D01*
X148653500Y-98615500D02*
X146240500Y-96202500D01*
X146240500Y-96202500D02*
X146240500Y-93726000D01*
X148653500Y-106807000D02*
X148653500Y-98615500D01*
X147510499Y-107950001D02*
X148653500Y-106807000D01*
X149860000Y-111061500D02*
X147510499Y-108711999D01*
X147510499Y-108711999D02*
X147510499Y-107950001D01*
X149860000Y-114173000D02*
X149860000Y-111061500D01*
G36*
X133190972Y-78982486D02*
X134493000Y-80284513D01*
X135795028Y-78982486D01*
X135710549Y-78828900D01*
X156375100Y-78828900D01*
X156375100Y-87475226D01*
X156304107Y-87451880D01*
X155554487Y-88201500D01*
X156304107Y-88951120D01*
X156375100Y-88927774D01*
X156375100Y-116878100D01*
X125691900Y-116878100D01*
X125691900Y-98817331D01*
X133785578Y-98817331D01*
X133891695Y-99074151D01*
X134088014Y-99270814D01*
X134344649Y-99377378D01*
X134622530Y-99377621D01*
X134879350Y-99271504D01*
X135076013Y-99075185D01*
X135182577Y-98818550D01*
X135182820Y-98540669D01*
X135076703Y-98283849D01*
X135004899Y-98211919D01*
X135004899Y-97633483D01*
X135673848Y-96964533D01*
X135774331Y-96964621D01*
X136031151Y-96858504D01*
X136227814Y-96662185D01*
X136334378Y-96405550D01*
X136334621Y-96127669D01*
X136228504Y-95870849D01*
X136032185Y-95674186D01*
X135775550Y-95567622D01*
X135497669Y-95567379D01*
X135240849Y-95673496D01*
X135044186Y-95869815D01*
X134937622Y-96126450D01*
X134937533Y-96228086D01*
X134116008Y-97049610D01*
X134003135Y-97218538D01*
X133963498Y-97417801D01*
X133963499Y-97417806D01*
X133963499Y-98211825D01*
X133892385Y-98282815D01*
X133785821Y-98539450D01*
X133785578Y-98817331D01*
X125691900Y-98817331D01*
X125691900Y-90562331D01*
X145541879Y-90562331D01*
X145647996Y-90819151D01*
X145757900Y-90929248D01*
X145757900Y-96202500D01*
X145794636Y-96387183D01*
X145899250Y-96543750D01*
X148170900Y-98815400D01*
X148170900Y-106607101D01*
X147169249Y-107608751D01*
X147064635Y-107765318D01*
X147027899Y-107950001D01*
X147027899Y-108711999D01*
X147064635Y-108896682D01*
X147169249Y-109053249D01*
X149377400Y-111261400D01*
X149377400Y-113667792D01*
X149268186Y-113776815D01*
X149161622Y-114033450D01*
X149161379Y-114311331D01*
X149267496Y-114568151D01*
X149463815Y-114764814D01*
X149720450Y-114871378D01*
X149998331Y-114871621D01*
X150255151Y-114765504D01*
X150451814Y-114569185D01*
X150558378Y-114312550D01*
X150558621Y-114034669D01*
X150452504Y-113777849D01*
X150342600Y-113667752D01*
X150342600Y-111061500D01*
X150305864Y-110876817D01*
X150201250Y-110720250D01*
X147993099Y-108512099D01*
X147993099Y-108149901D01*
X148994747Y-107148252D01*
X148994750Y-107148250D01*
X149099364Y-106991683D01*
X149136101Y-106807000D01*
X149136100Y-106806995D01*
X149136100Y-98615500D01*
X149099364Y-98430817D01*
X148994750Y-98274250D01*
X146723100Y-96002600D01*
X146723100Y-90929208D01*
X146832314Y-90820185D01*
X146938878Y-90563550D01*
X146939121Y-90285669D01*
X146833004Y-90028849D01*
X146636685Y-89832186D01*
X146380050Y-89725622D01*
X146102169Y-89725379D01*
X145845349Y-89831496D01*
X145648686Y-90027815D01*
X145542122Y-90284450D01*
X145541879Y-90562331D01*
X125691900Y-90562331D01*
X125691900Y-85852000D01*
X128447799Y-85852000D01*
X128447800Y-85852005D01*
X128447800Y-87820495D01*
X128447799Y-87820500D01*
X128487436Y-88019763D01*
X128600309Y-88188691D01*
X129171807Y-88760188D01*
X129171809Y-88760191D01*
X129314145Y-88855296D01*
X129340737Y-88873064D01*
X129540000Y-88912701D01*
X129540005Y-88912700D01*
X133009825Y-88912700D01*
X133080815Y-88983814D01*
X133337450Y-89090378D01*
X133615331Y-89090621D01*
X133872151Y-88984504D01*
X134068814Y-88788185D01*
X134175378Y-88531550D01*
X134175466Y-88430374D01*
X151625099Y-88430374D01*
X151800674Y-88855296D01*
X152125494Y-89180684D01*
X152550108Y-89356999D01*
X153009874Y-89357401D01*
X153428065Y-89184607D01*
X154571380Y-89184607D01*
X154645982Y-89411467D01*
X155160399Y-89577683D01*
X155699267Y-89534386D01*
X155996018Y-89411467D01*
X156070620Y-89184607D01*
X155321000Y-88434987D01*
X154571380Y-89184607D01*
X153428065Y-89184607D01*
X153434796Y-89181826D01*
X153760184Y-88857006D01*
X153936499Y-88432392D01*
X153936841Y-88040899D01*
X153944817Y-88040899D01*
X153988114Y-88579767D01*
X154111033Y-88876518D01*
X154337893Y-88951120D01*
X155087513Y-88201500D01*
X154337893Y-87451880D01*
X154111033Y-87526482D01*
X153944817Y-88040899D01*
X153936841Y-88040899D01*
X153936901Y-87972626D01*
X153761326Y-87547704D01*
X153436506Y-87222316D01*
X153427059Y-87218393D01*
X154571380Y-87218393D01*
X155321000Y-87968013D01*
X156070620Y-87218393D01*
X155996018Y-86991533D01*
X155481601Y-86825317D01*
X154942733Y-86868614D01*
X154645982Y-86991533D01*
X154571380Y-87218393D01*
X153427059Y-87218393D01*
X153011892Y-87046001D01*
X152552126Y-87045599D01*
X152127204Y-87221174D01*
X151801816Y-87545994D01*
X151625501Y-87970608D01*
X151625099Y-88430374D01*
X134175466Y-88430374D01*
X134175621Y-88253669D01*
X134069504Y-87996849D01*
X133873185Y-87800186D01*
X133616550Y-87693622D01*
X133338669Y-87693379D01*
X133081849Y-87799496D01*
X133009919Y-87871300D01*
X129755681Y-87871300D01*
X129489200Y-87604818D01*
X129489200Y-87308393D01*
X129773494Y-87593184D01*
X130198108Y-87769499D01*
X130657874Y-87769901D01*
X131082796Y-87594326D01*
X131408184Y-87269506D01*
X131444873Y-87181150D01*
X131480674Y-87267796D01*
X131805494Y-87593184D01*
X132230108Y-87769499D01*
X132689874Y-87769901D01*
X133114796Y-87594326D01*
X133440184Y-87269506D01*
X133476873Y-87181150D01*
X133512674Y-87267796D01*
X133837494Y-87593184D01*
X134262108Y-87769499D01*
X134721874Y-87769901D01*
X135146796Y-87594326D01*
X135472184Y-87269506D01*
X135508873Y-87181150D01*
X135544674Y-87267796D01*
X135869494Y-87593184D01*
X136294108Y-87769499D01*
X136753874Y-87769901D01*
X137178796Y-87594326D01*
X137504184Y-87269506D01*
X137540873Y-87181150D01*
X137576674Y-87267796D01*
X137901494Y-87593184D01*
X138326108Y-87769499D01*
X138785874Y-87769901D01*
X139210796Y-87594326D01*
X139536184Y-87269506D01*
X139712499Y-86844892D01*
X139712901Y-86385126D01*
X139537326Y-85960204D01*
X139212506Y-85634816D01*
X138787892Y-85458501D01*
X138328126Y-85458099D01*
X137903204Y-85633674D01*
X137577816Y-85958494D01*
X137541127Y-86046850D01*
X137505326Y-85960204D01*
X137180506Y-85634816D01*
X136755892Y-85458501D01*
X136296126Y-85458099D01*
X135871204Y-85633674D01*
X135545816Y-85958494D01*
X135509127Y-86046850D01*
X135473326Y-85960204D01*
X135148506Y-85634816D01*
X134723892Y-85458501D01*
X134264126Y-85458099D01*
X133839204Y-85633674D01*
X133513816Y-85958494D01*
X133477127Y-86046850D01*
X133441326Y-85960204D01*
X133116506Y-85634816D01*
X132968163Y-85573219D01*
X133367109Y-85174273D01*
X133500108Y-85229499D01*
X133959874Y-85229901D01*
X134384796Y-85054326D01*
X134710184Y-84729506D01*
X134746873Y-84641150D01*
X134782674Y-84727796D01*
X135107494Y-85053184D01*
X135532108Y-85229499D01*
X135991874Y-85229901D01*
X136416796Y-85054326D01*
X136742184Y-84729506D01*
X136918499Y-84304892D01*
X136918500Y-84302874D01*
X137401099Y-84302874D01*
X137576674Y-84727796D01*
X137901494Y-85053184D01*
X138326108Y-85229499D01*
X138785874Y-85229901D01*
X139210796Y-85054326D01*
X139536184Y-84729506D01*
X139712499Y-84304892D01*
X139712901Y-83845126D01*
X139537326Y-83420204D01*
X139212506Y-83094816D01*
X138787892Y-82918501D01*
X138328126Y-82918099D01*
X137903204Y-83093674D01*
X137577816Y-83418494D01*
X137401501Y-83843108D01*
X137401099Y-84302874D01*
X136918500Y-84302874D01*
X136918901Y-83845126D01*
X136743326Y-83420204D01*
X136418506Y-83094816D01*
X135993892Y-82918501D01*
X135534126Y-82918099D01*
X135109204Y-83093674D01*
X134783816Y-83418494D01*
X134747127Y-83506850D01*
X134711326Y-83420204D01*
X134386506Y-83094816D01*
X133961892Y-82918501D01*
X133502126Y-82918099D01*
X133077204Y-83093674D01*
X132751816Y-83418494D01*
X132575501Y-83843108D01*
X132575099Y-84302874D01*
X132630840Y-84437778D01*
X132245318Y-84823300D01*
X131314226Y-84823300D01*
X131408184Y-84729506D01*
X131584499Y-84304892D01*
X131584901Y-83845126D01*
X131409326Y-83420204D01*
X131084506Y-83094816D01*
X130659892Y-82918501D01*
X130200126Y-82918099D01*
X129775204Y-83093674D01*
X129449816Y-83418494D01*
X129273501Y-83843108D01*
X129273099Y-84302874D01*
X129448674Y-84727796D01*
X129544011Y-84823300D01*
X129476500Y-84823300D01*
X129277237Y-84862936D01*
X129108309Y-84975809D01*
X129108307Y-84975812D01*
X128600309Y-85483809D01*
X128487436Y-85652737D01*
X128447799Y-85852000D01*
X125691900Y-85852000D01*
X125691900Y-82815514D01*
X125951972Y-82815514D01*
X126120222Y-83121397D01*
X126911198Y-83415107D01*
X127754362Y-83383766D01*
X128387778Y-83121397D01*
X128556028Y-82815514D01*
X140429972Y-82815514D01*
X140598222Y-83121397D01*
X141389198Y-83415107D01*
X142232362Y-83383766D01*
X142865778Y-83121397D01*
X143034028Y-82815514D01*
X141732000Y-81513487D01*
X140429972Y-82815514D01*
X128556028Y-82815514D01*
X127254000Y-81513487D01*
X125951972Y-82815514D01*
X125691900Y-82815514D01*
X125691900Y-82567405D01*
X125718486Y-82582028D01*
X127020513Y-81280000D01*
X127487487Y-81280000D01*
X128789514Y-82582028D01*
X129095397Y-82413778D01*
X129229172Y-82053514D01*
X133190972Y-82053514D01*
X133359222Y-82359397D01*
X134150198Y-82653107D01*
X134993362Y-82621766D01*
X135626778Y-82359397D01*
X135795028Y-82053514D01*
X134493000Y-80751487D01*
X133190972Y-82053514D01*
X129229172Y-82053514D01*
X129389107Y-81622802D01*
X129357766Y-80779638D01*
X129107400Y-80175198D01*
X132357893Y-80175198D01*
X132389234Y-81018362D01*
X132651603Y-81651778D01*
X132957486Y-81820028D01*
X134259513Y-80518000D01*
X134726487Y-80518000D01*
X136028514Y-81820028D01*
X136334397Y-81651778D01*
X136599739Y-80937198D01*
X139596893Y-80937198D01*
X139628234Y-81780362D01*
X139890603Y-82413778D01*
X140196486Y-82582028D01*
X141498513Y-81280000D01*
X141965487Y-81280000D01*
X143267514Y-82582028D01*
X143573397Y-82413778D01*
X143867107Y-81622802D01*
X143835766Y-80779638D01*
X143573397Y-80146222D01*
X143267514Y-79977972D01*
X141965487Y-81280000D01*
X141498513Y-81280000D01*
X140196486Y-79977972D01*
X139890603Y-80146222D01*
X139596893Y-80937198D01*
X136599739Y-80937198D01*
X136628107Y-80860802D01*
X136596766Y-80017638D01*
X136483623Y-79744486D01*
X140429972Y-79744486D01*
X141732000Y-81046513D01*
X143034028Y-79744486D01*
X142865778Y-79438603D01*
X142074802Y-79144893D01*
X141231638Y-79176234D01*
X140598222Y-79438603D01*
X140429972Y-79744486D01*
X136483623Y-79744486D01*
X136334397Y-79384222D01*
X136028514Y-79215972D01*
X134726487Y-80518000D01*
X134259513Y-80518000D01*
X132957486Y-79215972D01*
X132651603Y-79384222D01*
X132357893Y-80175198D01*
X129107400Y-80175198D01*
X129095397Y-80146222D01*
X128789514Y-79977972D01*
X127487487Y-81280000D01*
X127020513Y-81280000D01*
X125718486Y-79977972D01*
X125691900Y-79992595D01*
X125691900Y-79744486D01*
X125951972Y-79744486D01*
X127254000Y-81046513D01*
X128556028Y-79744486D01*
X128387778Y-79438603D01*
X127596802Y-79144893D01*
X126753638Y-79176234D01*
X126120222Y-79438603D01*
X125951972Y-79744486D01*
X125691900Y-79744486D01*
X125691900Y-78828900D01*
X133275451Y-78828900D01*
X133190972Y-78982486D01*
X133190972Y-78982486D01*
G37*
X133190972Y-78982486D02*
X134493000Y-80284513D01*
X135795028Y-78982486D01*
X135710549Y-78828900D01*
X156375100Y-78828900D01*
X156375100Y-87475226D01*
X156304107Y-87451880D01*
X155554487Y-88201500D01*
X156304107Y-88951120D01*
X156375100Y-88927774D01*
X156375100Y-116878100D01*
X125691900Y-116878100D01*
X125691900Y-98817331D01*
X133785578Y-98817331D01*
X133891695Y-99074151D01*
X134088014Y-99270814D01*
X134344649Y-99377378D01*
X134622530Y-99377621D01*
X134879350Y-99271504D01*
X135076013Y-99075185D01*
X135182577Y-98818550D01*
X135182820Y-98540669D01*
X135076703Y-98283849D01*
X135004899Y-98211919D01*
X135004899Y-97633483D01*
X135673848Y-96964533D01*
X135774331Y-96964621D01*
X136031151Y-96858504D01*
X136227814Y-96662185D01*
X136334378Y-96405550D01*
X136334621Y-96127669D01*
X136228504Y-95870849D01*
X136032185Y-95674186D01*
X135775550Y-95567622D01*
X135497669Y-95567379D01*
X135240849Y-95673496D01*
X135044186Y-95869815D01*
X134937622Y-96126450D01*
X134937533Y-96228086D01*
X134116008Y-97049610D01*
X134003135Y-97218538D01*
X133963498Y-97417801D01*
X133963499Y-97417806D01*
X133963499Y-98211825D01*
X133892385Y-98282815D01*
X133785821Y-98539450D01*
X133785578Y-98817331D01*
X125691900Y-98817331D01*
X125691900Y-90562331D01*
X145541879Y-90562331D01*
X145647996Y-90819151D01*
X145757900Y-90929248D01*
X145757900Y-96202500D01*
X145794636Y-96387183D01*
X145899250Y-96543750D01*
X148170900Y-98815400D01*
X148170900Y-106607101D01*
X147169249Y-107608751D01*
X147064635Y-107765318D01*
X147027899Y-107950001D01*
X147027899Y-108711999D01*
X147064635Y-108896682D01*
X147169249Y-109053249D01*
X149377400Y-111261400D01*
X149377400Y-113667792D01*
X149268186Y-113776815D01*
X149161622Y-114033450D01*
X149161379Y-114311331D01*
X149267496Y-114568151D01*
X149463815Y-114764814D01*
X149720450Y-114871378D01*
X149998331Y-114871621D01*
X150255151Y-114765504D01*
X150451814Y-114569185D01*
X150558378Y-114312550D01*
X150558621Y-114034669D01*
X150452504Y-113777849D01*
X150342600Y-113667752D01*
X150342600Y-111061500D01*
X150305864Y-110876817D01*
X150201250Y-110720250D01*
X147993099Y-108512099D01*
X147993099Y-108149901D01*
X148994747Y-107148252D01*
X148994750Y-107148250D01*
X149099364Y-106991683D01*
X149136101Y-106807000D01*
X149136100Y-106806995D01*
X149136100Y-98615500D01*
X149099364Y-98430817D01*
X148994750Y-98274250D01*
X146723100Y-96002600D01*
X146723100Y-90929208D01*
X146832314Y-90820185D01*
X146938878Y-90563550D01*
X146939121Y-90285669D01*
X146833004Y-90028849D01*
X146636685Y-89832186D01*
X146380050Y-89725622D01*
X146102169Y-89725379D01*
X145845349Y-89831496D01*
X145648686Y-90027815D01*
X145542122Y-90284450D01*
X145541879Y-90562331D01*
X125691900Y-90562331D01*
X125691900Y-85852000D01*
X128447799Y-85852000D01*
X128447800Y-85852005D01*
X128447800Y-87820495D01*
X128447799Y-87820500D01*
X128487436Y-88019763D01*
X128600309Y-88188691D01*
X129171807Y-88760188D01*
X129171809Y-88760191D01*
X129314145Y-88855296D01*
X129340737Y-88873064D01*
X129540000Y-88912701D01*
X129540005Y-88912700D01*
X133009825Y-88912700D01*
X133080815Y-88983814D01*
X133337450Y-89090378D01*
X133615331Y-89090621D01*
X133872151Y-88984504D01*
X134068814Y-88788185D01*
X134175378Y-88531550D01*
X134175466Y-88430374D01*
X151625099Y-88430374D01*
X151800674Y-88855296D01*
X152125494Y-89180684D01*
X152550108Y-89356999D01*
X153009874Y-89357401D01*
X153428065Y-89184607D01*
X154571380Y-89184607D01*
X154645982Y-89411467D01*
X155160399Y-89577683D01*
X155699267Y-89534386D01*
X155996018Y-89411467D01*
X156070620Y-89184607D01*
X155321000Y-88434987D01*
X154571380Y-89184607D01*
X153428065Y-89184607D01*
X153434796Y-89181826D01*
X153760184Y-88857006D01*
X153936499Y-88432392D01*
X153936841Y-88040899D01*
X153944817Y-88040899D01*
X153988114Y-88579767D01*
X154111033Y-88876518D01*
X154337893Y-88951120D01*
X155087513Y-88201500D01*
X154337893Y-87451880D01*
X154111033Y-87526482D01*
X153944817Y-88040899D01*
X153936841Y-88040899D01*
X153936901Y-87972626D01*
X153761326Y-87547704D01*
X153436506Y-87222316D01*
X153427059Y-87218393D01*
X154571380Y-87218393D01*
X155321000Y-87968013D01*
X156070620Y-87218393D01*
X155996018Y-86991533D01*
X155481601Y-86825317D01*
X154942733Y-86868614D01*
X154645982Y-86991533D01*
X154571380Y-87218393D01*
X153427059Y-87218393D01*
X153011892Y-87046001D01*
X152552126Y-87045599D01*
X152127204Y-87221174D01*
X151801816Y-87545994D01*
X151625501Y-87970608D01*
X151625099Y-88430374D01*
X134175466Y-88430374D01*
X134175621Y-88253669D01*
X134069504Y-87996849D01*
X133873185Y-87800186D01*
X133616550Y-87693622D01*
X133338669Y-87693379D01*
X133081849Y-87799496D01*
X133009919Y-87871300D01*
X129755681Y-87871300D01*
X129489200Y-87604818D01*
X129489200Y-87308393D01*
X129773494Y-87593184D01*
X130198108Y-87769499D01*
X130657874Y-87769901D01*
X131082796Y-87594326D01*
X131408184Y-87269506D01*
X131444873Y-87181150D01*
X131480674Y-87267796D01*
X131805494Y-87593184D01*
X132230108Y-87769499D01*
X132689874Y-87769901D01*
X133114796Y-87594326D01*
X133440184Y-87269506D01*
X133476873Y-87181150D01*
X133512674Y-87267796D01*
X133837494Y-87593184D01*
X134262108Y-87769499D01*
X134721874Y-87769901D01*
X135146796Y-87594326D01*
X135472184Y-87269506D01*
X135508873Y-87181150D01*
X135544674Y-87267796D01*
X135869494Y-87593184D01*
X136294108Y-87769499D01*
X136753874Y-87769901D01*
X137178796Y-87594326D01*
X137504184Y-87269506D01*
X137540873Y-87181150D01*
X137576674Y-87267796D01*
X137901494Y-87593184D01*
X138326108Y-87769499D01*
X138785874Y-87769901D01*
X139210796Y-87594326D01*
X139536184Y-87269506D01*
X139712499Y-86844892D01*
X139712901Y-86385126D01*
X139537326Y-85960204D01*
X139212506Y-85634816D01*
X138787892Y-85458501D01*
X138328126Y-85458099D01*
X137903204Y-85633674D01*
X137577816Y-85958494D01*
X137541127Y-86046850D01*
X137505326Y-85960204D01*
X137180506Y-85634816D01*
X136755892Y-85458501D01*
X136296126Y-85458099D01*
X135871204Y-85633674D01*
X135545816Y-85958494D01*
X135509127Y-86046850D01*
X135473326Y-85960204D01*
X135148506Y-85634816D01*
X134723892Y-85458501D01*
X134264126Y-85458099D01*
X133839204Y-85633674D01*
X133513816Y-85958494D01*
X133477127Y-86046850D01*
X133441326Y-85960204D01*
X133116506Y-85634816D01*
X132968163Y-85573219D01*
X133367109Y-85174273D01*
X133500108Y-85229499D01*
X133959874Y-85229901D01*
X134384796Y-85054326D01*
X134710184Y-84729506D01*
X134746873Y-84641150D01*
X134782674Y-84727796D01*
X135107494Y-85053184D01*
X135532108Y-85229499D01*
X135991874Y-85229901D01*
X136416796Y-85054326D01*
X136742184Y-84729506D01*
X136918499Y-84304892D01*
X136918500Y-84302874D01*
X137401099Y-84302874D01*
X137576674Y-84727796D01*
X137901494Y-85053184D01*
X138326108Y-85229499D01*
X138785874Y-85229901D01*
X139210796Y-85054326D01*
X139536184Y-84729506D01*
X139712499Y-84304892D01*
X139712901Y-83845126D01*
X139537326Y-83420204D01*
X139212506Y-83094816D01*
X138787892Y-82918501D01*
X138328126Y-82918099D01*
X137903204Y-83093674D01*
X137577816Y-83418494D01*
X137401501Y-83843108D01*
X137401099Y-84302874D01*
X136918500Y-84302874D01*
X136918901Y-83845126D01*
X136743326Y-83420204D01*
X136418506Y-83094816D01*
X135993892Y-82918501D01*
X135534126Y-82918099D01*
X135109204Y-83093674D01*
X134783816Y-83418494D01*
X134747127Y-83506850D01*
X134711326Y-83420204D01*
X134386506Y-83094816D01*
X133961892Y-82918501D01*
X133502126Y-82918099D01*
X133077204Y-83093674D01*
X132751816Y-83418494D01*
X132575501Y-83843108D01*
X132575099Y-84302874D01*
X132630840Y-84437778D01*
X132245318Y-84823300D01*
X131314226Y-84823300D01*
X131408184Y-84729506D01*
X131584499Y-84304892D01*
X131584901Y-83845126D01*
X131409326Y-83420204D01*
X131084506Y-83094816D01*
X130659892Y-82918501D01*
X130200126Y-82918099D01*
X129775204Y-83093674D01*
X129449816Y-83418494D01*
X129273501Y-83843108D01*
X129273099Y-84302874D01*
X129448674Y-84727796D01*
X129544011Y-84823300D01*
X129476500Y-84823300D01*
X129277237Y-84862936D01*
X129108309Y-84975809D01*
X129108307Y-84975812D01*
X128600309Y-85483809D01*
X128487436Y-85652737D01*
X128447799Y-85852000D01*
X125691900Y-85852000D01*
X125691900Y-82815514D01*
X125951972Y-82815514D01*
X126120222Y-83121397D01*
X126911198Y-83415107D01*
X127754362Y-83383766D01*
X128387778Y-83121397D01*
X128556028Y-82815514D01*
X140429972Y-82815514D01*
X140598222Y-83121397D01*
X141389198Y-83415107D01*
X142232362Y-83383766D01*
X142865778Y-83121397D01*
X143034028Y-82815514D01*
X141732000Y-81513487D01*
X140429972Y-82815514D01*
X128556028Y-82815514D01*
X127254000Y-81513487D01*
X125951972Y-82815514D01*
X125691900Y-82815514D01*
X125691900Y-82567405D01*
X125718486Y-82582028D01*
X127020513Y-81280000D01*
X127487487Y-81280000D01*
X128789514Y-82582028D01*
X129095397Y-82413778D01*
X129229172Y-82053514D01*
X133190972Y-82053514D01*
X133359222Y-82359397D01*
X134150198Y-82653107D01*
X134993362Y-82621766D01*
X135626778Y-82359397D01*
X135795028Y-82053514D01*
X134493000Y-80751487D01*
X133190972Y-82053514D01*
X129229172Y-82053514D01*
X129389107Y-81622802D01*
X129357766Y-80779638D01*
X129107400Y-80175198D01*
X132357893Y-80175198D01*
X132389234Y-81018362D01*
X132651603Y-81651778D01*
X132957486Y-81820028D01*
X134259513Y-80518000D01*
X134726487Y-80518000D01*
X136028514Y-81820028D01*
X136334397Y-81651778D01*
X136599739Y-80937198D01*
X139596893Y-80937198D01*
X139628234Y-81780362D01*
X139890603Y-82413778D01*
X140196486Y-82582028D01*
X141498513Y-81280000D01*
X141965487Y-81280000D01*
X143267514Y-82582028D01*
X143573397Y-82413778D01*
X143867107Y-81622802D01*
X143835766Y-80779638D01*
X143573397Y-80146222D01*
X143267514Y-79977972D01*
X141965487Y-81280000D01*
X141498513Y-81280000D01*
X140196486Y-79977972D01*
X139890603Y-80146222D01*
X139596893Y-80937198D01*
X136599739Y-80937198D01*
X136628107Y-80860802D01*
X136596766Y-80017638D01*
X136483623Y-79744486D01*
X140429972Y-79744486D01*
X141732000Y-81046513D01*
X143034028Y-79744486D01*
X142865778Y-79438603D01*
X142074802Y-79144893D01*
X141231638Y-79176234D01*
X140598222Y-79438603D01*
X140429972Y-79744486D01*
X136483623Y-79744486D01*
X136334397Y-79384222D01*
X136028514Y-79215972D01*
X134726487Y-80518000D01*
X134259513Y-80518000D01*
X132957486Y-79215972D01*
X132651603Y-79384222D01*
X132357893Y-80175198D01*
X129107400Y-80175198D01*
X129095397Y-80146222D01*
X128789514Y-79977972D01*
X127487487Y-81280000D01*
X127020513Y-81280000D01*
X125718486Y-79977972D01*
X125691900Y-79992595D01*
X125691900Y-79744486D01*
X125951972Y-79744486D01*
X127254000Y-81046513D01*
X128556028Y-79744486D01*
X128387778Y-79438603D01*
X127596802Y-79144893D01*
X126753638Y-79176234D01*
X126120222Y-79438603D01*
X125951972Y-79744486D01*
X125691900Y-79744486D01*
X125691900Y-78828900D01*
X133275451Y-78828900D01*
X133190972Y-78982486D01*
M02*
