G04 #@! TF.FileFunction,Soldermask,Top*
%FSLAX46Y46*%
G04 Gerber Fmt 4.6, Leading zero omitted, Abs format (unit mm)*
G04 Created by KiCad (PCBNEW 4.0.2+dfsg1-stable) date Tue 07 Aug 2018 11:45:59 AM EDT*
%MOMM*%
G01*
G04 APERTURE LIST*
%ADD10C,0.100000*%
%ADD11R,0.500000X2.200000*%
%ADD12R,1.203200X1.003200*%
%ADD13R,1.473200X1.473200*%
%ADD14R,1.803200X3.903200*%
%ADD15R,1.473200X1.219200*%
%ADD16R,1.219200X1.473200*%
%ADD17R,1.003200X1.203200*%
%ADD18R,1.803200X2.003200*%
%ADD19R,2.003200X1.803200*%
%ADD20C,1.727200*%
%ADD21R,2.200000X0.500000*%
%ADD22O,0.838200X1.473200*%
%ADD23C,3.251200*%
G04 APERTURE END LIST*
D10*
D11*
X150495000Y-98933000D03*
X151145000Y-98933000D03*
X151795000Y-98933000D03*
X152445000Y-98933000D03*
X153095000Y-98933000D03*
X153745000Y-98933000D03*
X154395000Y-98933000D03*
X154395000Y-92933000D03*
X153745000Y-92933000D03*
X153095000Y-92933000D03*
X152445000Y-92933000D03*
X151795000Y-92933000D03*
X151145000Y-92933000D03*
X150495000Y-92933000D03*
D12*
X155384500Y-106233000D03*
X155384500Y-104333000D03*
D13*
X155448000Y-115951000D03*
D14*
X142430500Y-90551000D03*
X142430500Y-96351000D03*
D15*
X140970000Y-110998000D03*
X140970000Y-113157000D03*
D12*
X143891000Y-112837000D03*
X143891000Y-110937000D03*
X146685000Y-112837000D03*
X146685000Y-110937000D03*
X138049000Y-112837000D03*
X138049000Y-110937000D03*
X136652000Y-112837000D03*
X136652000Y-110937000D03*
X133858000Y-112837000D03*
X133858000Y-110937000D03*
X131064000Y-112837000D03*
X131064000Y-110937000D03*
D15*
X128143000Y-110998000D03*
X128143000Y-113157000D03*
D16*
X133350000Y-99695000D03*
X135509000Y-99695000D03*
D17*
X139131000Y-101409500D03*
X141031000Y-101409500D03*
D12*
X128651000Y-98867000D03*
X128651000Y-96967000D03*
D18*
X127762000Y-90297000D03*
X130562000Y-90297000D03*
X135763000Y-90297000D03*
X132963000Y-90297000D03*
D19*
X148590000Y-95631000D03*
X148590000Y-98431000D03*
D12*
X146558000Y-96078000D03*
X146558000Y-97978000D03*
D17*
X137221000Y-94107000D03*
X135321000Y-94107000D03*
D13*
X153289000Y-115951000D03*
D20*
X155321000Y-88201500D03*
X152781000Y-88201500D03*
D13*
X151130000Y-115951000D03*
D12*
X149860000Y-112837000D03*
X149860000Y-110937000D03*
X152654000Y-110937000D03*
X152654000Y-112837000D03*
X154051000Y-110937000D03*
X154051000Y-112837000D03*
X155448000Y-110937000D03*
X155448000Y-112837000D03*
X151257000Y-110937000D03*
X151257000Y-112837000D03*
X151765000Y-106233000D03*
X151765000Y-104333000D03*
X153543000Y-106233000D03*
X153543000Y-104333000D03*
X149860000Y-106233000D03*
X149860000Y-104333000D03*
D17*
X153164500Y-90424000D03*
X155064500Y-90424000D03*
X147386000Y-92964000D03*
X149286000Y-92964000D03*
D12*
X139446000Y-112837000D03*
X139446000Y-110937000D03*
X142494000Y-112837000D03*
X142494000Y-110937000D03*
X145288000Y-112837000D03*
X145288000Y-110937000D03*
X135255000Y-112837000D03*
X135255000Y-110937000D03*
X132461000Y-112837000D03*
X132461000Y-110937000D03*
X129667000Y-112837000D03*
X129667000Y-110937000D03*
X126619000Y-112837000D03*
X126619000Y-110937000D03*
X140970000Y-106233000D03*
X140970000Y-104333000D03*
X143891000Y-106233000D03*
X143891000Y-104333000D03*
X146685000Y-106233000D03*
X146685000Y-104333000D03*
X138049000Y-106233000D03*
X138049000Y-104333000D03*
X136652000Y-106233000D03*
X136652000Y-104333000D03*
X135255000Y-106233000D03*
X135255000Y-104333000D03*
X132334000Y-106233000D03*
X132334000Y-104333000D03*
X129540000Y-106233000D03*
X129540000Y-104333000D03*
D17*
X133289000Y-102616000D03*
X135189000Y-102616000D03*
X135189000Y-101219000D03*
X133289000Y-101219000D03*
X139131000Y-102806500D03*
X141031000Y-102806500D03*
D12*
X127127000Y-98867000D03*
X127127000Y-96967000D03*
D17*
X131760000Y-92456000D03*
X129860000Y-92456000D03*
X133416000Y-92456000D03*
X135316000Y-92456000D03*
D13*
X149034500Y-115951000D03*
X140843000Y-115951000D03*
X129921000Y-115951000D03*
X135382000Y-115951000D03*
D21*
X131660000Y-96236000D03*
X131660000Y-96886000D03*
X131660000Y-97536000D03*
X131660000Y-98186000D03*
X137160000Y-98186000D03*
X137160000Y-97536000D03*
X137160000Y-96886000D03*
X137160000Y-96236000D03*
D13*
X143510000Y-115951000D03*
X132588000Y-115951000D03*
X138176000Y-115951000D03*
X127254000Y-115951000D03*
X127254000Y-101727000D03*
X146304000Y-115951000D03*
D12*
X148082000Y-112837000D03*
X148082000Y-110937000D03*
D22*
X144602200Y-88900000D03*
X145415000Y-88900000D03*
X146227800Y-88900000D03*
D20*
X134493000Y-86614000D03*
X132461000Y-86614000D03*
X130429000Y-86614000D03*
X136525000Y-86614000D03*
X138557000Y-86614000D03*
X138557000Y-84074000D03*
X130429000Y-84074000D03*
X135763000Y-84074000D03*
X133731000Y-84074000D03*
D23*
X134493000Y-80518000D03*
X127254000Y-81280000D03*
X141732000Y-81280000D03*
M02*
