M48
;DRILL file {KiCad 4.0.2+dfsg1-stable} date Tue 07 Aug 2018 11:46:07 AM EDT
;FORMAT={3:3/ absolute / metric / suppress leading zeros}
FMAT,2
METRIC,TZ
T1C0.305
T2C1.016
T3C2.286
%
G90
G05
M71
T1
X126619Y-109474
X127254Y-100330
X127254Y-103124
X128524Y-101727
X131660Y-99021
X133477Y-88392
X134484Y-98679
X135319Y-95187
X135636Y-96266
X137224Y-99314
X145288Y-93472
X145288Y-97981
X146241Y-90424
X146558Y-99060
X148082Y-108331
X148590Y-97028
X149860Y-108331
X149860Y-114173
X151765Y-108331
X153035Y-97028
X153543Y-108331
X155385Y-108331
X155575Y-94488
T2
X130429Y-84074
X130429Y-86614
X132461Y-86614
X133731Y-84074
X134493Y-86614
X135763Y-84074
X136525Y-86614
X138557Y-84074
X138557Y-86614
X152781Y-88202
X155321Y-88202
T3
X127254Y-81280
X134493Y-80518
X141732Y-81280
T0
M30
