G04 #@! TF.FileFunction,Legend,Top*
%FSLAX46Y46*%
G04 Gerber Fmt 4.6, Leading zero omitted, Abs format (unit mm)*
G04 Created by KiCad (PCBNEW 4.0.2+dfsg1-stable) date Tue 07 Aug 2018 11:45:59 AM EDT*
%MOMM*%
G01*
G04 APERTURE LIST*
%ADD10C,0.100000*%
%ADD11C,0.203200*%
%ADD12C,0.190500*%
%ADD13C,0.254000*%
%ADD14C,0.010000*%
G04 APERTURE END LIST*
D10*
D11*
X145076335Y-85809667D02*
X145076335Y-84920667D01*
X145076335Y-85767333D02*
X144991668Y-85809667D01*
X144822335Y-85809667D01*
X144737668Y-85767333D01*
X144695335Y-85725000D01*
X144653001Y-85640333D01*
X144653001Y-85386333D01*
X144695335Y-85301667D01*
X144737668Y-85259333D01*
X144822335Y-85217000D01*
X144991668Y-85217000D01*
X145076335Y-85259333D01*
X145499668Y-85809667D02*
X145499668Y-84920667D01*
X145499668Y-85259333D02*
X145584334Y-85217000D01*
X145753668Y-85217000D01*
X145838334Y-85259333D01*
X145880668Y-85301667D01*
X145923001Y-85386333D01*
X145923001Y-85640333D01*
X145880668Y-85725000D01*
X145838334Y-85767333D01*
X145753668Y-85809667D01*
X145584334Y-85809667D01*
X145499668Y-85767333D01*
X146304001Y-85471000D02*
X146981334Y-85471000D01*
X147743334Y-85767333D02*
X147658668Y-85809667D01*
X147489334Y-85809667D01*
X147404668Y-85767333D01*
X147362334Y-85682667D01*
X147362334Y-85344000D01*
X147404668Y-85259333D01*
X147489334Y-85217000D01*
X147658668Y-85217000D01*
X147743334Y-85259333D01*
X147785668Y-85344000D01*
X147785668Y-85428667D01*
X147362334Y-85513333D01*
X148293668Y-85809667D02*
X148209001Y-85767333D01*
X148166668Y-85682667D01*
X148166668Y-84920667D01*
X148971001Y-85767333D02*
X148886335Y-85809667D01*
X148717001Y-85809667D01*
X148632335Y-85767333D01*
X148590001Y-85682667D01*
X148590001Y-85344000D01*
X148632335Y-85259333D01*
X148717001Y-85217000D01*
X148886335Y-85217000D01*
X148971001Y-85259333D01*
X149013335Y-85344000D01*
X149013335Y-85428667D01*
X148590001Y-85513333D01*
X149775335Y-85767333D02*
X149690668Y-85809667D01*
X149521335Y-85809667D01*
X149436668Y-85767333D01*
X149394335Y-85725000D01*
X149352001Y-85640333D01*
X149352001Y-85386333D01*
X149394335Y-85301667D01*
X149436668Y-85259333D01*
X149521335Y-85217000D01*
X149690668Y-85217000D01*
X149775335Y-85259333D01*
X150029335Y-85217000D02*
X150368001Y-85217000D01*
X150156335Y-84920667D02*
X150156335Y-85682667D01*
X150198668Y-85767333D01*
X150283335Y-85809667D01*
X150368001Y-85809667D01*
X150664335Y-85809667D02*
X150664335Y-85217000D01*
X150664335Y-85386333D02*
X150706668Y-85301667D01*
X150749001Y-85259333D01*
X150833668Y-85217000D01*
X150918335Y-85217000D01*
X151341668Y-85809667D02*
X151257001Y-85767333D01*
X151214668Y-85725000D01*
X151172334Y-85640333D01*
X151172334Y-85386333D01*
X151214668Y-85301667D01*
X151257001Y-85259333D01*
X151341668Y-85217000D01*
X151468668Y-85217000D01*
X151553334Y-85259333D01*
X151595668Y-85301667D01*
X151638001Y-85386333D01*
X151638001Y-85640333D01*
X151595668Y-85725000D01*
X151553334Y-85767333D01*
X151468668Y-85809667D01*
X151341668Y-85809667D01*
X152019001Y-85217000D02*
X152019001Y-85809667D01*
X152019001Y-85301667D02*
X152061334Y-85259333D01*
X152146001Y-85217000D01*
X152273001Y-85217000D01*
X152357667Y-85259333D01*
X152400001Y-85344000D01*
X152400001Y-85809667D01*
X152823334Y-85809667D02*
X152823334Y-85217000D01*
X152823334Y-84920667D02*
X152781000Y-84963000D01*
X152823334Y-85005333D01*
X152865667Y-84963000D01*
X152823334Y-84920667D01*
X152823334Y-85005333D01*
X153627667Y-85767333D02*
X153543000Y-85809667D01*
X153373667Y-85809667D01*
X153289000Y-85767333D01*
X153246667Y-85725000D01*
X153204333Y-85640333D01*
X153204333Y-85386333D01*
X153246667Y-85301667D01*
X153289000Y-85259333D01*
X153373667Y-85217000D01*
X153543000Y-85217000D01*
X153627667Y-85259333D01*
X153966333Y-85767333D02*
X154051000Y-85809667D01*
X154220333Y-85809667D01*
X154305000Y-85767333D01*
X154347333Y-85682667D01*
X154347333Y-85640333D01*
X154305000Y-85555667D01*
X154220333Y-85513333D01*
X154093333Y-85513333D01*
X154008667Y-85471000D01*
X153966333Y-85386333D01*
X153966333Y-85344000D01*
X154008667Y-85259333D01*
X154093333Y-85217000D01*
X154220333Y-85217000D01*
X154305000Y-85259333D01*
X154728334Y-85725000D02*
X154770667Y-85767333D01*
X154728334Y-85809667D01*
X154686000Y-85767333D01*
X154728334Y-85725000D01*
X154728334Y-85809667D01*
X155532667Y-85767333D02*
X155448000Y-85809667D01*
X155278667Y-85809667D01*
X155194000Y-85767333D01*
X155151667Y-85725000D01*
X155109333Y-85640333D01*
X155109333Y-85386333D01*
X155151667Y-85301667D01*
X155194000Y-85259333D01*
X155278667Y-85217000D01*
X155448000Y-85217000D01*
X155532667Y-85259333D01*
X156294667Y-85809667D02*
X156294667Y-85344000D01*
X156252333Y-85259333D01*
X156167667Y-85217000D01*
X155998333Y-85217000D01*
X155913667Y-85259333D01*
X156294667Y-85767333D02*
X156210000Y-85809667D01*
X155998333Y-85809667D01*
X155913667Y-85767333D01*
X155871333Y-85682667D01*
X155871333Y-85598000D01*
X155913667Y-85513333D01*
X155998333Y-85471000D01*
X156210000Y-85471000D01*
X156294667Y-85428667D01*
D12*
X148989142Y-82450214D02*
X149279428Y-82450214D01*
X149098000Y-82196214D02*
X149098000Y-82849357D01*
X149134285Y-82921929D01*
X149206857Y-82958214D01*
X149279428Y-82958214D01*
X149533429Y-82958214D02*
X149533429Y-82450214D01*
X149533429Y-82595357D02*
X149569714Y-82522786D01*
X149606000Y-82486500D01*
X149678571Y-82450214D01*
X149751143Y-82450214D01*
X150005143Y-82958214D02*
X150005143Y-82450214D01*
X150005143Y-82196214D02*
X149968857Y-82232500D01*
X150005143Y-82268786D01*
X150041428Y-82232500D01*
X150005143Y-82196214D01*
X150005143Y-82268786D01*
X150368000Y-82450214D02*
X150368000Y-83212214D01*
X150368000Y-82486500D02*
X150440571Y-82450214D01*
X150585714Y-82450214D01*
X150658285Y-82486500D01*
X150694571Y-82522786D01*
X150730857Y-82595357D01*
X150730857Y-82813071D01*
X150694571Y-82885643D01*
X150658285Y-82921929D01*
X150585714Y-82958214D01*
X150440571Y-82958214D01*
X150368000Y-82921929D01*
X151166286Y-82958214D02*
X151093714Y-82921929D01*
X151057429Y-82849357D01*
X151057429Y-82196214D01*
X151746857Y-82921929D02*
X151674286Y-82958214D01*
X151529143Y-82958214D01*
X151456572Y-82921929D01*
X151420286Y-82849357D01*
X151420286Y-82559071D01*
X151456572Y-82486500D01*
X151529143Y-82450214D01*
X151674286Y-82450214D01*
X151746857Y-82486500D01*
X151783143Y-82559071D01*
X151783143Y-82631643D01*
X151420286Y-82704214D01*
X152690286Y-82958214D02*
X152690286Y-82196214D01*
X152690286Y-82486500D02*
X152762857Y-82450214D01*
X152908000Y-82450214D01*
X152980571Y-82486500D01*
X153016857Y-82522786D01*
X153053143Y-82595357D01*
X153053143Y-82813071D01*
X153016857Y-82885643D01*
X152980571Y-82921929D01*
X152908000Y-82958214D01*
X152762857Y-82958214D01*
X152690286Y-82921929D01*
X153307143Y-82450214D02*
X153488572Y-82958214D01*
X153670000Y-82450214D02*
X153488572Y-82958214D01*
X153416000Y-83139643D01*
X153379715Y-83175929D01*
X153307143Y-83212214D01*
X153960286Y-82450214D02*
X153960286Y-83212214D01*
X153960286Y-82486500D02*
X154032857Y-82450214D01*
X154178000Y-82450214D01*
X154250571Y-82486500D01*
X154286857Y-82522786D01*
X154323143Y-82595357D01*
X154323143Y-82813071D01*
X154286857Y-82885643D01*
X154250571Y-82921929D01*
X154178000Y-82958214D01*
X154032857Y-82958214D01*
X153960286Y-82921929D01*
X154976286Y-82958214D02*
X154976286Y-82559071D01*
X154940000Y-82486500D01*
X154867429Y-82450214D01*
X154722286Y-82450214D01*
X154649715Y-82486500D01*
X154976286Y-82921929D02*
X154903715Y-82958214D01*
X154722286Y-82958214D01*
X154649715Y-82921929D01*
X154613429Y-82849357D01*
X154613429Y-82776786D01*
X154649715Y-82704214D01*
X154722286Y-82667929D01*
X154903715Y-82667929D01*
X154976286Y-82631643D01*
X155302858Y-82921929D02*
X155375429Y-82958214D01*
X155520572Y-82958214D01*
X155593144Y-82921929D01*
X155629429Y-82849357D01*
X155629429Y-82813071D01*
X155593144Y-82740500D01*
X155520572Y-82704214D01*
X155411715Y-82704214D01*
X155339144Y-82667929D01*
X155302858Y-82595357D01*
X155302858Y-82559071D01*
X155339144Y-82486500D01*
X155411715Y-82450214D01*
X155520572Y-82450214D01*
X155593144Y-82486500D01*
X155919715Y-82921929D02*
X155992286Y-82958214D01*
X156137429Y-82958214D01*
X156210001Y-82921929D01*
X156246286Y-82849357D01*
X156246286Y-82813071D01*
X156210001Y-82740500D01*
X156137429Y-82704214D01*
X156028572Y-82704214D01*
X155956001Y-82667929D01*
X155919715Y-82595357D01*
X155919715Y-82559071D01*
X155956001Y-82486500D01*
X156028572Y-82450214D01*
X156137429Y-82450214D01*
X156210001Y-82486500D01*
D11*
X153797000Y-83947000D02*
X154008667Y-84539667D01*
X154220333Y-83947000D01*
X154728333Y-83650667D02*
X154813000Y-83650667D01*
X154897666Y-83693000D01*
X154940000Y-83735333D01*
X154982333Y-83820000D01*
X155024666Y-83989333D01*
X155024666Y-84201000D01*
X154982333Y-84370333D01*
X154940000Y-84455000D01*
X154897666Y-84497333D01*
X154813000Y-84539667D01*
X154728333Y-84539667D01*
X154643666Y-84497333D01*
X154601333Y-84455000D01*
X154559000Y-84370333D01*
X154516666Y-84201000D01*
X154516666Y-83989333D01*
X154559000Y-83820000D01*
X154601333Y-83735333D01*
X154643666Y-83693000D01*
X154728333Y-83650667D01*
X155405667Y-84455000D02*
X155448000Y-84497333D01*
X155405667Y-84539667D01*
X155363333Y-84497333D01*
X155405667Y-84455000D01*
X155405667Y-84539667D01*
X155744333Y-83650667D02*
X156294666Y-83650667D01*
X155998333Y-83989333D01*
X156125333Y-83989333D01*
X156210000Y-84031667D01*
X156252333Y-84074000D01*
X156294666Y-84158667D01*
X156294666Y-84370333D01*
X156252333Y-84455000D01*
X156210000Y-84497333D01*
X156125333Y-84539667D01*
X155871333Y-84539667D01*
X155786666Y-84497333D01*
X155744333Y-84455000D01*
X125857000Y-104436333D02*
X125814667Y-104520999D01*
X125814667Y-104647999D01*
X125857000Y-104774999D01*
X125941667Y-104859666D01*
X126026333Y-104901999D01*
X126195667Y-104944333D01*
X126322667Y-104944333D01*
X126492000Y-104901999D01*
X126576667Y-104859666D01*
X126661333Y-104774999D01*
X126703667Y-104647999D01*
X126703667Y-104563333D01*
X126661333Y-104436333D01*
X126619000Y-104393999D01*
X126322667Y-104393999D01*
X126322667Y-104563333D01*
X126703667Y-104012999D02*
X125814667Y-104012999D01*
X126703667Y-103504999D01*
X125814667Y-103504999D01*
X126703667Y-103081666D02*
X125814667Y-103081666D01*
X125814667Y-102870000D01*
X125857000Y-102743000D01*
X125941667Y-102658333D01*
X126026333Y-102616000D01*
X126195667Y-102573666D01*
X126322667Y-102573666D01*
X126492000Y-102616000D01*
X126576667Y-102658333D01*
X126661333Y-102743000D01*
X126703667Y-102870000D01*
X126703667Y-103081666D01*
X126809500Y-114405833D02*
X126809500Y-114829167D01*
X126513167Y-113940167D02*
X126809500Y-114405833D01*
X127105833Y-113940167D01*
X127910167Y-114829167D02*
X127613833Y-114405833D01*
X127402167Y-114829167D02*
X127402167Y-113940167D01*
X127740833Y-113940167D01*
X127825500Y-113982500D01*
X127867833Y-114024833D01*
X127910167Y-114109500D01*
X127910167Y-114236500D01*
X127867833Y-114321167D01*
X127825500Y-114363500D01*
X127740833Y-114405833D01*
X127402167Y-114405833D01*
X129751667Y-114744500D02*
X129709333Y-114786833D01*
X129582333Y-114829167D01*
X129497667Y-114829167D01*
X129370667Y-114786833D01*
X129286000Y-114702167D01*
X129243667Y-114617500D01*
X129201333Y-114448167D01*
X129201333Y-114321167D01*
X129243667Y-114151833D01*
X129286000Y-114067167D01*
X129370667Y-113982500D01*
X129497667Y-113940167D01*
X129582333Y-113940167D01*
X129709333Y-113982500D01*
X129751667Y-114024833D01*
X130640667Y-114829167D02*
X130344333Y-114405833D01*
X130132667Y-114829167D02*
X130132667Y-113940167D01*
X130471333Y-113940167D01*
X130556000Y-113982500D01*
X130598333Y-114024833D01*
X130640667Y-114109500D01*
X130640667Y-114236500D01*
X130598333Y-114321167D01*
X130556000Y-114363500D01*
X130471333Y-114405833D01*
X130132667Y-114405833D01*
X131847167Y-113940167D02*
X132439834Y-114829167D01*
X132439834Y-113940167D02*
X131847167Y-114829167D01*
X133286501Y-114829167D02*
X132990167Y-114405833D01*
X132778501Y-114829167D02*
X132778501Y-113940167D01*
X133117167Y-113940167D01*
X133201834Y-113982500D01*
X133244167Y-114024833D01*
X133286501Y-114109500D01*
X133286501Y-114236500D01*
X133244167Y-114321167D01*
X133201834Y-114363500D01*
X133117167Y-114405833D01*
X132778501Y-114405833D01*
X134281334Y-114829167D02*
X134281334Y-113940167D01*
X134620000Y-113940167D01*
X134704667Y-113982500D01*
X134747000Y-114024833D01*
X134789334Y-114109500D01*
X134789334Y-114236500D01*
X134747000Y-114321167D01*
X134704667Y-114363500D01*
X134620000Y-114405833D01*
X134281334Y-114405833D01*
X135128000Y-114786833D02*
X135255000Y-114829167D01*
X135466667Y-114829167D01*
X135551334Y-114786833D01*
X135593667Y-114744500D01*
X135636000Y-114659833D01*
X135636000Y-114575167D01*
X135593667Y-114490500D01*
X135551334Y-114448167D01*
X135466667Y-114405833D01*
X135297334Y-114363500D01*
X135212667Y-114321167D01*
X135170334Y-114278833D01*
X135128000Y-114194167D01*
X135128000Y-114109500D01*
X135170334Y-114024833D01*
X135212667Y-113982500D01*
X135297334Y-113940167D01*
X135509000Y-113940167D01*
X135636000Y-113982500D01*
X136482667Y-113982500D02*
X136398001Y-113940167D01*
X136271001Y-113940167D01*
X136144001Y-113982500D01*
X136059334Y-114067167D01*
X136017001Y-114151833D01*
X135974667Y-114321167D01*
X135974667Y-114448167D01*
X136017001Y-114617500D01*
X136059334Y-114702167D01*
X136144001Y-114786833D01*
X136271001Y-114829167D01*
X136355667Y-114829167D01*
X136482667Y-114786833D01*
X136525001Y-114744500D01*
X136525001Y-114448167D01*
X136355667Y-114448167D01*
X137816167Y-114405833D02*
X137816167Y-114829167D01*
X137519834Y-113940167D02*
X137816167Y-114405833D01*
X138112500Y-113940167D01*
X138832167Y-114829167D02*
X138408834Y-114829167D01*
X138408834Y-113940167D01*
X140758334Y-114744500D02*
X140716000Y-114786833D01*
X140589000Y-114829167D01*
X140504334Y-114829167D01*
X140377334Y-114786833D01*
X140292667Y-114702167D01*
X140250334Y-114617500D01*
X140208000Y-114448167D01*
X140208000Y-114321167D01*
X140250334Y-114151833D01*
X140292667Y-114067167D01*
X140377334Y-113982500D01*
X140504334Y-113940167D01*
X140589000Y-113940167D01*
X140716000Y-113982500D01*
X140758334Y-114024833D01*
X141562667Y-114829167D02*
X141139334Y-114829167D01*
X141139334Y-113940167D01*
X142853833Y-113940167D02*
X143446500Y-114829167D01*
X143446500Y-113940167D02*
X142853833Y-114829167D01*
X144208500Y-114829167D02*
X143785167Y-114829167D01*
X143785167Y-113940167D01*
X146134667Y-113940167D02*
X145711334Y-113940167D01*
X145669000Y-114363500D01*
X145711334Y-114321167D01*
X145796000Y-114278833D01*
X146007667Y-114278833D01*
X146092334Y-114321167D01*
X146134667Y-114363500D01*
X146177000Y-114448167D01*
X146177000Y-114659833D01*
X146134667Y-114744500D01*
X146092334Y-114786833D01*
X146007667Y-114829167D01*
X145796000Y-114829167D01*
X145711334Y-114786833D01*
X145669000Y-114744500D01*
X146431001Y-113940167D02*
X146727334Y-114829167D01*
X147023667Y-113940167D01*
X148780500Y-114850333D02*
X148907500Y-114892667D01*
X149119167Y-114892667D01*
X149203834Y-114850333D01*
X149246167Y-114808000D01*
X149288500Y-114723333D01*
X149288500Y-114638667D01*
X149246167Y-114554000D01*
X149203834Y-114511667D01*
X149119167Y-114469333D01*
X148949834Y-114427000D01*
X148865167Y-114384667D01*
X148822834Y-114342333D01*
X148780500Y-114257667D01*
X148780500Y-114173000D01*
X148822834Y-114088333D01*
X148865167Y-114046000D01*
X148949834Y-114003667D01*
X149161500Y-114003667D01*
X149288500Y-114046000D01*
X155511500Y-114427000D02*
X155638500Y-114469333D01*
X155680833Y-114511667D01*
X155723167Y-114596333D01*
X155723167Y-114723333D01*
X155680833Y-114808000D01*
X155638500Y-114850333D01*
X155553833Y-114892667D01*
X155215167Y-114892667D01*
X155215167Y-114003667D01*
X155511500Y-114003667D01*
X155596167Y-114046000D01*
X155638500Y-114088333D01*
X155680833Y-114173000D01*
X155680833Y-114257667D01*
X155638500Y-114342333D01*
X155596167Y-114384667D01*
X155511500Y-114427000D01*
X155215167Y-114427000D01*
X153458333Y-114046000D02*
X153373667Y-114003667D01*
X153246667Y-114003667D01*
X153119667Y-114046000D01*
X153035000Y-114130667D01*
X152992667Y-114215333D01*
X152950333Y-114384667D01*
X152950333Y-114511667D01*
X152992667Y-114681000D01*
X153035000Y-114765667D01*
X153119667Y-114850333D01*
X153246667Y-114892667D01*
X153331333Y-114892667D01*
X153458333Y-114850333D01*
X153500667Y-114808000D01*
X153500667Y-114511667D01*
X153331333Y-114511667D01*
X151341667Y-114892667D02*
X151045333Y-114469333D01*
X150833667Y-114892667D02*
X150833667Y-114003667D01*
X151172333Y-114003667D01*
X151257000Y-114046000D01*
X151299333Y-114088333D01*
X151341667Y-114173000D01*
X151341667Y-114300000D01*
X151299333Y-114384667D01*
X151257000Y-114427000D01*
X151172333Y-114469333D01*
X150833667Y-114469333D01*
D13*
X150095000Y-96333000D02*
X150095000Y-97633000D01*
X150095000Y-94233000D02*
X150095000Y-95533000D01*
X150095000Y-96333000D02*
G75*
G03X150095000Y-95533000I0J400000D01*
G01*
X154795000Y-94233000D02*
X150095000Y-94233000D01*
X154795000Y-97633000D02*
X154795000Y-94233000D01*
X150095000Y-97633000D02*
X154795000Y-97633000D01*
X155003500Y-105283000D02*
X155765500Y-105283000D01*
X140430500Y-96801000D02*
X139180500Y-95551000D01*
X141180500Y-96801000D02*
X140430500Y-96801000D01*
X144430500Y-96801000D02*
X145680500Y-95551000D01*
X143680500Y-96801000D02*
X144430500Y-96801000D01*
X139180500Y-90301000D02*
X139180500Y-95551000D01*
X141180500Y-90301000D02*
X139180500Y-90301000D01*
X145680500Y-90301000D02*
X145680500Y-95551000D01*
X143680500Y-90301000D02*
X145680500Y-90301000D01*
X141541500Y-112077500D02*
X140398500Y-112077500D01*
X143510000Y-111887000D02*
X144272000Y-111887000D01*
X146304000Y-111887000D02*
X147066000Y-111887000D01*
X137668000Y-111887000D02*
X138430000Y-111887000D01*
X136271000Y-111887000D02*
X137033000Y-111887000D01*
X133477000Y-111887000D02*
X134239000Y-111887000D01*
X130683000Y-111887000D02*
X131445000Y-111887000D01*
X128714500Y-112077500D02*
X127571500Y-112077500D01*
X134429500Y-99123500D02*
X134429500Y-100266500D01*
X140081000Y-101028500D02*
X140081000Y-101790500D01*
X128270000Y-97917000D02*
X129032000Y-97917000D01*
X126362000Y-91497000D02*
X126562000Y-91497000D01*
X126362000Y-89097000D02*
X126362000Y-91497000D01*
X126562000Y-89097000D02*
X126362000Y-89097000D01*
X126562000Y-91497000D02*
X128362000Y-91497000D01*
X126562000Y-89097000D02*
X126562000Y-91497000D01*
X128362000Y-89097000D02*
X126562000Y-89097000D01*
X137163000Y-89097000D02*
X136963000Y-89097000D01*
X137163000Y-91497000D02*
X137163000Y-89097000D01*
X136963000Y-91497000D02*
X137163000Y-91497000D01*
X136963000Y-89097000D02*
X135163000Y-89097000D01*
X136963000Y-91497000D02*
X136963000Y-89097000D01*
X135163000Y-91497000D02*
X136963000Y-91497000D01*
X147390000Y-94231000D02*
X147390000Y-94431000D01*
X149790000Y-94231000D02*
X147390000Y-94231000D01*
X149790000Y-94431000D02*
X149790000Y-94231000D01*
X147390000Y-94431000D02*
X147390000Y-96231000D01*
X149790000Y-94431000D02*
X147390000Y-94431000D01*
X149790000Y-96231000D02*
X149790000Y-94431000D01*
X146939000Y-97028000D02*
X146177000Y-97028000D01*
X136271000Y-94488000D02*
X136271000Y-93726000D01*
X156591000Y-89471500D02*
X156337000Y-89217500D01*
X156591000Y-86931500D02*
X156337000Y-87185500D01*
X156591000Y-88836500D02*
X155956000Y-89471500D01*
X156591000Y-87566500D02*
X155956000Y-86931500D01*
X151511000Y-86931500D02*
X156591000Y-86931500D01*
X151511000Y-89471500D02*
X151511000Y-86931500D01*
X156591000Y-89471500D02*
X151511000Y-89471500D01*
X156591000Y-86931500D02*
X156591000Y-89471500D01*
X149479000Y-111887000D02*
X150241000Y-111887000D01*
X153035000Y-111887000D02*
X152273000Y-111887000D01*
X154432000Y-111887000D02*
X153670000Y-111887000D01*
X155829000Y-111887000D02*
X155067000Y-111887000D01*
X151638000Y-111887000D02*
X150876000Y-111887000D01*
X151384000Y-105283000D02*
X152146000Y-105283000D01*
X153162000Y-105283000D02*
X153924000Y-105283000D01*
X149479000Y-105283000D02*
X150241000Y-105283000D01*
X154114500Y-90043000D02*
X154114500Y-90805000D01*
X148336000Y-92583000D02*
X148336000Y-93345000D01*
X139065000Y-111887000D02*
X139827000Y-111887000D01*
X142113000Y-111887000D02*
X142875000Y-111887000D01*
X144907000Y-111887000D02*
X145669000Y-111887000D01*
X134874000Y-111887000D02*
X135636000Y-111887000D01*
X132080000Y-111887000D02*
X132842000Y-111887000D01*
X129286000Y-111887000D02*
X130048000Y-111887000D01*
X126238000Y-111887000D02*
X127000000Y-111887000D01*
X140589000Y-105283000D02*
X141351000Y-105283000D01*
X143510000Y-105283000D02*
X144272000Y-105283000D01*
X146304000Y-105283000D02*
X147066000Y-105283000D01*
X137668000Y-105283000D02*
X138430000Y-105283000D01*
X136271000Y-105283000D02*
X137033000Y-105283000D01*
X134874000Y-105283000D02*
X135636000Y-105283000D01*
X131953000Y-105283000D02*
X132715000Y-105283000D01*
X129159000Y-105283000D02*
X129921000Y-105283000D01*
X134239000Y-102235000D02*
X134239000Y-102997000D01*
X134239000Y-101600000D02*
X134239000Y-100838000D01*
X140081000Y-102425500D02*
X140081000Y-103187500D01*
X126746000Y-97917000D02*
X127508000Y-97917000D01*
X130810000Y-92837000D02*
X130810000Y-92075000D01*
X134366000Y-92075000D02*
X134366000Y-92837000D01*
X133660000Y-95736000D02*
X134160000Y-95736000D01*
X135160000Y-95736000D02*
X134660000Y-95736000D01*
X134160000Y-95736000D02*
G75*
G03X134660000Y-95736000I250000J0D01*
G01*
X132910000Y-95736000D02*
X133660000Y-95736000D01*
X135910000Y-95736000D02*
X135160000Y-95736000D01*
X135910000Y-98736000D02*
X135910000Y-95736000D01*
X132910000Y-98736000D02*
X135910000Y-98736000D01*
X132910000Y-95736000D02*
X132910000Y-98736000D01*
X147701000Y-111887000D02*
X148463000Y-111887000D01*
D14*
G36*
X144274187Y-82534565D02*
X144349628Y-82569866D01*
X144391091Y-82640091D01*
X144406399Y-82753643D01*
X144407063Y-82794452D01*
X144403061Y-82893090D01*
X144387135Y-82954576D01*
X144353402Y-82997877D01*
X144340586Y-83008825D01*
X144253711Y-83049126D01*
X144195443Y-83046922D01*
X144150329Y-83040329D01*
X144126937Y-83052242D01*
X144118131Y-83095185D01*
X144116777Y-83181681D01*
X144116777Y-83185000D01*
X144118020Y-83272961D01*
X144126506Y-83317001D01*
X144149370Y-83329645D01*
X144193746Y-83323417D01*
X144195443Y-83323077D01*
X144287492Y-83329731D01*
X144341617Y-83362009D01*
X144377065Y-83397081D01*
X144397718Y-83441056D01*
X144407676Y-83509479D01*
X144411042Y-83617894D01*
X144411118Y-83625392D01*
X144410876Y-83732745D01*
X144405310Y-83796115D01*
X144390981Y-83827933D01*
X144364452Y-83840628D01*
X144350941Y-83842955D01*
X144317913Y-83843511D01*
X144298369Y-83825600D01*
X144287786Y-83777465D01*
X144281643Y-83687351D01*
X144280385Y-83659510D01*
X144274711Y-83557949D01*
X144265422Y-83500375D01*
X144247411Y-83474348D01*
X144215572Y-83467431D01*
X144201444Y-83467222D01*
X144163893Y-83470658D01*
X144141946Y-83489296D01*
X144130429Y-83535632D01*
X144124167Y-83622159D01*
X144122543Y-83657722D01*
X144116089Y-83759964D01*
X144105370Y-83817774D01*
X144086473Y-83843162D01*
X144060452Y-83848222D01*
X144029218Y-83839997D01*
X144011153Y-83806827D01*
X144001371Y-83735966D01*
X143998241Y-83685944D01*
X143995891Y-83603000D01*
X143994784Y-83476970D01*
X143994925Y-83321195D01*
X143996317Y-83149020D01*
X143998042Y-83025626D01*
X144002506Y-82756580D01*
X144122012Y-82756580D01*
X144127261Y-82847532D01*
X144154572Y-82915572D01*
X144197290Y-82944908D01*
X144201444Y-82945111D01*
X144235404Y-82925997D01*
X144256254Y-82904747D01*
X144276085Y-82851421D01*
X144281789Y-82772069D01*
X144280876Y-82756580D01*
X144270047Y-82685533D01*
X144245623Y-82654933D01*
X144201444Y-82648777D01*
X144154318Y-82656385D01*
X144131535Y-82689852D01*
X144122012Y-82756580D01*
X144002506Y-82756580D01*
X144006307Y-82527586D01*
X144156946Y-82525787D01*
X144274187Y-82534565D01*
X144274187Y-82534565D01*
G37*
X144274187Y-82534565D02*
X144349628Y-82569866D01*
X144391091Y-82640091D01*
X144406399Y-82753643D01*
X144407063Y-82794452D01*
X144403061Y-82893090D01*
X144387135Y-82954576D01*
X144353402Y-82997877D01*
X144340586Y-83008825D01*
X144253711Y-83049126D01*
X144195443Y-83046922D01*
X144150329Y-83040329D01*
X144126937Y-83052242D01*
X144118131Y-83095185D01*
X144116777Y-83181681D01*
X144116777Y-83185000D01*
X144118020Y-83272961D01*
X144126506Y-83317001D01*
X144149370Y-83329645D01*
X144193746Y-83323417D01*
X144195443Y-83323077D01*
X144287492Y-83329731D01*
X144341617Y-83362009D01*
X144377065Y-83397081D01*
X144397718Y-83441056D01*
X144407676Y-83509479D01*
X144411042Y-83617894D01*
X144411118Y-83625392D01*
X144410876Y-83732745D01*
X144405310Y-83796115D01*
X144390981Y-83827933D01*
X144364452Y-83840628D01*
X144350941Y-83842955D01*
X144317913Y-83843511D01*
X144298369Y-83825600D01*
X144287786Y-83777465D01*
X144281643Y-83687351D01*
X144280385Y-83659510D01*
X144274711Y-83557949D01*
X144265422Y-83500375D01*
X144247411Y-83474348D01*
X144215572Y-83467431D01*
X144201444Y-83467222D01*
X144163893Y-83470658D01*
X144141946Y-83489296D01*
X144130429Y-83535632D01*
X144124167Y-83622159D01*
X144122543Y-83657722D01*
X144116089Y-83759964D01*
X144105370Y-83817774D01*
X144086473Y-83843162D01*
X144060452Y-83848222D01*
X144029218Y-83839997D01*
X144011153Y-83806827D01*
X144001371Y-83735966D01*
X143998241Y-83685944D01*
X143995891Y-83603000D01*
X143994784Y-83476970D01*
X143994925Y-83321195D01*
X143996317Y-83149020D01*
X143998042Y-83025626D01*
X144002506Y-82756580D01*
X144122012Y-82756580D01*
X144127261Y-82847532D01*
X144154572Y-82915572D01*
X144197290Y-82944908D01*
X144201444Y-82945111D01*
X144235404Y-82925997D01*
X144256254Y-82904747D01*
X144276085Y-82851421D01*
X144281789Y-82772069D01*
X144280876Y-82756580D01*
X144270047Y-82685533D01*
X144245623Y-82654933D01*
X144201444Y-82648777D01*
X144154318Y-82656385D01*
X144131535Y-82689852D01*
X144122012Y-82756580D01*
X144002506Y-82756580D01*
X144006307Y-82527586D01*
X144156946Y-82525787D01*
X144274187Y-82534565D01*
G36*
X144749857Y-83324178D02*
X144816053Y-83355933D01*
X144848042Y-83384456D01*
X144866919Y-83423894D01*
X144876029Y-83488383D01*
X144878716Y-83592062D01*
X144878777Y-83621125D01*
X144878777Y-83842384D01*
X144722503Y-83844251D01*
X144616615Y-83839442D01*
X144548115Y-83818874D01*
X144510836Y-83790725D01*
X144463600Y-83725852D01*
X144464320Y-83685944D01*
X144601783Y-83685944D01*
X144607958Y-83721472D01*
X144653198Y-83734605D01*
X144679152Y-83735333D01*
X144741751Y-83727158D01*
X144764527Y-83695858D01*
X144765889Y-83677014D01*
X144754765Y-83635337D01*
X144710952Y-83625698D01*
X144688519Y-83627625D01*
X144624176Y-83651718D01*
X144601783Y-83685944D01*
X144464320Y-83685944D01*
X144464746Y-83662361D01*
X144499378Y-83600501D01*
X144549909Y-83555251D01*
X144627959Y-83538478D01*
X144656669Y-83537777D01*
X144729644Y-83533397D01*
X144759294Y-83516212D01*
X144760215Y-83488388D01*
X144734802Y-83452724D01*
X144669929Y-83439440D01*
X144647929Y-83439000D01*
X144559187Y-83430552D01*
X144519208Y-83406958D01*
X144530868Y-83370844D01*
X144552605Y-83352025D01*
X144645831Y-83315882D01*
X144749857Y-83324178D01*
X144749857Y-83324178D01*
G37*
X144749857Y-83324178D02*
X144816053Y-83355933D01*
X144848042Y-83384456D01*
X144866919Y-83423894D01*
X144876029Y-83488383D01*
X144878716Y-83592062D01*
X144878777Y-83621125D01*
X144878777Y-83842384D01*
X144722503Y-83844251D01*
X144616615Y-83839442D01*
X144548115Y-83818874D01*
X144510836Y-83790725D01*
X144463600Y-83725852D01*
X144464320Y-83685944D01*
X144601783Y-83685944D01*
X144607958Y-83721472D01*
X144653198Y-83734605D01*
X144679152Y-83735333D01*
X144741751Y-83727158D01*
X144764527Y-83695858D01*
X144765889Y-83677014D01*
X144754765Y-83635337D01*
X144710952Y-83625698D01*
X144688519Y-83627625D01*
X144624176Y-83651718D01*
X144601783Y-83685944D01*
X144464320Y-83685944D01*
X144464746Y-83662361D01*
X144499378Y-83600501D01*
X144549909Y-83555251D01*
X144627959Y-83538478D01*
X144656669Y-83537777D01*
X144729644Y-83533397D01*
X144759294Y-83516212D01*
X144760215Y-83488388D01*
X144734802Y-83452724D01*
X144669929Y-83439440D01*
X144647929Y-83439000D01*
X144559187Y-83430552D01*
X144519208Y-83406958D01*
X144530868Y-83370844D01*
X144552605Y-83352025D01*
X144645831Y-83315882D01*
X144749857Y-83324178D01*
G36*
X145093947Y-83325246D02*
X145104555Y-83343677D01*
X145117953Y-83358803D01*
X145146522Y-83340526D01*
X145195614Y-83322775D01*
X145258652Y-83323878D01*
X145311478Y-83340548D01*
X145330333Y-83365526D01*
X145305115Y-83409542D01*
X145241329Y-83444869D01*
X145189222Y-83457462D01*
X145151550Y-83466660D01*
X145129498Y-83489969D01*
X145117879Y-83540551D01*
X145111507Y-83631572D01*
X145110321Y-83657722D01*
X145103956Y-83759749D01*
X145093407Y-83817434D01*
X145074639Y-83842881D01*
X145046821Y-83848222D01*
X145021165Y-83843875D01*
X145004970Y-83823873D01*
X144996088Y-83777772D01*
X144992371Y-83695132D01*
X144991666Y-83580111D01*
X144992519Y-83455498D01*
X144996545Y-83376852D01*
X145005950Y-83333701D01*
X145022938Y-83315576D01*
X145048111Y-83312000D01*
X145093947Y-83325246D01*
X145093947Y-83325246D01*
G37*
X145093947Y-83325246D02*
X145104555Y-83343677D01*
X145117953Y-83358803D01*
X145146522Y-83340526D01*
X145195614Y-83322775D01*
X145258652Y-83323878D01*
X145311478Y-83340548D01*
X145330333Y-83365526D01*
X145305115Y-83409542D01*
X145241329Y-83444869D01*
X145189222Y-83457462D01*
X145151550Y-83466660D01*
X145129498Y-83489969D01*
X145117879Y-83540551D01*
X145111507Y-83631572D01*
X145110321Y-83657722D01*
X145103956Y-83759749D01*
X145093407Y-83817434D01*
X145074639Y-83842881D01*
X145046821Y-83848222D01*
X145021165Y-83843875D01*
X145004970Y-83823873D01*
X144996088Y-83777772D01*
X144992371Y-83695132D01*
X144991666Y-83580111D01*
X144992519Y-83455498D01*
X144996545Y-83376852D01*
X145005950Y-83333701D01*
X145022938Y-83315576D01*
X145048111Y-83312000D01*
X145093947Y-83325246D01*
G36*
X145720371Y-83117584D02*
X145736148Y-83133032D01*
X145745959Y-83169832D01*
X145751210Y-83237027D01*
X145753310Y-83343661D01*
X145753666Y-83477337D01*
X145753666Y-83840230D01*
X145584811Y-83842624D01*
X145485159Y-83840777D01*
X145424771Y-83828567D01*
X145386751Y-83801308D01*
X145373145Y-83783896D01*
X145340609Y-83702528D01*
X145328892Y-83596531D01*
X145329350Y-83590593D01*
X145443222Y-83590593D01*
X145459403Y-83673013D01*
X145499416Y-83721831D01*
X145550464Y-83731423D01*
X145599751Y-83696163D01*
X145616742Y-83666858D01*
X145634381Y-83586139D01*
X145622831Y-83507047D01*
X145586645Y-83451960D01*
X145571282Y-83443312D01*
X145516961Y-83448229D01*
X145470446Y-83494250D01*
X145444856Y-83566282D01*
X145443222Y-83590593D01*
X145329350Y-83590593D01*
X145337266Y-83488082D01*
X145365004Y-83399360D01*
X145386777Y-83368444D01*
X145462031Y-83318791D01*
X145543101Y-83322226D01*
X145586188Y-83341215D01*
X145619529Y-83354007D01*
X145635556Y-83337689D01*
X145640504Y-83280982D01*
X145640777Y-83242437D01*
X145644411Y-83162693D01*
X145659525Y-83124828D01*
X145692439Y-83114512D01*
X145697222Y-83114444D01*
X145720371Y-83117584D01*
X145720371Y-83117584D01*
G37*
X145720371Y-83117584D02*
X145736148Y-83133032D01*
X145745959Y-83169832D01*
X145751210Y-83237027D01*
X145753310Y-83343661D01*
X145753666Y-83477337D01*
X145753666Y-83840230D01*
X145584811Y-83842624D01*
X145485159Y-83840777D01*
X145424771Y-83828567D01*
X145386751Y-83801308D01*
X145373145Y-83783896D01*
X145340609Y-83702528D01*
X145328892Y-83596531D01*
X145329350Y-83590593D01*
X145443222Y-83590593D01*
X145459403Y-83673013D01*
X145499416Y-83721831D01*
X145550464Y-83731423D01*
X145599751Y-83696163D01*
X145616742Y-83666858D01*
X145634381Y-83586139D01*
X145622831Y-83507047D01*
X145586645Y-83451960D01*
X145571282Y-83443312D01*
X145516961Y-83448229D01*
X145470446Y-83494250D01*
X145444856Y-83566282D01*
X145443222Y-83590593D01*
X145329350Y-83590593D01*
X145337266Y-83488082D01*
X145365004Y-83399360D01*
X145386777Y-83368444D01*
X145462031Y-83318791D01*
X145543101Y-83322226D01*
X145586188Y-83341215D01*
X145619529Y-83354007D01*
X145635556Y-83337689D01*
X145640504Y-83280982D01*
X145640777Y-83242437D01*
X145644411Y-83162693D01*
X145659525Y-83124828D01*
X145692439Y-83114512D01*
X145697222Y-83114444D01*
X145720371Y-83117584D01*
G36*
X146505202Y-83318572D02*
X146515666Y-83327604D01*
X146508071Y-83359759D01*
X146487688Y-83433144D01*
X146458121Y-83534979D01*
X146439704Y-83596970D01*
X146402187Y-83716942D01*
X146373486Y-83791658D01*
X146348490Y-83830559D01*
X146322086Y-83843087D01*
X146306820Y-83842421D01*
X146266343Y-83820085D01*
X146231532Y-83759609D01*
X146204061Y-83678888D01*
X146158224Y-83523666D01*
X146106013Y-83685944D01*
X146066518Y-83790042D01*
X146029316Y-83843442D01*
X145991726Y-83845100D01*
X145951069Y-83793973D01*
X145904663Y-83689019D01*
X145871197Y-83594577D01*
X145833403Y-83471869D01*
X145812270Y-83380931D01*
X145809660Y-83330502D01*
X145813582Y-83323965D01*
X145866362Y-83317289D01*
X145912337Y-83366281D01*
X145951141Y-83470533D01*
X145953284Y-83478738D01*
X145976341Y-83555453D01*
X145996599Y-83600438D01*
X146005817Y-83605834D01*
X146023499Y-83571977D01*
X146050644Y-83503258D01*
X146066547Y-83458170D01*
X146100221Y-83380743D01*
X146135320Y-83333478D01*
X146151097Y-83326111D01*
X146182074Y-83351323D01*
X146220096Y-83418683D01*
X146249234Y-83490667D01*
X146307590Y-83655222D01*
X146355302Y-83483611D01*
X146386232Y-83385791D01*
X146414638Y-83332602D01*
X146447222Y-83312990D01*
X146459340Y-83312000D01*
X146505202Y-83318572D01*
X146505202Y-83318572D01*
G37*
X146505202Y-83318572D02*
X146515666Y-83327604D01*
X146508071Y-83359759D01*
X146487688Y-83433144D01*
X146458121Y-83534979D01*
X146439704Y-83596970D01*
X146402187Y-83716942D01*
X146373486Y-83791658D01*
X146348490Y-83830559D01*
X146322086Y-83843087D01*
X146306820Y-83842421D01*
X146266343Y-83820085D01*
X146231532Y-83759609D01*
X146204061Y-83678888D01*
X146158224Y-83523666D01*
X146106013Y-83685944D01*
X146066518Y-83790042D01*
X146029316Y-83843442D01*
X145991726Y-83845100D01*
X145951069Y-83793973D01*
X145904663Y-83689019D01*
X145871197Y-83594577D01*
X145833403Y-83471869D01*
X145812270Y-83380931D01*
X145809660Y-83330502D01*
X145813582Y-83323965D01*
X145866362Y-83317289D01*
X145912337Y-83366281D01*
X145951141Y-83470533D01*
X145953284Y-83478738D01*
X145976341Y-83555453D01*
X145996599Y-83600438D01*
X146005817Y-83605834D01*
X146023499Y-83571977D01*
X146050644Y-83503258D01*
X146066547Y-83458170D01*
X146100221Y-83380743D01*
X146135320Y-83333478D01*
X146151097Y-83326111D01*
X146182074Y-83351323D01*
X146220096Y-83418683D01*
X146249234Y-83490667D01*
X146307590Y-83655222D01*
X146355302Y-83483611D01*
X146386232Y-83385791D01*
X146414638Y-83332602D01*
X146447222Y-83312990D01*
X146459340Y-83312000D01*
X146505202Y-83318572D01*
G36*
X146808897Y-83331445D02*
X146884099Y-83366055D01*
X146910434Y-83396025D01*
X146924943Y-83450535D01*
X146935226Y-83541472D01*
X146939000Y-83645777D01*
X146939000Y-83842155D01*
X146773405Y-83844486D01*
X146665970Y-83840785D01*
X146598693Y-83823592D01*
X146561738Y-83795908D01*
X146517244Y-83715606D01*
X146518055Y-83704253D01*
X146640930Y-83704253D01*
X146641716Y-83705573D01*
X146684993Y-83730148D01*
X146747321Y-83727151D01*
X146801710Y-83701666D01*
X146820883Y-83671833D01*
X146811867Y-83632892D01*
X146764680Y-83622876D01*
X146689148Y-83635220D01*
X146643551Y-83665270D01*
X146640930Y-83704253D01*
X146518055Y-83704253D01*
X146522667Y-83639716D01*
X146571799Y-83578674D01*
X146658434Y-83542916D01*
X146715238Y-83537777D01*
X146793360Y-83530359D01*
X146824661Y-83506120D01*
X146826111Y-83495982D01*
X146800580Y-83458117D01*
X146732367Y-83435837D01*
X146634042Y-83433183D01*
X146631412Y-83433394D01*
X146570057Y-83424464D01*
X146553658Y-83393733D01*
X146584157Y-83355952D01*
X146618912Y-83338523D01*
X146713482Y-83320883D01*
X146808897Y-83331445D01*
X146808897Y-83331445D01*
G37*
X146808897Y-83331445D02*
X146884099Y-83366055D01*
X146910434Y-83396025D01*
X146924943Y-83450535D01*
X146935226Y-83541472D01*
X146939000Y-83645777D01*
X146939000Y-83842155D01*
X146773405Y-83844486D01*
X146665970Y-83840785D01*
X146598693Y-83823592D01*
X146561738Y-83795908D01*
X146517244Y-83715606D01*
X146518055Y-83704253D01*
X146640930Y-83704253D01*
X146641716Y-83705573D01*
X146684993Y-83730148D01*
X146747321Y-83727151D01*
X146801710Y-83701666D01*
X146820883Y-83671833D01*
X146811867Y-83632892D01*
X146764680Y-83622876D01*
X146689148Y-83635220D01*
X146643551Y-83665270D01*
X146640930Y-83704253D01*
X146518055Y-83704253D01*
X146522667Y-83639716D01*
X146571799Y-83578674D01*
X146658434Y-83542916D01*
X146715238Y-83537777D01*
X146793360Y-83530359D01*
X146824661Y-83506120D01*
X146826111Y-83495982D01*
X146800580Y-83458117D01*
X146732367Y-83435837D01*
X146634042Y-83433183D01*
X146631412Y-83433394D01*
X146570057Y-83424464D01*
X146553658Y-83393733D01*
X146584157Y-83355952D01*
X146618912Y-83338523D01*
X146713482Y-83320883D01*
X146808897Y-83331445D01*
G36*
X147271648Y-83323458D02*
X147341610Y-83332881D01*
X147362806Y-83340514D01*
X147383475Y-83374611D01*
X147361819Y-83412489D01*
X147309805Y-83442488D01*
X147247278Y-83453111D01*
X147204863Y-83455520D01*
X147180279Y-83471100D01*
X147167721Y-83512377D01*
X147161385Y-83591877D01*
X147159011Y-83643611D01*
X147152857Y-83745449D01*
X147142423Y-83803888D01*
X147122943Y-83831972D01*
X147089655Y-83842742D01*
X147086079Y-83843271D01*
X147055987Y-83845427D01*
X147037490Y-83834634D01*
X147028297Y-83800601D01*
X147026116Y-83733036D01*
X147028656Y-83621647D01*
X147029635Y-83589780D01*
X147037777Y-83327128D01*
X147181176Y-83322007D01*
X147271648Y-83323458D01*
X147271648Y-83323458D01*
G37*
X147271648Y-83323458D02*
X147341610Y-83332881D01*
X147362806Y-83340514D01*
X147383475Y-83374611D01*
X147361819Y-83412489D01*
X147309805Y-83442488D01*
X147247278Y-83453111D01*
X147204863Y-83455520D01*
X147180279Y-83471100D01*
X147167721Y-83512377D01*
X147161385Y-83591877D01*
X147159011Y-83643611D01*
X147152857Y-83745449D01*
X147142423Y-83803888D01*
X147122943Y-83831972D01*
X147089655Y-83842742D01*
X147086079Y-83843271D01*
X147055987Y-83845427D01*
X147037490Y-83834634D01*
X147028297Y-83800601D01*
X147026116Y-83733036D01*
X147028656Y-83621647D01*
X147029635Y-83589780D01*
X147037777Y-83327128D01*
X147181176Y-83322007D01*
X147271648Y-83323458D01*
G36*
X147673702Y-83337750D02*
X147754069Y-83405313D01*
X147804066Y-83500154D01*
X147813889Y-83567327D01*
X147806857Y-83599069D01*
X147776949Y-83615699D01*
X147710946Y-83621849D01*
X147656597Y-83622444D01*
X147566557Y-83624869D01*
X147520872Y-83634819D01*
X147507563Y-83656308D01*
X147509144Y-83671833D01*
X147531257Y-83705326D01*
X147588602Y-83719637D01*
X147635606Y-83721222D01*
X147731413Y-83728918D01*
X147777034Y-83750881D01*
X147770349Y-83785423D01*
X147744950Y-83808196D01*
X147663614Y-83839984D01*
X147563168Y-83844746D01*
X147474661Y-83821338D01*
X147469277Y-83818361D01*
X147424534Y-83765572D01*
X147391618Y-83678422D01*
X147376642Y-83578705D01*
X147381509Y-83505397D01*
X147395228Y-83475129D01*
X147504616Y-83475129D01*
X147510292Y-83510661D01*
X147556189Y-83534677D01*
X147588111Y-83537777D01*
X147653504Y-83525969D01*
X147672777Y-83498463D01*
X147649263Y-83455086D01*
X147594081Y-83435673D01*
X147545777Y-83442905D01*
X147504616Y-83475129D01*
X147395228Y-83475129D01*
X147415074Y-83431348D01*
X147475078Y-83363155D01*
X147542996Y-83319194D01*
X147576478Y-83312000D01*
X147673702Y-83337750D01*
X147673702Y-83337750D01*
G37*
X147673702Y-83337750D02*
X147754069Y-83405313D01*
X147804066Y-83500154D01*
X147813889Y-83567327D01*
X147806857Y-83599069D01*
X147776949Y-83615699D01*
X147710946Y-83621849D01*
X147656597Y-83622444D01*
X147566557Y-83624869D01*
X147520872Y-83634819D01*
X147507563Y-83656308D01*
X147509144Y-83671833D01*
X147531257Y-83705326D01*
X147588602Y-83719637D01*
X147635606Y-83721222D01*
X147731413Y-83728918D01*
X147777034Y-83750881D01*
X147770349Y-83785423D01*
X147744950Y-83808196D01*
X147663614Y-83839984D01*
X147563168Y-83844746D01*
X147474661Y-83821338D01*
X147469277Y-83818361D01*
X147424534Y-83765572D01*
X147391618Y-83678422D01*
X147376642Y-83578705D01*
X147381509Y-83505397D01*
X147395228Y-83475129D01*
X147504616Y-83475129D01*
X147510292Y-83510661D01*
X147556189Y-83534677D01*
X147588111Y-83537777D01*
X147653504Y-83525969D01*
X147672777Y-83498463D01*
X147649263Y-83455086D01*
X147594081Y-83435673D01*
X147545777Y-83442905D01*
X147504616Y-83475129D01*
X147395228Y-83475129D01*
X147415074Y-83431348D01*
X147475078Y-83363155D01*
X147542996Y-83319194D01*
X147576478Y-83312000D01*
X147673702Y-83337750D01*
G36*
X143823210Y-82560857D02*
X143884434Y-82638253D01*
X143916602Y-82748592D01*
X143919222Y-82794977D01*
X143898815Y-82913651D01*
X143844173Y-82999473D01*
X143765159Y-83046662D01*
X143671638Y-83049435D01*
X143573476Y-83002011D01*
X143570250Y-82999507D01*
X143524971Y-82955052D01*
X143502757Y-82901003D01*
X143496039Y-82816316D01*
X143495889Y-82792760D01*
X143496796Y-82777378D01*
X143613612Y-82777378D01*
X143620723Y-82864698D01*
X143652788Y-82907494D01*
X143717144Y-82928999D01*
X143770621Y-82902326D01*
X143802194Y-82835740D01*
X143806333Y-82792351D01*
X143789518Y-82701689D01*
X143748310Y-82651433D01*
X143696562Y-82642660D01*
X143648128Y-82676446D01*
X143616861Y-82753869D01*
X143613612Y-82777378D01*
X143496796Y-82777378D01*
X143501764Y-82693212D01*
X143523784Y-82628152D01*
X143561207Y-82583141D01*
X143651997Y-82527621D01*
X143742531Y-82522087D01*
X143823210Y-82560857D01*
X143823210Y-82560857D01*
G37*
X143823210Y-82560857D02*
X143884434Y-82638253D01*
X143916602Y-82748592D01*
X143919222Y-82794977D01*
X143898815Y-82913651D01*
X143844173Y-82999473D01*
X143765159Y-83046662D01*
X143671638Y-83049435D01*
X143573476Y-83002011D01*
X143570250Y-82999507D01*
X143524971Y-82955052D01*
X143502757Y-82901003D01*
X143496039Y-82816316D01*
X143495889Y-82792760D01*
X143496796Y-82777378D01*
X143613612Y-82777378D01*
X143620723Y-82864698D01*
X143652788Y-82907494D01*
X143717144Y-82928999D01*
X143770621Y-82902326D01*
X143802194Y-82835740D01*
X143806333Y-82792351D01*
X143789518Y-82701689D01*
X143748310Y-82651433D01*
X143696562Y-82642660D01*
X143648128Y-82676446D01*
X143616861Y-82753869D01*
X143613612Y-82777378D01*
X143496796Y-82777378D01*
X143501764Y-82693212D01*
X143523784Y-82628152D01*
X143561207Y-82583141D01*
X143651997Y-82527621D01*
X143742531Y-82522087D01*
X143823210Y-82560857D01*
G36*
X144785517Y-82548437D02*
X144854610Y-82614469D01*
X144895742Y-82716718D01*
X144897440Y-82726388D01*
X144914385Y-82832222D01*
X144755470Y-82832222D01*
X144659301Y-82836201D01*
X144609553Y-82849760D01*
X144596555Y-82872653D01*
X144620151Y-82913931D01*
X144676251Y-82934328D01*
X144742819Y-82927510D01*
X144760499Y-82919773D01*
X144819144Y-82907413D01*
X144846232Y-82923854D01*
X144875419Y-82964995D01*
X144859214Y-82996612D01*
X144806894Y-83025247D01*
X144705406Y-83055288D01*
X144618988Y-83038849D01*
X144560195Y-83001211D01*
X144489797Y-82912079D01*
X144464437Y-82797102D01*
X144482556Y-82684055D01*
X144603611Y-82684055D01*
X144618297Y-82710818D01*
X144681222Y-82719333D01*
X144745915Y-82710014D01*
X144758833Y-82684055D01*
X144724816Y-82656507D01*
X144681222Y-82648777D01*
X144625364Y-82662081D01*
X144603611Y-82684055D01*
X144482556Y-82684055D01*
X144483706Y-82676881D01*
X144537560Y-82582842D01*
X144614285Y-82531103D01*
X144701173Y-82520141D01*
X144785517Y-82548437D01*
X144785517Y-82548437D01*
G37*
X144785517Y-82548437D02*
X144854610Y-82614469D01*
X144895742Y-82716718D01*
X144897440Y-82726388D01*
X144914385Y-82832222D01*
X144755470Y-82832222D01*
X144659301Y-82836201D01*
X144609553Y-82849760D01*
X144596555Y-82872653D01*
X144620151Y-82913931D01*
X144676251Y-82934328D01*
X144742819Y-82927510D01*
X144760499Y-82919773D01*
X144819144Y-82907413D01*
X144846232Y-82923854D01*
X144875419Y-82964995D01*
X144859214Y-82996612D01*
X144806894Y-83025247D01*
X144705406Y-83055288D01*
X144618988Y-83038849D01*
X144560195Y-83001211D01*
X144489797Y-82912079D01*
X144464437Y-82797102D01*
X144482556Y-82684055D01*
X144603611Y-82684055D01*
X144618297Y-82710818D01*
X144681222Y-82719333D01*
X144745915Y-82710014D01*
X144758833Y-82684055D01*
X144724816Y-82656507D01*
X144681222Y-82648777D01*
X144625364Y-82662081D01*
X144603611Y-82684055D01*
X144482556Y-82684055D01*
X144483706Y-82676881D01*
X144537560Y-82582842D01*
X144614285Y-82531103D01*
X144701173Y-82520141D01*
X144785517Y-82548437D01*
G36*
X145236708Y-82534095D02*
X145313817Y-82561358D01*
X145359633Y-82618376D01*
X145381499Y-82713948D01*
X145386777Y-82846333D01*
X145385390Y-82954677D01*
X145379205Y-83018257D01*
X145365185Y-83048725D01*
X145340293Y-83057734D01*
X145331622Y-83058000D01*
X145301600Y-83051351D01*
X145283641Y-83023286D01*
X145273622Y-82961624D01*
X145268122Y-82870446D01*
X145259342Y-82759831D01*
X145242830Y-82692639D01*
X145215094Y-82656006D01*
X145208736Y-82651724D01*
X145153843Y-82641746D01*
X145111862Y-82682786D01*
X145085221Y-82770395D01*
X145076333Y-82894060D01*
X145074137Y-82986795D01*
X145064545Y-83036243D01*
X145043052Y-83055488D01*
X145019889Y-83058000D01*
X144993505Y-83053902D01*
X144976919Y-83034581D01*
X144967881Y-82989498D01*
X144964141Y-82908112D01*
X144963444Y-82793601D01*
X144963444Y-82529202D01*
X145120963Y-82527786D01*
X145236708Y-82534095D01*
X145236708Y-82534095D01*
G37*
X145236708Y-82534095D02*
X145313817Y-82561358D01*
X145359633Y-82618376D01*
X145381499Y-82713948D01*
X145386777Y-82846333D01*
X145385390Y-82954677D01*
X145379205Y-83018257D01*
X145365185Y-83048725D01*
X145340293Y-83057734D01*
X145331622Y-83058000D01*
X145301600Y-83051351D01*
X145283641Y-83023286D01*
X145273622Y-82961624D01*
X145268122Y-82870446D01*
X145259342Y-82759831D01*
X145242830Y-82692639D01*
X145215094Y-82656006D01*
X145208736Y-82651724D01*
X145153843Y-82641746D01*
X145111862Y-82682786D01*
X145085221Y-82770395D01*
X145076333Y-82894060D01*
X145074137Y-82986795D01*
X145064545Y-83036243D01*
X145043052Y-83055488D01*
X145019889Y-83058000D01*
X144993505Y-83053902D01*
X144976919Y-83034581D01*
X144967881Y-82989498D01*
X144964141Y-82908112D01*
X144963444Y-82793601D01*
X144963444Y-82529202D01*
X145120963Y-82527786D01*
X145236708Y-82534095D01*
G36*
X145944390Y-82528460D02*
X146020229Y-82554429D01*
X146069073Y-82589696D01*
X146069338Y-82621860D01*
X146028759Y-82643955D01*
X145955068Y-82649016D01*
X145919704Y-82644977D01*
X145847583Y-82637692D01*
X145815836Y-82649264D01*
X145810111Y-82673392D01*
X145832427Y-82709880D01*
X145888498Y-82719333D01*
X145988895Y-82740179D01*
X146060880Y-82795865D01*
X146091948Y-82876118D01*
X146092333Y-82886811D01*
X146079044Y-82957083D01*
X146052518Y-82999465D01*
X145968602Y-83037648D01*
X145860812Y-83045566D01*
X145753509Y-83022266D01*
X145730800Y-83012057D01*
X145672169Y-82978018D01*
X145658144Y-82952029D01*
X145678119Y-82923896D01*
X145724815Y-82898130D01*
X145776741Y-82914133D01*
X145857153Y-82941213D01*
X145928680Y-82939192D01*
X145967283Y-82913733D01*
X145965827Y-82875645D01*
X145919986Y-82846279D01*
X145841799Y-82832848D01*
X145831928Y-82832654D01*
X145751303Y-82807988D01*
X145698635Y-82746316D01*
X145685341Y-82664601D01*
X145694310Y-82628214D01*
X145748538Y-82556896D01*
X145835773Y-82522768D01*
X145944390Y-82528460D01*
X145944390Y-82528460D01*
G37*
X145944390Y-82528460D02*
X146020229Y-82554429D01*
X146069073Y-82589696D01*
X146069338Y-82621860D01*
X146028759Y-82643955D01*
X145955068Y-82649016D01*
X145919704Y-82644977D01*
X145847583Y-82637692D01*
X145815836Y-82649264D01*
X145810111Y-82673392D01*
X145832427Y-82709880D01*
X145888498Y-82719333D01*
X145988895Y-82740179D01*
X146060880Y-82795865D01*
X146091948Y-82876118D01*
X146092333Y-82886811D01*
X146079044Y-82957083D01*
X146052518Y-82999465D01*
X145968602Y-83037648D01*
X145860812Y-83045566D01*
X145753509Y-83022266D01*
X145730800Y-83012057D01*
X145672169Y-82978018D01*
X145658144Y-82952029D01*
X145678119Y-82923896D01*
X145724815Y-82898130D01*
X145776741Y-82914133D01*
X145857153Y-82941213D01*
X145928680Y-82939192D01*
X145967283Y-82913733D01*
X145965827Y-82875645D01*
X145919986Y-82846279D01*
X145841799Y-82832848D01*
X145831928Y-82832654D01*
X145751303Y-82807988D01*
X145698635Y-82746316D01*
X145685341Y-82664601D01*
X145694310Y-82628214D01*
X145748538Y-82556896D01*
X145835773Y-82522768D01*
X145944390Y-82528460D01*
G36*
X146449856Y-82546753D02*
X146524972Y-82616335D01*
X146566249Y-82722504D01*
X146572111Y-82789888D01*
X146552112Y-82910602D01*
X146498398Y-82998044D01*
X146420390Y-83046556D01*
X146327511Y-83050477D01*
X146229185Y-83004148D01*
X146223139Y-82999507D01*
X146178599Y-82956162D01*
X146156307Y-82903838D01*
X146149081Y-82822090D01*
X146148833Y-82794130D01*
X146261666Y-82794130D01*
X146279046Y-82874470D01*
X146321462Y-82920934D01*
X146374334Y-82929862D01*
X146423078Y-82897593D01*
X146448936Y-82841139D01*
X146450783Y-82760927D01*
X146435187Y-82703141D01*
X146390809Y-82646195D01*
X146340579Y-82637334D01*
X146295520Y-82670778D01*
X146266652Y-82740746D01*
X146261666Y-82794130D01*
X146148833Y-82794130D01*
X146148777Y-82787840D01*
X146164589Y-82655849D01*
X146212763Y-82569378D01*
X146294407Y-82526944D01*
X146347616Y-82521777D01*
X146449856Y-82546753D01*
X146449856Y-82546753D01*
G37*
X146449856Y-82546753D02*
X146524972Y-82616335D01*
X146566249Y-82722504D01*
X146572111Y-82789888D01*
X146552112Y-82910602D01*
X146498398Y-82998044D01*
X146420390Y-83046556D01*
X146327511Y-83050477D01*
X146229185Y-83004148D01*
X146223139Y-82999507D01*
X146178599Y-82956162D01*
X146156307Y-82903838D01*
X146149081Y-82822090D01*
X146148833Y-82794130D01*
X146261666Y-82794130D01*
X146279046Y-82874470D01*
X146321462Y-82920934D01*
X146374334Y-82929862D01*
X146423078Y-82897593D01*
X146448936Y-82841139D01*
X146450783Y-82760927D01*
X146435187Y-82703141D01*
X146390809Y-82646195D01*
X146340579Y-82637334D01*
X146295520Y-82670778D01*
X146266652Y-82740746D01*
X146261666Y-82794130D01*
X146148833Y-82794130D01*
X146148777Y-82787840D01*
X146164589Y-82655849D01*
X146212763Y-82569378D01*
X146294407Y-82526944D01*
X146347616Y-82521777D01*
X146449856Y-82546753D01*
G36*
X147021809Y-82525869D02*
X147038391Y-82545165D01*
X147047435Y-82590198D01*
X147051185Y-82671497D01*
X147051889Y-82786632D01*
X147051889Y-83051487D01*
X146909882Y-83051487D01*
X146778465Y-83036353D01*
X146705271Y-83000812D01*
X146672183Y-82966722D01*
X146653195Y-82921244D01*
X146644595Y-82849094D01*
X146642666Y-82743013D01*
X146643947Y-82636174D01*
X146650237Y-82573259D01*
X146665210Y-82541764D01*
X146692540Y-82529184D01*
X146706166Y-82526870D01*
X146739364Y-82525582D01*
X146758368Y-82541326D01*
X146767123Y-82585783D01*
X146769570Y-82670636D01*
X146769666Y-82715018D01*
X146774417Y-82834526D01*
X146791143Y-82904293D01*
X146823554Y-82930411D01*
X146875357Y-82918974D01*
X146889611Y-82912082D01*
X146917735Y-82885524D01*
X146933048Y-82833586D01*
X146938710Y-82742966D01*
X146939000Y-82704229D01*
X146940778Y-82605277D01*
X146948690Y-82550222D01*
X146966605Y-82526563D01*
X146995444Y-82521777D01*
X147021809Y-82525869D01*
X147021809Y-82525869D01*
G37*
X147021809Y-82525869D02*
X147038391Y-82545165D01*
X147047435Y-82590198D01*
X147051185Y-82671497D01*
X147051889Y-82786632D01*
X147051889Y-83051487D01*
X146909882Y-83051487D01*
X146778465Y-83036353D01*
X146705271Y-83000812D01*
X146672183Y-82966722D01*
X146653195Y-82921244D01*
X146644595Y-82849094D01*
X146642666Y-82743013D01*
X146643947Y-82636174D01*
X146650237Y-82573259D01*
X146665210Y-82541764D01*
X146692540Y-82529184D01*
X146706166Y-82526870D01*
X146739364Y-82525582D01*
X146758368Y-82541326D01*
X146767123Y-82585783D01*
X146769570Y-82670636D01*
X146769666Y-82715018D01*
X146774417Y-82834526D01*
X146791143Y-82904293D01*
X146823554Y-82930411D01*
X146875357Y-82918974D01*
X146889611Y-82912082D01*
X146917735Y-82885524D01*
X146933048Y-82833586D01*
X146938710Y-82742966D01*
X146939000Y-82704229D01*
X146940778Y-82605277D01*
X146948690Y-82550222D01*
X146966605Y-82526563D01*
X146995444Y-82521777D01*
X147021809Y-82525869D01*
G36*
X147408406Y-82531608D02*
X147471960Y-82542865D01*
X147491530Y-82553555D01*
X147491301Y-82596013D01*
X147457654Y-82633897D01*
X147411211Y-82646331D01*
X147402243Y-82643942D01*
X147341962Y-82643490D01*
X147301348Y-82695685D01*
X147280574Y-82800204D01*
X147277666Y-82878011D01*
X147275840Y-82976152D01*
X147267733Y-83030473D01*
X147249401Y-83053550D01*
X147221222Y-83058000D01*
X147194838Y-83053902D01*
X147178252Y-83034581D01*
X147169214Y-82989498D01*
X147165474Y-82908112D01*
X147164777Y-82793601D01*
X147164777Y-82529202D01*
X147319768Y-82527809D01*
X147408406Y-82531608D01*
X147408406Y-82531608D01*
G37*
X147408406Y-82531608D02*
X147471960Y-82542865D01*
X147491530Y-82553555D01*
X147491301Y-82596013D01*
X147457654Y-82633897D01*
X147411211Y-82646331D01*
X147402243Y-82643942D01*
X147341962Y-82643490D01*
X147301348Y-82695685D01*
X147280574Y-82800204D01*
X147277666Y-82878011D01*
X147275840Y-82976152D01*
X147267733Y-83030473D01*
X147249401Y-83053550D01*
X147221222Y-83058000D01*
X147194838Y-83053902D01*
X147178252Y-83034581D01*
X147169214Y-82989498D01*
X147165474Y-82908112D01*
X147164777Y-82793601D01*
X147164777Y-82529202D01*
X147319768Y-82527809D01*
X147408406Y-82531608D01*
G36*
X147805206Y-82534176D02*
X147856818Y-82561057D01*
X147892699Y-82597645D01*
X147882028Y-82634135D01*
X147873916Y-82644459D01*
X147834819Y-82673136D01*
X147786257Y-82656685D01*
X147783162Y-82654775D01*
X147715664Y-82637283D01*
X147661110Y-82669677D01*
X147627418Y-82745624D01*
X147621795Y-82783845D01*
X147632748Y-82872129D01*
X147676994Y-82924150D01*
X147744973Y-82932189D01*
X147786250Y-82916576D01*
X147851209Y-82899769D01*
X147891475Y-82924629D01*
X147898555Y-82956357D01*
X147874347Y-82993475D01*
X147815940Y-83029539D01*
X147744659Y-83053346D01*
X147706727Y-83057141D01*
X147642348Y-83042490D01*
X147606633Y-83026037D01*
X147548153Y-82964927D01*
X147506118Y-82871476D01*
X147489259Y-82769260D01*
X147493388Y-82720226D01*
X147536618Y-82624970D01*
X147613252Y-82557719D01*
X147707908Y-82525209D01*
X147805206Y-82534176D01*
X147805206Y-82534176D01*
G37*
X147805206Y-82534176D02*
X147856818Y-82561057D01*
X147892699Y-82597645D01*
X147882028Y-82634135D01*
X147873916Y-82644459D01*
X147834819Y-82673136D01*
X147786257Y-82656685D01*
X147783162Y-82654775D01*
X147715664Y-82637283D01*
X147661110Y-82669677D01*
X147627418Y-82745624D01*
X147621795Y-82783845D01*
X147632748Y-82872129D01*
X147676994Y-82924150D01*
X147744973Y-82932189D01*
X147786250Y-82916576D01*
X147851209Y-82899769D01*
X147891475Y-82924629D01*
X147898555Y-82956357D01*
X147874347Y-82993475D01*
X147815940Y-83029539D01*
X147744659Y-83053346D01*
X147706727Y-83057141D01*
X147642348Y-83042490D01*
X147606633Y-83026037D01*
X147548153Y-82964927D01*
X147506118Y-82871476D01*
X147489259Y-82769260D01*
X147493388Y-82720226D01*
X147536618Y-82624970D01*
X147613252Y-82557719D01*
X147707908Y-82525209D01*
X147805206Y-82534176D01*
G36*
X148237527Y-82547362D02*
X148309069Y-82614176D01*
X148347203Y-82707308D01*
X148350111Y-82742318D01*
X148350111Y-82832222D01*
X148192537Y-82832222D01*
X148092838Y-82838917D01*
X148047952Y-82859018D01*
X148057855Y-82892552D01*
X148104749Y-82928777D01*
X148162574Y-82942771D01*
X148211114Y-82922118D01*
X148265109Y-82899749D01*
X148309170Y-82918111D01*
X148312886Y-82921129D01*
X148338116Y-82951301D01*
X148322962Y-82981682D01*
X148293437Y-83007415D01*
X148197190Y-83052591D01*
X148094063Y-83047546D01*
X148000782Y-82993333D01*
X147996050Y-82988727D01*
X147939453Y-82899655D01*
X147921946Y-82796809D01*
X147937277Y-82704919D01*
X148052414Y-82704919D01*
X148075271Y-82716978D01*
X148134103Y-82719333D01*
X148201137Y-82713998D01*
X148222682Y-82694599D01*
X148219206Y-82677000D01*
X148180537Y-82640530D01*
X148152991Y-82634666D01*
X148093411Y-82655040D01*
X148067889Y-82677000D01*
X148052414Y-82704919D01*
X147937277Y-82704919D01*
X147939116Y-82693901D01*
X147986547Y-82604646D01*
X148059827Y-82542757D01*
X148146353Y-82521777D01*
X148237527Y-82547362D01*
X148237527Y-82547362D01*
G37*
X148237527Y-82547362D02*
X148309069Y-82614176D01*
X148347203Y-82707308D01*
X148350111Y-82742318D01*
X148350111Y-82832222D01*
X148192537Y-82832222D01*
X148092838Y-82838917D01*
X148047952Y-82859018D01*
X148057855Y-82892552D01*
X148104749Y-82928777D01*
X148162574Y-82942771D01*
X148211114Y-82922118D01*
X148265109Y-82899749D01*
X148309170Y-82918111D01*
X148312886Y-82921129D01*
X148338116Y-82951301D01*
X148322962Y-82981682D01*
X148293437Y-83007415D01*
X148197190Y-83052591D01*
X148094063Y-83047546D01*
X148000782Y-82993333D01*
X147996050Y-82988727D01*
X147939453Y-82899655D01*
X147921946Y-82796809D01*
X147937277Y-82704919D01*
X148052414Y-82704919D01*
X148075271Y-82716978D01*
X148134103Y-82719333D01*
X148201137Y-82713998D01*
X148222682Y-82694599D01*
X148219206Y-82677000D01*
X148180537Y-82640530D01*
X148152991Y-82634666D01*
X148093411Y-82655040D01*
X148067889Y-82677000D01*
X148052414Y-82704919D01*
X147937277Y-82704919D01*
X147939116Y-82693901D01*
X147986547Y-82604646D01*
X148059827Y-82542757D01*
X148146353Y-82521777D01*
X148237527Y-82547362D01*
G36*
X146210039Y-78852888D02*
X146227833Y-78939145D01*
X146249681Y-79048676D01*
X146261102Y-79107271D01*
X146291120Y-79262875D01*
X146453895Y-79325993D01*
X146543235Y-79359256D01*
X146611455Y-79382125D01*
X146640196Y-79389111D01*
X146673131Y-79373863D01*
X146738496Y-79333590D01*
X146823094Y-79276497D01*
X146836638Y-79266981D01*
X146925290Y-79204904D01*
X146998445Y-79154649D01*
X147041691Y-79126105D01*
X147044093Y-79124662D01*
X147077841Y-79133889D01*
X147138482Y-79173799D01*
X147214083Y-79234103D01*
X147292710Y-79304516D01*
X147362429Y-79374751D01*
X147411306Y-79434521D01*
X147420029Y-79448705D01*
X147422756Y-79487273D01*
X147396840Y-79549760D01*
X147338703Y-79643675D01*
X147301427Y-79697695D01*
X147158048Y-79901201D01*
X147235267Y-80082891D01*
X147290625Y-80196709D01*
X147339737Y-80260553D01*
X147372687Y-80278529D01*
X147431365Y-80291034D01*
X147524029Y-80309662D01*
X147616333Y-80327628D01*
X147799777Y-80362777D01*
X147799777Y-80899000D01*
X147566211Y-80944418D01*
X147458805Y-80966332D01*
X147375177Y-80985337D01*
X147328786Y-80998297D01*
X147323807Y-81000862D01*
X147309803Y-81030733D01*
X147281371Y-81098788D01*
X147244530Y-81190603D01*
X147242665Y-81195333D01*
X147170360Y-81378777D01*
X147289698Y-81548111D01*
X147350566Y-81635176D01*
X147399148Y-81705945D01*
X147425680Y-81746182D01*
X147426637Y-81747793D01*
X147415520Y-81779445D01*
X147371209Y-81839570D01*
X147301686Y-81918036D01*
X147254064Y-81966860D01*
X147063889Y-82155577D01*
X146883044Y-82028233D01*
X146774874Y-81955773D01*
X146697965Y-81916324D01*
X146640234Y-81906743D01*
X146589597Y-81923886D01*
X146559661Y-81944119D01*
X146510116Y-81976195D01*
X146485524Y-81985555D01*
X146468774Y-81960842D01*
X146434896Y-81892522D01*
X146387904Y-81789320D01*
X146331814Y-81659963D01*
X146291488Y-81563842D01*
X146116806Y-81142128D01*
X146233397Y-81036796D01*
X146340371Y-80925193D01*
X146402853Y-80818056D01*
X146428941Y-80699350D01*
X146431000Y-80645495D01*
X146406728Y-80472382D01*
X146333620Y-80327247D01*
X146272198Y-80258739D01*
X146138190Y-80167095D01*
X145993358Y-80124175D01*
X145846968Y-80125957D01*
X145708288Y-80168418D01*
X145586584Y-80247534D01*
X145491122Y-80359283D01*
X145431169Y-80499642D01*
X145415000Y-80630888D01*
X145435720Y-80782281D01*
X145501670Y-80915462D01*
X145610115Y-81034675D01*
X145729193Y-81142128D01*
X145554511Y-81563842D01*
X145494596Y-81705750D01*
X145441111Y-81827302D01*
X145398073Y-81919771D01*
X145369495Y-81974430D01*
X145360476Y-81985555D01*
X145325292Y-81970276D01*
X145286338Y-81944119D01*
X145220624Y-81908835D01*
X145154145Y-81910895D01*
X145071739Y-81952461D01*
X145031178Y-81980446D01*
X144922778Y-82059434D01*
X144848376Y-82108042D01*
X144794050Y-82125716D01*
X144745879Y-82111900D01*
X144689940Y-82066042D01*
X144612312Y-81987587D01*
X144587868Y-81962799D01*
X144398311Y-81771778D01*
X144525655Y-81590933D01*
X144586401Y-81498917D01*
X144631396Y-81419802D01*
X144652401Y-81368344D01*
X144653000Y-81362918D01*
X144643254Y-81318175D01*
X144618755Y-81240990D01*
X144586611Y-81150961D01*
X144553927Y-81067686D01*
X144527811Y-81010764D01*
X144521735Y-81000954D01*
X144492220Y-80990822D01*
X144420651Y-80973293D01*
X144320416Y-80951556D01*
X144279880Y-80943312D01*
X144046222Y-80896605D01*
X144046222Y-80362777D01*
X144229666Y-80327628D01*
X144334456Y-80307191D01*
X144424104Y-80289081D01*
X144473312Y-80278529D01*
X144520323Y-80246591D01*
X144570839Y-80168642D01*
X144610825Y-80082671D01*
X144688138Y-79900761D01*
X144563634Y-79722547D01*
X144501313Y-79632866D01*
X144450689Y-79559149D01*
X144421354Y-79515382D01*
X144419258Y-79512062D01*
X144428717Y-79478832D01*
X144470875Y-79420341D01*
X144534977Y-79347350D01*
X144610266Y-79270619D01*
X144685986Y-79200909D01*
X144751382Y-79148981D01*
X144795697Y-79125596D01*
X144804740Y-79126413D01*
X144842141Y-79150906D01*
X144911392Y-79198411D01*
X144998352Y-79259213D01*
X145009361Y-79266981D01*
X145095707Y-79325892D01*
X145164801Y-79369213D01*
X145203447Y-79388741D01*
X145205804Y-79389111D01*
X145242806Y-79379570D01*
X145315291Y-79354768D01*
X145392104Y-79325993D01*
X145554880Y-79262875D01*
X145584897Y-79107271D01*
X145606218Y-78998666D01*
X145627045Y-78895607D01*
X145635960Y-78852888D01*
X145657006Y-78754111D01*
X146188993Y-78754111D01*
X146210039Y-78852888D01*
X146210039Y-78852888D01*
G37*
X146210039Y-78852888D02*
X146227833Y-78939145D01*
X146249681Y-79048676D01*
X146261102Y-79107271D01*
X146291120Y-79262875D01*
X146453895Y-79325993D01*
X146543235Y-79359256D01*
X146611455Y-79382125D01*
X146640196Y-79389111D01*
X146673131Y-79373863D01*
X146738496Y-79333590D01*
X146823094Y-79276497D01*
X146836638Y-79266981D01*
X146925290Y-79204904D01*
X146998445Y-79154649D01*
X147041691Y-79126105D01*
X147044093Y-79124662D01*
X147077841Y-79133889D01*
X147138482Y-79173799D01*
X147214083Y-79234103D01*
X147292710Y-79304516D01*
X147362429Y-79374751D01*
X147411306Y-79434521D01*
X147420029Y-79448705D01*
X147422756Y-79487273D01*
X147396840Y-79549760D01*
X147338703Y-79643675D01*
X147301427Y-79697695D01*
X147158048Y-79901201D01*
X147235267Y-80082891D01*
X147290625Y-80196709D01*
X147339737Y-80260553D01*
X147372687Y-80278529D01*
X147431365Y-80291034D01*
X147524029Y-80309662D01*
X147616333Y-80327628D01*
X147799777Y-80362777D01*
X147799777Y-80899000D01*
X147566211Y-80944418D01*
X147458805Y-80966332D01*
X147375177Y-80985337D01*
X147328786Y-80998297D01*
X147323807Y-81000862D01*
X147309803Y-81030733D01*
X147281371Y-81098788D01*
X147244530Y-81190603D01*
X147242665Y-81195333D01*
X147170360Y-81378777D01*
X147289698Y-81548111D01*
X147350566Y-81635176D01*
X147399148Y-81705945D01*
X147425680Y-81746182D01*
X147426637Y-81747793D01*
X147415520Y-81779445D01*
X147371209Y-81839570D01*
X147301686Y-81918036D01*
X147254064Y-81966860D01*
X147063889Y-82155577D01*
X146883044Y-82028233D01*
X146774874Y-81955773D01*
X146697965Y-81916324D01*
X146640234Y-81906743D01*
X146589597Y-81923886D01*
X146559661Y-81944119D01*
X146510116Y-81976195D01*
X146485524Y-81985555D01*
X146468774Y-81960842D01*
X146434896Y-81892522D01*
X146387904Y-81789320D01*
X146331814Y-81659963D01*
X146291488Y-81563842D01*
X146116806Y-81142128D01*
X146233397Y-81036796D01*
X146340371Y-80925193D01*
X146402853Y-80818056D01*
X146428941Y-80699350D01*
X146431000Y-80645495D01*
X146406728Y-80472382D01*
X146333620Y-80327247D01*
X146272198Y-80258739D01*
X146138190Y-80167095D01*
X145993358Y-80124175D01*
X145846968Y-80125957D01*
X145708288Y-80168418D01*
X145586584Y-80247534D01*
X145491122Y-80359283D01*
X145431169Y-80499642D01*
X145415000Y-80630888D01*
X145435720Y-80782281D01*
X145501670Y-80915462D01*
X145610115Y-81034675D01*
X145729193Y-81142128D01*
X145554511Y-81563842D01*
X145494596Y-81705750D01*
X145441111Y-81827302D01*
X145398073Y-81919771D01*
X145369495Y-81974430D01*
X145360476Y-81985555D01*
X145325292Y-81970276D01*
X145286338Y-81944119D01*
X145220624Y-81908835D01*
X145154145Y-81910895D01*
X145071739Y-81952461D01*
X145031178Y-81980446D01*
X144922778Y-82059434D01*
X144848376Y-82108042D01*
X144794050Y-82125716D01*
X144745879Y-82111900D01*
X144689940Y-82066042D01*
X144612312Y-81987587D01*
X144587868Y-81962799D01*
X144398311Y-81771778D01*
X144525655Y-81590933D01*
X144586401Y-81498917D01*
X144631396Y-81419802D01*
X144652401Y-81368344D01*
X144653000Y-81362918D01*
X144643254Y-81318175D01*
X144618755Y-81240990D01*
X144586611Y-81150961D01*
X144553927Y-81067686D01*
X144527811Y-81010764D01*
X144521735Y-81000954D01*
X144492220Y-80990822D01*
X144420651Y-80973293D01*
X144320416Y-80951556D01*
X144279880Y-80943312D01*
X144046222Y-80896605D01*
X144046222Y-80362777D01*
X144229666Y-80327628D01*
X144334456Y-80307191D01*
X144424104Y-80289081D01*
X144473312Y-80278529D01*
X144520323Y-80246591D01*
X144570839Y-80168642D01*
X144610825Y-80082671D01*
X144688138Y-79900761D01*
X144563634Y-79722547D01*
X144501313Y-79632866D01*
X144450689Y-79559149D01*
X144421354Y-79515382D01*
X144419258Y-79512062D01*
X144428717Y-79478832D01*
X144470875Y-79420341D01*
X144534977Y-79347350D01*
X144610266Y-79270619D01*
X144685986Y-79200909D01*
X144751382Y-79148981D01*
X144795697Y-79125596D01*
X144804740Y-79126413D01*
X144842141Y-79150906D01*
X144911392Y-79198411D01*
X144998352Y-79259213D01*
X145009361Y-79266981D01*
X145095707Y-79325892D01*
X145164801Y-79369213D01*
X145203447Y-79388741D01*
X145205804Y-79389111D01*
X145242806Y-79379570D01*
X145315291Y-79354768D01*
X145392104Y-79325993D01*
X145554880Y-79262875D01*
X145584897Y-79107271D01*
X145606218Y-78998666D01*
X145627045Y-78895607D01*
X145635960Y-78852888D01*
X145657006Y-78754111D01*
X146188993Y-78754111D01*
X146210039Y-78852888D01*
G36*
X150667204Y-78762581D02*
X152477492Y-78764754D01*
X152479735Y-79141449D01*
X152480093Y-79220119D01*
X152480212Y-79293220D01*
X152480105Y-79359009D01*
X152479785Y-79415744D01*
X152479264Y-79461681D01*
X152478555Y-79495079D01*
X152477672Y-79514193D01*
X152476972Y-79518144D01*
X152468784Y-79512768D01*
X152450978Y-79498349D01*
X152426657Y-79477450D01*
X152412420Y-79464831D01*
X152301416Y-79375504D01*
X152178397Y-79294601D01*
X152047253Y-79224201D01*
X151911875Y-79166385D01*
X151776151Y-79123232D01*
X151771177Y-79121945D01*
X151663167Y-79099298D01*
X151546950Y-79083968D01*
X151427779Y-79076228D01*
X151310911Y-79076347D01*
X151201599Y-79084597D01*
X151160136Y-79090401D01*
X150999430Y-79124729D01*
X150845772Y-79174130D01*
X150699982Y-79237857D01*
X150562884Y-79315167D01*
X150435299Y-79405313D01*
X150318049Y-79507550D01*
X150211956Y-79621132D01*
X150117843Y-79745315D01*
X150036530Y-79879353D01*
X149968841Y-80022500D01*
X149915597Y-80174011D01*
X149899305Y-80233696D01*
X149881614Y-80310450D01*
X149869035Y-80382019D01*
X149861082Y-80453406D01*
X149857266Y-80529611D01*
X149857098Y-80615636D01*
X149858023Y-80656763D01*
X149865722Y-80787260D01*
X149881794Y-80906569D01*
X149907341Y-81019111D01*
X149943466Y-81129309D01*
X149991271Y-81241585D01*
X150016957Y-81294100D01*
X150093575Y-81429783D01*
X150180066Y-81552970D01*
X150278424Y-81666095D01*
X150390641Y-81771592D01*
X150443903Y-81815416D01*
X150511196Y-81868720D01*
X148856916Y-81868720D01*
X148856916Y-78760409D01*
X150667204Y-78762581D01*
X150667204Y-78762581D01*
G37*
X150667204Y-78762581D02*
X152477492Y-78764754D01*
X152479735Y-79141449D01*
X152480093Y-79220119D01*
X152480212Y-79293220D01*
X152480105Y-79359009D01*
X152479785Y-79415744D01*
X152479264Y-79461681D01*
X152478555Y-79495079D01*
X152477672Y-79514193D01*
X152476972Y-79518144D01*
X152468784Y-79512768D01*
X152450978Y-79498349D01*
X152426657Y-79477450D01*
X152412420Y-79464831D01*
X152301416Y-79375504D01*
X152178397Y-79294601D01*
X152047253Y-79224201D01*
X151911875Y-79166385D01*
X151776151Y-79123232D01*
X151771177Y-79121945D01*
X151663167Y-79099298D01*
X151546950Y-79083968D01*
X151427779Y-79076228D01*
X151310911Y-79076347D01*
X151201599Y-79084597D01*
X151160136Y-79090401D01*
X150999430Y-79124729D01*
X150845772Y-79174130D01*
X150699982Y-79237857D01*
X150562884Y-79315167D01*
X150435299Y-79405313D01*
X150318049Y-79507550D01*
X150211956Y-79621132D01*
X150117843Y-79745315D01*
X150036530Y-79879353D01*
X149968841Y-80022500D01*
X149915597Y-80174011D01*
X149899305Y-80233696D01*
X149881614Y-80310450D01*
X149869035Y-80382019D01*
X149861082Y-80453406D01*
X149857266Y-80529611D01*
X149857098Y-80615636D01*
X149858023Y-80656763D01*
X149865722Y-80787260D01*
X149881794Y-80906569D01*
X149907341Y-81019111D01*
X149943466Y-81129309D01*
X149991271Y-81241585D01*
X150016957Y-81294100D01*
X150093575Y-81429783D01*
X150180066Y-81552970D01*
X150278424Y-81666095D01*
X150390641Y-81771592D01*
X150443903Y-81815416D01*
X150511196Y-81868720D01*
X148856916Y-81868720D01*
X148856916Y-78760409D01*
X150667204Y-78762581D01*
G36*
X153394475Y-79710822D02*
X153394500Y-79867635D01*
X153394597Y-80008292D01*
X153394797Y-80133861D01*
X153395131Y-80245406D01*
X153395630Y-80343993D01*
X153396326Y-80430687D01*
X153397250Y-80506554D01*
X153398434Y-80572659D01*
X153399909Y-80630069D01*
X153401705Y-80679848D01*
X153403855Y-80723062D01*
X153406390Y-80760777D01*
X153409340Y-80794058D01*
X153412738Y-80823971D01*
X153416615Y-80851581D01*
X153421001Y-80877954D01*
X153425929Y-80904155D01*
X153430162Y-80925126D01*
X153462071Y-81048223D01*
X153506772Y-81173531D01*
X153562262Y-81296821D01*
X153626537Y-81413863D01*
X153697594Y-81520426D01*
X153734616Y-81567942D01*
X153770159Y-81608547D01*
X153814259Y-81655128D01*
X153862455Y-81703271D01*
X153910285Y-81748563D01*
X153953290Y-81786591D01*
X153967051Y-81797910D01*
X153995611Y-81820900D01*
X154020071Y-81840823D01*
X154036514Y-81854480D01*
X154039930Y-81857437D01*
X154039551Y-81859290D01*
X154033458Y-81860937D01*
X154020783Y-81862390D01*
X154000657Y-81863660D01*
X153972214Y-81864757D01*
X153934584Y-81865693D01*
X153886901Y-81866480D01*
X153828296Y-81867127D01*
X153757902Y-81867647D01*
X153674851Y-81868050D01*
X153578275Y-81868347D01*
X153467306Y-81868551D01*
X153341076Y-81868670D01*
X153198718Y-81868718D01*
X153159252Y-81868720D01*
X152265966Y-81868720D01*
X152351640Y-81799807D01*
X152471245Y-81692654D01*
X152578736Y-81573742D01*
X152673268Y-81444330D01*
X152753995Y-81305682D01*
X152820073Y-81159058D01*
X152860973Y-81039718D01*
X152868978Y-81013063D01*
X152876158Y-80989145D01*
X152882563Y-80966933D01*
X152888240Y-80945400D01*
X152893239Y-80923516D01*
X152897608Y-80900253D01*
X152901397Y-80874581D01*
X152904655Y-80845472D01*
X152907430Y-80811896D01*
X152909772Y-80772826D01*
X152911728Y-80727231D01*
X152913349Y-80674084D01*
X152914682Y-80612354D01*
X152915777Y-80541014D01*
X152916683Y-80459035D01*
X152917449Y-80365387D01*
X152918123Y-80259042D01*
X152918754Y-80138970D01*
X152919392Y-80004144D01*
X152920084Y-79853533D01*
X152920384Y-79789364D01*
X152925221Y-78764754D01*
X153394475Y-78760172D01*
X153394475Y-79710822D01*
X153394475Y-79710822D01*
G37*
X153394475Y-79710822D02*
X153394500Y-79867635D01*
X153394597Y-80008292D01*
X153394797Y-80133861D01*
X153395131Y-80245406D01*
X153395630Y-80343993D01*
X153396326Y-80430687D01*
X153397250Y-80506554D01*
X153398434Y-80572659D01*
X153399909Y-80630069D01*
X153401705Y-80679848D01*
X153403855Y-80723062D01*
X153406390Y-80760777D01*
X153409340Y-80794058D01*
X153412738Y-80823971D01*
X153416615Y-80851581D01*
X153421001Y-80877954D01*
X153425929Y-80904155D01*
X153430162Y-80925126D01*
X153462071Y-81048223D01*
X153506772Y-81173531D01*
X153562262Y-81296821D01*
X153626537Y-81413863D01*
X153697594Y-81520426D01*
X153734616Y-81567942D01*
X153770159Y-81608547D01*
X153814259Y-81655128D01*
X153862455Y-81703271D01*
X153910285Y-81748563D01*
X153953290Y-81786591D01*
X153967051Y-81797910D01*
X153995611Y-81820900D01*
X154020071Y-81840823D01*
X154036514Y-81854480D01*
X154039930Y-81857437D01*
X154039551Y-81859290D01*
X154033458Y-81860937D01*
X154020783Y-81862390D01*
X154000657Y-81863660D01*
X153972214Y-81864757D01*
X153934584Y-81865693D01*
X153886901Y-81866480D01*
X153828296Y-81867127D01*
X153757902Y-81867647D01*
X153674851Y-81868050D01*
X153578275Y-81868347D01*
X153467306Y-81868551D01*
X153341076Y-81868670D01*
X153198718Y-81868718D01*
X153159252Y-81868720D01*
X152265966Y-81868720D01*
X152351640Y-81799807D01*
X152471245Y-81692654D01*
X152578736Y-81573742D01*
X152673268Y-81444330D01*
X152753995Y-81305682D01*
X152820073Y-81159058D01*
X152860973Y-81039718D01*
X152868978Y-81013063D01*
X152876158Y-80989145D01*
X152882563Y-80966933D01*
X152888240Y-80945400D01*
X152893239Y-80923516D01*
X152897608Y-80900253D01*
X152901397Y-80874581D01*
X152904655Y-80845472D01*
X152907430Y-80811896D01*
X152909772Y-80772826D01*
X152911728Y-80727231D01*
X152913349Y-80674084D01*
X152914682Y-80612354D01*
X152915777Y-80541014D01*
X152916683Y-80459035D01*
X152917449Y-80365387D01*
X152918123Y-80259042D01*
X152918754Y-80138970D01*
X152919392Y-80004144D01*
X152920084Y-79853533D01*
X152920384Y-79789364D01*
X152925221Y-78764754D01*
X153394475Y-78760172D01*
X153394475Y-79710822D01*
G36*
X156411476Y-81050684D02*
X156412680Y-81074521D01*
X156413771Y-81112254D01*
X156414725Y-81162220D01*
X156415516Y-81222757D01*
X156416116Y-81292201D01*
X156416501Y-81368891D01*
X156416644Y-81451165D01*
X156416644Y-81868720D01*
X156115288Y-81868720D01*
X156045189Y-81868640D01*
X155980865Y-81868412D01*
X155924265Y-81868056D01*
X155877337Y-81867590D01*
X155842029Y-81867032D01*
X155820291Y-81866403D01*
X155813932Y-81865808D01*
X155820291Y-81859668D01*
X155837456Y-81845398D01*
X155862563Y-81825337D01*
X155883703Y-81808814D01*
X155988247Y-81718647D01*
X156086199Y-81616164D01*
X156175537Y-81504188D01*
X156254238Y-81385541D01*
X156320277Y-81263047D01*
X156371631Y-81139528D01*
X156379048Y-81117743D01*
X156390507Y-81084852D01*
X156400667Y-81059224D01*
X156408013Y-81044518D01*
X156410187Y-81042404D01*
X156411476Y-81050684D01*
X156411476Y-81050684D01*
G37*
X156411476Y-81050684D02*
X156412680Y-81074521D01*
X156413771Y-81112254D01*
X156414725Y-81162220D01*
X156415516Y-81222757D01*
X156416116Y-81292201D01*
X156416501Y-81368891D01*
X156416644Y-81451165D01*
X156416644Y-81868720D01*
X156115288Y-81868720D01*
X156045189Y-81868640D01*
X155980865Y-81868412D01*
X155924265Y-81868056D01*
X155877337Y-81867590D01*
X155842029Y-81867032D01*
X155820291Y-81866403D01*
X155813932Y-81865808D01*
X155820291Y-81859668D01*
X155837456Y-81845398D01*
X155862563Y-81825337D01*
X155883703Y-81808814D01*
X155988247Y-81718647D01*
X156086199Y-81616164D01*
X156175537Y-81504188D01*
X156254238Y-81385541D01*
X156320277Y-81263047D01*
X156371631Y-81139528D01*
X156379048Y-81117743D01*
X156390507Y-81084852D01*
X156400667Y-81059224D01*
X156408013Y-81044518D01*
X156410187Y-81042404D01*
X156411476Y-81050684D01*
G36*
X151506605Y-79523556D02*
X151633795Y-79545057D01*
X151756346Y-79581008D01*
X151873168Y-79630718D01*
X151983169Y-79693495D01*
X152085260Y-79768648D01*
X152178348Y-79855484D01*
X152261344Y-79953311D01*
X152333155Y-80061438D01*
X152392692Y-80179173D01*
X152438864Y-80305824D01*
X152465545Y-80413602D01*
X152471638Y-80458030D01*
X152475434Y-80514735D01*
X152476985Y-80578934D01*
X152476343Y-80645843D01*
X152473561Y-80710680D01*
X152468691Y-80768663D01*
X152461786Y-80815008D01*
X152461102Y-80818280D01*
X152423223Y-80954160D01*
X152369653Y-81083775D01*
X152301065Y-81205537D01*
X152289570Y-81222957D01*
X152254339Y-81269787D01*
X152208836Y-81322164D01*
X152157053Y-81376109D01*
X152102983Y-81427639D01*
X152050617Y-81472774D01*
X152004734Y-81507008D01*
X151887489Y-81575412D01*
X151763546Y-81628984D01*
X151634764Y-81667305D01*
X151503001Y-81689955D01*
X151370114Y-81696516D01*
X151237962Y-81686567D01*
X151220407Y-81683957D01*
X151126158Y-81665217D01*
X151037793Y-81638864D01*
X150948189Y-81602620D01*
X150910441Y-81584861D01*
X150792938Y-81518609D01*
X150687056Y-81440695D01*
X150593120Y-81352401D01*
X150511454Y-81255010D01*
X150442385Y-81149807D01*
X150386237Y-81038074D01*
X150343335Y-80921094D01*
X150314005Y-80800152D01*
X150298571Y-80676530D01*
X150297358Y-80551511D01*
X150310693Y-80426379D01*
X150338898Y-80302418D01*
X150382301Y-80180910D01*
X150441226Y-80063138D01*
X150501410Y-79970178D01*
X150582474Y-79871451D01*
X150676029Y-79781857D01*
X150779653Y-79703062D01*
X150890925Y-79636731D01*
X151007425Y-79584530D01*
X151108111Y-79552678D01*
X151242672Y-79526675D01*
X151375867Y-79517198D01*
X151506605Y-79523556D01*
X151506605Y-79523556D01*
G37*
X151506605Y-79523556D02*
X151633795Y-79545057D01*
X151756346Y-79581008D01*
X151873168Y-79630718D01*
X151983169Y-79693495D01*
X152085260Y-79768648D01*
X152178348Y-79855484D01*
X152261344Y-79953311D01*
X152333155Y-80061438D01*
X152392692Y-80179173D01*
X152438864Y-80305824D01*
X152465545Y-80413602D01*
X152471638Y-80458030D01*
X152475434Y-80514735D01*
X152476985Y-80578934D01*
X152476343Y-80645843D01*
X152473561Y-80710680D01*
X152468691Y-80768663D01*
X152461786Y-80815008D01*
X152461102Y-80818280D01*
X152423223Y-80954160D01*
X152369653Y-81083775D01*
X152301065Y-81205537D01*
X152289570Y-81222957D01*
X152254339Y-81269787D01*
X152208836Y-81322164D01*
X152157053Y-81376109D01*
X152102983Y-81427639D01*
X152050617Y-81472774D01*
X152004734Y-81507008D01*
X151887489Y-81575412D01*
X151763546Y-81628984D01*
X151634764Y-81667305D01*
X151503001Y-81689955D01*
X151370114Y-81696516D01*
X151237962Y-81686567D01*
X151220407Y-81683957D01*
X151126158Y-81665217D01*
X151037793Y-81638864D01*
X150948189Y-81602620D01*
X150910441Y-81584861D01*
X150792938Y-81518609D01*
X150687056Y-81440695D01*
X150593120Y-81352401D01*
X150511454Y-81255010D01*
X150442385Y-81149807D01*
X150386237Y-81038074D01*
X150343335Y-80921094D01*
X150314005Y-80800152D01*
X150298571Y-80676530D01*
X150297358Y-80551511D01*
X150310693Y-80426379D01*
X150338898Y-80302418D01*
X150382301Y-80180910D01*
X150441226Y-80063138D01*
X150501410Y-79970178D01*
X150582474Y-79871451D01*
X150676029Y-79781857D01*
X150779653Y-79703062D01*
X150890925Y-79636731D01*
X151007425Y-79584530D01*
X151108111Y-79552678D01*
X151242672Y-79526675D01*
X151375867Y-79517198D01*
X151506605Y-79523556D01*
G36*
X154992310Y-79523401D02*
X155039779Y-79524443D01*
X155077564Y-79526501D01*
X155109428Y-79529889D01*
X155139139Y-79534918D01*
X155170461Y-79541903D01*
X155176780Y-79543446D01*
X155260119Y-79566458D01*
X155334428Y-79592887D01*
X155407896Y-79625827D01*
X155445455Y-79644958D01*
X155559870Y-79714657D01*
X155663759Y-79797294D01*
X155756247Y-79891545D01*
X155836458Y-79996083D01*
X155903516Y-80109584D01*
X155956545Y-80230723D01*
X155994668Y-80358175D01*
X156017011Y-80490615D01*
X156019099Y-80512618D01*
X156022258Y-80648462D01*
X156009016Y-80781669D01*
X155980002Y-80910926D01*
X155935845Y-81034920D01*
X155877172Y-81152339D01*
X155804614Y-81261868D01*
X155718798Y-81362196D01*
X155620353Y-81452008D01*
X155541925Y-81509478D01*
X155433906Y-81574109D01*
X155324798Y-81624100D01*
X155209594Y-81661580D01*
X155150949Y-81675690D01*
X155120507Y-81680562D01*
X155078391Y-81684998D01*
X155028767Y-81688800D01*
X154975796Y-81691771D01*
X154923642Y-81693712D01*
X154876469Y-81694427D01*
X154838439Y-81693717D01*
X154815153Y-81691643D01*
X154795777Y-81688450D01*
X154765964Y-81683622D01*
X154733356Y-81678394D01*
X154624166Y-81653286D01*
X154513608Y-81613379D01*
X154405068Y-81560423D01*
X154301934Y-81496169D01*
X154207592Y-81422370D01*
X154168948Y-81386551D01*
X154077124Y-81285171D01*
X153999994Y-81175184D01*
X153937241Y-81056026D01*
X153888549Y-80927136D01*
X153867850Y-80852720D01*
X153857600Y-80798539D01*
X153849910Y-80732712D01*
X153845017Y-80660660D01*
X153843164Y-80587801D01*
X153844588Y-80519553D01*
X153849531Y-80461336D01*
X153850277Y-80455932D01*
X153878210Y-80320205D01*
X153921609Y-80191791D01*
X153980232Y-80071183D01*
X154053840Y-79958870D01*
X154142194Y-79855342D01*
X154145585Y-79851849D01*
X154244058Y-79761003D01*
X154348215Y-79685302D01*
X154460183Y-79623523D01*
X154582086Y-79574442D01*
X154675437Y-79546733D01*
X154709540Y-79538229D01*
X154738829Y-79532022D01*
X154767116Y-79527757D01*
X154798211Y-79525084D01*
X154835926Y-79523650D01*
X154884072Y-79523102D01*
X154931390Y-79523064D01*
X154992310Y-79523401D01*
X154992310Y-79523401D01*
G37*
X154992310Y-79523401D02*
X155039779Y-79524443D01*
X155077564Y-79526501D01*
X155109428Y-79529889D01*
X155139139Y-79534918D01*
X155170461Y-79541903D01*
X155176780Y-79543446D01*
X155260119Y-79566458D01*
X155334428Y-79592887D01*
X155407896Y-79625827D01*
X155445455Y-79644958D01*
X155559870Y-79714657D01*
X155663759Y-79797294D01*
X155756247Y-79891545D01*
X155836458Y-79996083D01*
X155903516Y-80109584D01*
X155956545Y-80230723D01*
X155994668Y-80358175D01*
X156017011Y-80490615D01*
X156019099Y-80512618D01*
X156022258Y-80648462D01*
X156009016Y-80781669D01*
X155980002Y-80910926D01*
X155935845Y-81034920D01*
X155877172Y-81152339D01*
X155804614Y-81261868D01*
X155718798Y-81362196D01*
X155620353Y-81452008D01*
X155541925Y-81509478D01*
X155433906Y-81574109D01*
X155324798Y-81624100D01*
X155209594Y-81661580D01*
X155150949Y-81675690D01*
X155120507Y-81680562D01*
X155078391Y-81684998D01*
X155028767Y-81688800D01*
X154975796Y-81691771D01*
X154923642Y-81693712D01*
X154876469Y-81694427D01*
X154838439Y-81693717D01*
X154815153Y-81691643D01*
X154795777Y-81688450D01*
X154765964Y-81683622D01*
X154733356Y-81678394D01*
X154624166Y-81653286D01*
X154513608Y-81613379D01*
X154405068Y-81560423D01*
X154301934Y-81496169D01*
X154207592Y-81422370D01*
X154168948Y-81386551D01*
X154077124Y-81285171D01*
X153999994Y-81175184D01*
X153937241Y-81056026D01*
X153888549Y-80927136D01*
X153867850Y-80852720D01*
X153857600Y-80798539D01*
X153849910Y-80732712D01*
X153845017Y-80660660D01*
X153843164Y-80587801D01*
X153844588Y-80519553D01*
X153849531Y-80461336D01*
X153850277Y-80455932D01*
X153878210Y-80320205D01*
X153921609Y-80191791D01*
X153980232Y-80071183D01*
X154053840Y-79958870D01*
X154142194Y-79855342D01*
X154145585Y-79851849D01*
X154244058Y-79761003D01*
X154348215Y-79685302D01*
X154460183Y-79623523D01*
X154582086Y-79574442D01*
X154675437Y-79546733D01*
X154709540Y-79538229D01*
X154738829Y-79532022D01*
X154767116Y-79527757D01*
X154798211Y-79525084D01*
X154835926Y-79523650D01*
X154884072Y-79523102D01*
X154931390Y-79523064D01*
X154992310Y-79523401D01*
G36*
X156416644Y-79466483D02*
X156416590Y-79575080D01*
X156416432Y-79678577D01*
X156416179Y-79775701D01*
X156415840Y-79865180D01*
X156415421Y-79945740D01*
X156414933Y-80016109D01*
X156414382Y-80075012D01*
X156413777Y-80121179D01*
X156413127Y-80153334D01*
X156412440Y-80170206D01*
X156412069Y-80172517D01*
X156405478Y-80165816D01*
X156403710Y-80161754D01*
X156383331Y-80104336D01*
X156366993Y-80059732D01*
X156353328Y-80024406D01*
X156340967Y-79994823D01*
X156328541Y-79967449D01*
X156328284Y-79966903D01*
X156254053Y-79827541D01*
X156167126Y-79696811D01*
X156069096Y-79576813D01*
X155961559Y-79469646D01*
X155930170Y-79442400D01*
X155800230Y-79343296D01*
X155664591Y-79260038D01*
X155522441Y-79192295D01*
X155372971Y-79139735D01*
X155215371Y-79102026D01*
X155048833Y-79078835D01*
X155042262Y-79078230D01*
X154899841Y-79073535D01*
X154753867Y-79084228D01*
X154606947Y-79109620D01*
X154461690Y-79149019D01*
X154320705Y-79201735D01*
X154186600Y-79267077D01*
X154077418Y-79333751D01*
X154038032Y-79361478D01*
X153995373Y-79393280D01*
X153953335Y-79426087D01*
X153915810Y-79456826D01*
X153886692Y-79482424D01*
X153876644Y-79492189D01*
X153868471Y-79500709D01*
X153861703Y-79507012D01*
X153856207Y-79509747D01*
X153851852Y-79507564D01*
X153848506Y-79499111D01*
X153846035Y-79483037D01*
X153844308Y-79457992D01*
X153843193Y-79422626D01*
X153842557Y-79375585D01*
X153842268Y-79315521D01*
X153842195Y-79241083D01*
X153842203Y-79150918D01*
X153842204Y-79140351D01*
X153842204Y-78760449D01*
X156416644Y-78760449D01*
X156416644Y-79466483D01*
X156416644Y-79466483D01*
G37*
X156416644Y-79466483D02*
X156416590Y-79575080D01*
X156416432Y-79678577D01*
X156416179Y-79775701D01*
X156415840Y-79865180D01*
X156415421Y-79945740D01*
X156414933Y-80016109D01*
X156414382Y-80075012D01*
X156413777Y-80121179D01*
X156413127Y-80153334D01*
X156412440Y-80170206D01*
X156412069Y-80172517D01*
X156405478Y-80165816D01*
X156403710Y-80161754D01*
X156383331Y-80104336D01*
X156366993Y-80059732D01*
X156353328Y-80024406D01*
X156340967Y-79994823D01*
X156328541Y-79967449D01*
X156328284Y-79966903D01*
X156254053Y-79827541D01*
X156167126Y-79696811D01*
X156069096Y-79576813D01*
X155961559Y-79469646D01*
X155930170Y-79442400D01*
X155800230Y-79343296D01*
X155664591Y-79260038D01*
X155522441Y-79192295D01*
X155372971Y-79139735D01*
X155215371Y-79102026D01*
X155048833Y-79078835D01*
X155042262Y-79078230D01*
X154899841Y-79073535D01*
X154753867Y-79084228D01*
X154606947Y-79109620D01*
X154461690Y-79149019D01*
X154320705Y-79201735D01*
X154186600Y-79267077D01*
X154077418Y-79333751D01*
X154038032Y-79361478D01*
X153995373Y-79393280D01*
X153953335Y-79426087D01*
X153915810Y-79456826D01*
X153886692Y-79482424D01*
X153876644Y-79492189D01*
X153868471Y-79500709D01*
X153861703Y-79507012D01*
X153856207Y-79509747D01*
X153851852Y-79507564D01*
X153848506Y-79499111D01*
X153846035Y-79483037D01*
X153844308Y-79457992D01*
X153843193Y-79422626D01*
X153842557Y-79375585D01*
X153842268Y-79315521D01*
X153842195Y-79241083D01*
X153842203Y-79150918D01*
X153842204Y-79140351D01*
X153842204Y-78760449D01*
X156416644Y-78760449D01*
X156416644Y-79466483D01*
D11*
X144018000Y-89789000D02*
X144018000Y-88011000D01*
X146812000Y-89789000D02*
X144018000Y-89789000D01*
X146812000Y-88011000D02*
X146812000Y-89789000D01*
X144018000Y-88011000D02*
X146812000Y-88011000D01*
X151130000Y-95525167D02*
X151130000Y-96244833D01*
X151172333Y-96329500D01*
X151214666Y-96371833D01*
X151299333Y-96414167D01*
X151468666Y-96414167D01*
X151553333Y-96371833D01*
X151595666Y-96329500D01*
X151638000Y-96244833D01*
X151638000Y-95525167D01*
X152526999Y-96414167D02*
X152018999Y-96414167D01*
X152272999Y-96414167D02*
X152272999Y-95525167D01*
X152188333Y-95652167D01*
X152103666Y-95736833D01*
X152018999Y-95779167D01*
X153077333Y-95525167D02*
X153162000Y-95525167D01*
X153246666Y-95567500D01*
X153289000Y-95609833D01*
X153331333Y-95694500D01*
X153373666Y-95863833D01*
X153373666Y-96075500D01*
X153331333Y-96244833D01*
X153289000Y-96329500D01*
X153246666Y-96371833D01*
X153162000Y-96414167D01*
X153077333Y-96414167D01*
X152992666Y-96371833D01*
X152950333Y-96329500D01*
X152908000Y-96244833D01*
X152865666Y-96075500D01*
X152865666Y-95863833D01*
X152908000Y-95694500D01*
X152950333Y-95609833D01*
X152992666Y-95567500D01*
X153077333Y-95525167D01*
X154220333Y-96414167D02*
X153712333Y-96414167D01*
X153966333Y-96414167D02*
X153966333Y-95525167D01*
X153881667Y-95652167D01*
X153797000Y-95736833D01*
X153712333Y-95779167D01*
X155735867Y-102975833D02*
X155312533Y-103272167D01*
X155735867Y-103483833D02*
X154846867Y-103483833D01*
X154846867Y-103145167D01*
X154889200Y-103060500D01*
X154931533Y-103018167D01*
X155016200Y-102975833D01*
X155143200Y-102975833D01*
X155227867Y-103018167D01*
X155270200Y-103060500D01*
X155312533Y-103145167D01*
X155312533Y-103483833D01*
X155735867Y-102129167D02*
X155735867Y-102637167D01*
X155735867Y-102383167D02*
X154846867Y-102383167D01*
X154973867Y-102467833D01*
X155058533Y-102552500D01*
X155100867Y-102637167D01*
X154846867Y-101578833D02*
X154846867Y-101494166D01*
X154889200Y-101409500D01*
X154931533Y-101367166D01*
X155016200Y-101324833D01*
X155185533Y-101282500D01*
X155397200Y-101282500D01*
X155566533Y-101324833D01*
X155651200Y-101367166D01*
X155693533Y-101409500D01*
X155735867Y-101494166D01*
X155735867Y-101578833D01*
X155693533Y-101663500D01*
X155651200Y-101705833D01*
X155566533Y-101748166D01*
X155397200Y-101790500D01*
X155185533Y-101790500D01*
X155016200Y-101748166D01*
X154931533Y-101705833D01*
X154889200Y-101663500D01*
X154846867Y-101578833D01*
X155735867Y-100859166D02*
X155735867Y-100689833D01*
X155693533Y-100605166D01*
X155651200Y-100562833D01*
X155524200Y-100478166D01*
X155354867Y-100435833D01*
X155016200Y-100435833D01*
X154931533Y-100478166D01*
X154889200Y-100520499D01*
X154846867Y-100605166D01*
X154846867Y-100774499D01*
X154889200Y-100859166D01*
X154931533Y-100901499D01*
X155016200Y-100943833D01*
X155227867Y-100943833D01*
X155312533Y-100901499D01*
X155354867Y-100859166D01*
X155397200Y-100774499D01*
X155397200Y-100605166D01*
X155354867Y-100520499D01*
X155312533Y-100478166D01*
X155227867Y-100435833D01*
X138641667Y-89725500D02*
X138599333Y-89767833D01*
X138472333Y-89810167D01*
X138387667Y-89810167D01*
X138260667Y-89767833D01*
X138176000Y-89683167D01*
X138133667Y-89598500D01*
X138091333Y-89429167D01*
X138091333Y-89302167D01*
X138133667Y-89132833D01*
X138176000Y-89048167D01*
X138260667Y-88963500D01*
X138387667Y-88921167D01*
X138472333Y-88921167D01*
X138599333Y-88963500D01*
X138641667Y-89005833D01*
X139488333Y-89810167D02*
X138980333Y-89810167D01*
X139234333Y-89810167D02*
X139234333Y-88921167D01*
X139149667Y-89048167D01*
X139065000Y-89132833D01*
X138980333Y-89175167D01*
X140038667Y-88921167D02*
X140123334Y-88921167D01*
X140208000Y-88963500D01*
X140250334Y-89005833D01*
X140292667Y-89090500D01*
X140335000Y-89259833D01*
X140335000Y-89471500D01*
X140292667Y-89640833D01*
X140250334Y-89725500D01*
X140208000Y-89767833D01*
X140123334Y-89810167D01*
X140038667Y-89810167D01*
X139954000Y-89767833D01*
X139911667Y-89725500D01*
X139869334Y-89640833D01*
X139827000Y-89471500D01*
X139827000Y-89259833D01*
X139869334Y-89090500D01*
X139911667Y-89005833D01*
X139954000Y-88963500D01*
X140038667Y-88921167D01*
X141181667Y-89810167D02*
X140673667Y-89810167D01*
X140927667Y-89810167D02*
X140927667Y-88921167D01*
X140843001Y-89048167D01*
X140758334Y-89132833D01*
X140673667Y-89175167D01*
X141287500Y-109706833D02*
X141329833Y-109749167D01*
X141372167Y-109876167D01*
X141372167Y-109960833D01*
X141329833Y-110087833D01*
X141245167Y-110172500D01*
X141160500Y-110214833D01*
X140991167Y-110257167D01*
X140864167Y-110257167D01*
X140694833Y-110214833D01*
X140610167Y-110172500D01*
X140525500Y-110087833D01*
X140483167Y-109960833D01*
X140483167Y-109876167D01*
X140525500Y-109749167D01*
X140567833Y-109706833D01*
X141372167Y-108860167D02*
X141372167Y-109368167D01*
X141372167Y-109114167D02*
X140483167Y-109114167D01*
X140610167Y-109198833D01*
X140694833Y-109283500D01*
X140737167Y-109368167D01*
X140483167Y-108309833D02*
X140483167Y-108225166D01*
X140525500Y-108140500D01*
X140567833Y-108098166D01*
X140652500Y-108055833D01*
X140821833Y-108013500D01*
X141033500Y-108013500D01*
X141202833Y-108055833D01*
X141287500Y-108098166D01*
X141329833Y-108140500D01*
X141372167Y-108225166D01*
X141372167Y-108309833D01*
X141329833Y-108394500D01*
X141287500Y-108436833D01*
X141202833Y-108479166D01*
X141033500Y-108521500D01*
X140821833Y-108521500D01*
X140652500Y-108479166D01*
X140567833Y-108436833D01*
X140525500Y-108394500D01*
X140483167Y-108309833D01*
X140567833Y-107674833D02*
X140525500Y-107632499D01*
X140483167Y-107547833D01*
X140483167Y-107336166D01*
X140525500Y-107251499D01*
X140567833Y-107209166D01*
X140652500Y-107166833D01*
X140737167Y-107166833D01*
X140864167Y-107209166D01*
X141372167Y-107717166D01*
X141372167Y-107166833D01*
X144208500Y-109706833D02*
X144250833Y-109749167D01*
X144293167Y-109876167D01*
X144293167Y-109960833D01*
X144250833Y-110087833D01*
X144166167Y-110172500D01*
X144081500Y-110214833D01*
X143912167Y-110257167D01*
X143785167Y-110257167D01*
X143615833Y-110214833D01*
X143531167Y-110172500D01*
X143446500Y-110087833D01*
X143404167Y-109960833D01*
X143404167Y-109876167D01*
X143446500Y-109749167D01*
X143488833Y-109706833D01*
X144293167Y-108860167D02*
X144293167Y-109368167D01*
X144293167Y-109114167D02*
X143404167Y-109114167D01*
X143531167Y-109198833D01*
X143615833Y-109283500D01*
X143658167Y-109368167D01*
X143404167Y-108309833D02*
X143404167Y-108225166D01*
X143446500Y-108140500D01*
X143488833Y-108098166D01*
X143573500Y-108055833D01*
X143742833Y-108013500D01*
X143954500Y-108013500D01*
X144123833Y-108055833D01*
X144208500Y-108098166D01*
X144250833Y-108140500D01*
X144293167Y-108225166D01*
X144293167Y-108309833D01*
X144250833Y-108394500D01*
X144208500Y-108436833D01*
X144123833Y-108479166D01*
X143954500Y-108521500D01*
X143742833Y-108521500D01*
X143573500Y-108479166D01*
X143488833Y-108436833D01*
X143446500Y-108394500D01*
X143404167Y-108309833D01*
X143404167Y-107717166D02*
X143404167Y-107166833D01*
X143742833Y-107463166D01*
X143742833Y-107336166D01*
X143785167Y-107251499D01*
X143827500Y-107209166D01*
X143912167Y-107166833D01*
X144123833Y-107166833D01*
X144208500Y-107209166D01*
X144250833Y-107251499D01*
X144293167Y-107336166D01*
X144293167Y-107590166D01*
X144250833Y-107674833D01*
X144208500Y-107717166D01*
X147002500Y-109706833D02*
X147044833Y-109749167D01*
X147087167Y-109876167D01*
X147087167Y-109960833D01*
X147044833Y-110087833D01*
X146960167Y-110172500D01*
X146875500Y-110214833D01*
X146706167Y-110257167D01*
X146579167Y-110257167D01*
X146409833Y-110214833D01*
X146325167Y-110172500D01*
X146240500Y-110087833D01*
X146198167Y-109960833D01*
X146198167Y-109876167D01*
X146240500Y-109749167D01*
X146282833Y-109706833D01*
X147087167Y-108860167D02*
X147087167Y-109368167D01*
X147087167Y-109114167D02*
X146198167Y-109114167D01*
X146325167Y-109198833D01*
X146409833Y-109283500D01*
X146452167Y-109368167D01*
X146198167Y-108309833D02*
X146198167Y-108225166D01*
X146240500Y-108140500D01*
X146282833Y-108098166D01*
X146367500Y-108055833D01*
X146536833Y-108013500D01*
X146748500Y-108013500D01*
X146917833Y-108055833D01*
X147002500Y-108098166D01*
X147044833Y-108140500D01*
X147087167Y-108225166D01*
X147087167Y-108309833D01*
X147044833Y-108394500D01*
X147002500Y-108436833D01*
X146917833Y-108479166D01*
X146748500Y-108521500D01*
X146536833Y-108521500D01*
X146367500Y-108479166D01*
X146282833Y-108436833D01*
X146240500Y-108394500D01*
X146198167Y-108309833D01*
X146494500Y-107251499D02*
X147087167Y-107251499D01*
X146155833Y-107463166D02*
X146790833Y-107674833D01*
X146790833Y-107124499D01*
X138366500Y-109706833D02*
X138408833Y-109749167D01*
X138451167Y-109876167D01*
X138451167Y-109960833D01*
X138408833Y-110087833D01*
X138324167Y-110172500D01*
X138239500Y-110214833D01*
X138070167Y-110257167D01*
X137943167Y-110257167D01*
X137773833Y-110214833D01*
X137689167Y-110172500D01*
X137604500Y-110087833D01*
X137562167Y-109960833D01*
X137562167Y-109876167D01*
X137604500Y-109749167D01*
X137646833Y-109706833D01*
X138451167Y-108860167D02*
X138451167Y-109368167D01*
X138451167Y-109114167D02*
X137562167Y-109114167D01*
X137689167Y-109198833D01*
X137773833Y-109283500D01*
X137816167Y-109368167D01*
X137562167Y-108309833D02*
X137562167Y-108225166D01*
X137604500Y-108140500D01*
X137646833Y-108098166D01*
X137731500Y-108055833D01*
X137900833Y-108013500D01*
X138112500Y-108013500D01*
X138281833Y-108055833D01*
X138366500Y-108098166D01*
X138408833Y-108140500D01*
X138451167Y-108225166D01*
X138451167Y-108309833D01*
X138408833Y-108394500D01*
X138366500Y-108436833D01*
X138281833Y-108479166D01*
X138112500Y-108521500D01*
X137900833Y-108521500D01*
X137731500Y-108479166D01*
X137646833Y-108436833D01*
X137604500Y-108394500D01*
X137562167Y-108309833D01*
X137562167Y-107209166D02*
X137562167Y-107632499D01*
X137985500Y-107674833D01*
X137943167Y-107632499D01*
X137900833Y-107547833D01*
X137900833Y-107336166D01*
X137943167Y-107251499D01*
X137985500Y-107209166D01*
X138070167Y-107166833D01*
X138281833Y-107166833D01*
X138366500Y-107209166D01*
X138408833Y-107251499D01*
X138451167Y-107336166D01*
X138451167Y-107547833D01*
X138408833Y-107632499D01*
X138366500Y-107674833D01*
X136969500Y-109706833D02*
X137011833Y-109749167D01*
X137054167Y-109876167D01*
X137054167Y-109960833D01*
X137011833Y-110087833D01*
X136927167Y-110172500D01*
X136842500Y-110214833D01*
X136673167Y-110257167D01*
X136546167Y-110257167D01*
X136376833Y-110214833D01*
X136292167Y-110172500D01*
X136207500Y-110087833D01*
X136165167Y-109960833D01*
X136165167Y-109876167D01*
X136207500Y-109749167D01*
X136249833Y-109706833D01*
X137054167Y-108860167D02*
X137054167Y-109368167D01*
X137054167Y-109114167D02*
X136165167Y-109114167D01*
X136292167Y-109198833D01*
X136376833Y-109283500D01*
X136419167Y-109368167D01*
X136165167Y-108309833D02*
X136165167Y-108225166D01*
X136207500Y-108140500D01*
X136249833Y-108098166D01*
X136334500Y-108055833D01*
X136503833Y-108013500D01*
X136715500Y-108013500D01*
X136884833Y-108055833D01*
X136969500Y-108098166D01*
X137011833Y-108140500D01*
X137054167Y-108225166D01*
X137054167Y-108309833D01*
X137011833Y-108394500D01*
X136969500Y-108436833D01*
X136884833Y-108479166D01*
X136715500Y-108521500D01*
X136503833Y-108521500D01*
X136334500Y-108479166D01*
X136249833Y-108436833D01*
X136207500Y-108394500D01*
X136165167Y-108309833D01*
X136165167Y-107251499D02*
X136165167Y-107420833D01*
X136207500Y-107505499D01*
X136249833Y-107547833D01*
X136376833Y-107632499D01*
X136546167Y-107674833D01*
X136884833Y-107674833D01*
X136969500Y-107632499D01*
X137011833Y-107590166D01*
X137054167Y-107505499D01*
X137054167Y-107336166D01*
X137011833Y-107251499D01*
X136969500Y-107209166D01*
X136884833Y-107166833D01*
X136673167Y-107166833D01*
X136588500Y-107209166D01*
X136546167Y-107251499D01*
X136503833Y-107336166D01*
X136503833Y-107505499D01*
X136546167Y-107590166D01*
X136588500Y-107632499D01*
X136673167Y-107674833D01*
X134175500Y-109706833D02*
X134217833Y-109749167D01*
X134260167Y-109876167D01*
X134260167Y-109960833D01*
X134217833Y-110087833D01*
X134133167Y-110172500D01*
X134048500Y-110214833D01*
X133879167Y-110257167D01*
X133752167Y-110257167D01*
X133582833Y-110214833D01*
X133498167Y-110172500D01*
X133413500Y-110087833D01*
X133371167Y-109960833D01*
X133371167Y-109876167D01*
X133413500Y-109749167D01*
X133455833Y-109706833D01*
X134260167Y-108860167D02*
X134260167Y-109368167D01*
X134260167Y-109114167D02*
X133371167Y-109114167D01*
X133498167Y-109198833D01*
X133582833Y-109283500D01*
X133625167Y-109368167D01*
X133371167Y-108309833D02*
X133371167Y-108225166D01*
X133413500Y-108140500D01*
X133455833Y-108098166D01*
X133540500Y-108055833D01*
X133709833Y-108013500D01*
X133921500Y-108013500D01*
X134090833Y-108055833D01*
X134175500Y-108098166D01*
X134217833Y-108140500D01*
X134260167Y-108225166D01*
X134260167Y-108309833D01*
X134217833Y-108394500D01*
X134175500Y-108436833D01*
X134090833Y-108479166D01*
X133921500Y-108521500D01*
X133709833Y-108521500D01*
X133540500Y-108479166D01*
X133455833Y-108436833D01*
X133413500Y-108394500D01*
X133371167Y-108309833D01*
X133371167Y-107717166D02*
X133371167Y-107124499D01*
X134260167Y-107505499D01*
X131381500Y-109706833D02*
X131423833Y-109749167D01*
X131466167Y-109876167D01*
X131466167Y-109960833D01*
X131423833Y-110087833D01*
X131339167Y-110172500D01*
X131254500Y-110214833D01*
X131085167Y-110257167D01*
X130958167Y-110257167D01*
X130788833Y-110214833D01*
X130704167Y-110172500D01*
X130619500Y-110087833D01*
X130577167Y-109960833D01*
X130577167Y-109876167D01*
X130619500Y-109749167D01*
X130661833Y-109706833D01*
X131466167Y-108860167D02*
X131466167Y-109368167D01*
X131466167Y-109114167D02*
X130577167Y-109114167D01*
X130704167Y-109198833D01*
X130788833Y-109283500D01*
X130831167Y-109368167D01*
X130577167Y-108309833D02*
X130577167Y-108225166D01*
X130619500Y-108140500D01*
X130661833Y-108098166D01*
X130746500Y-108055833D01*
X130915833Y-108013500D01*
X131127500Y-108013500D01*
X131296833Y-108055833D01*
X131381500Y-108098166D01*
X131423833Y-108140500D01*
X131466167Y-108225166D01*
X131466167Y-108309833D01*
X131423833Y-108394500D01*
X131381500Y-108436833D01*
X131296833Y-108479166D01*
X131127500Y-108521500D01*
X130915833Y-108521500D01*
X130746500Y-108479166D01*
X130661833Y-108436833D01*
X130619500Y-108394500D01*
X130577167Y-108309833D01*
X130958167Y-107505499D02*
X130915833Y-107590166D01*
X130873500Y-107632499D01*
X130788833Y-107674833D01*
X130746500Y-107674833D01*
X130661833Y-107632499D01*
X130619500Y-107590166D01*
X130577167Y-107505499D01*
X130577167Y-107336166D01*
X130619500Y-107251499D01*
X130661833Y-107209166D01*
X130746500Y-107166833D01*
X130788833Y-107166833D01*
X130873500Y-107209166D01*
X130915833Y-107251499D01*
X130958167Y-107336166D01*
X130958167Y-107505499D01*
X131000500Y-107590166D01*
X131042833Y-107632499D01*
X131127500Y-107674833D01*
X131296833Y-107674833D01*
X131381500Y-107632499D01*
X131423833Y-107590166D01*
X131466167Y-107505499D01*
X131466167Y-107336166D01*
X131423833Y-107251499D01*
X131381500Y-107209166D01*
X131296833Y-107166833D01*
X131127500Y-107166833D01*
X131042833Y-107209166D01*
X131000500Y-107251499D01*
X130958167Y-107336166D01*
X128460500Y-109706833D02*
X128502833Y-109749167D01*
X128545167Y-109876167D01*
X128545167Y-109960833D01*
X128502833Y-110087833D01*
X128418167Y-110172500D01*
X128333500Y-110214833D01*
X128164167Y-110257167D01*
X128037167Y-110257167D01*
X127867833Y-110214833D01*
X127783167Y-110172500D01*
X127698500Y-110087833D01*
X127656167Y-109960833D01*
X127656167Y-109876167D01*
X127698500Y-109749167D01*
X127740833Y-109706833D01*
X128545167Y-108860167D02*
X128545167Y-109368167D01*
X128545167Y-109114167D02*
X127656167Y-109114167D01*
X127783167Y-109198833D01*
X127867833Y-109283500D01*
X127910167Y-109368167D01*
X127656167Y-108309833D02*
X127656167Y-108225166D01*
X127698500Y-108140500D01*
X127740833Y-108098166D01*
X127825500Y-108055833D01*
X127994833Y-108013500D01*
X128206500Y-108013500D01*
X128375833Y-108055833D01*
X128460500Y-108098166D01*
X128502833Y-108140500D01*
X128545167Y-108225166D01*
X128545167Y-108309833D01*
X128502833Y-108394500D01*
X128460500Y-108436833D01*
X128375833Y-108479166D01*
X128206500Y-108521500D01*
X127994833Y-108521500D01*
X127825500Y-108479166D01*
X127740833Y-108436833D01*
X127698500Y-108394500D01*
X127656167Y-108309833D01*
X128545167Y-107590166D02*
X128545167Y-107420833D01*
X128502833Y-107336166D01*
X128460500Y-107293833D01*
X128333500Y-107209166D01*
X128164167Y-107166833D01*
X127825500Y-107166833D01*
X127740833Y-107209166D01*
X127698500Y-107251499D01*
X127656167Y-107336166D01*
X127656167Y-107505499D01*
X127698500Y-107590166D01*
X127740833Y-107632499D01*
X127825500Y-107674833D01*
X128037167Y-107674833D01*
X128121833Y-107632499D01*
X128164167Y-107590166D01*
X128206500Y-107505499D01*
X128206500Y-107336166D01*
X128164167Y-107251499D01*
X128121833Y-107209166D01*
X128037167Y-107166833D01*
X130069167Y-100139500D02*
X130026833Y-100181833D01*
X129899833Y-100224167D01*
X129815167Y-100224167D01*
X129688167Y-100181833D01*
X129603500Y-100097167D01*
X129561167Y-100012500D01*
X129518833Y-99843167D01*
X129518833Y-99716167D01*
X129561167Y-99546833D01*
X129603500Y-99462167D01*
X129688167Y-99377500D01*
X129815167Y-99335167D01*
X129899833Y-99335167D01*
X130026833Y-99377500D01*
X130069167Y-99419833D01*
X130915833Y-100224167D02*
X130407833Y-100224167D01*
X130661833Y-100224167D02*
X130661833Y-99335167D01*
X130577167Y-99462167D01*
X130492500Y-99546833D01*
X130407833Y-99589167D01*
X131762500Y-100224167D02*
X131254500Y-100224167D01*
X131508500Y-100224167D02*
X131508500Y-99335167D01*
X131423834Y-99462167D01*
X131339167Y-99546833D01*
X131254500Y-99589167D01*
X132312834Y-99335167D02*
X132397501Y-99335167D01*
X132482167Y-99377500D01*
X132524501Y-99419833D01*
X132566834Y-99504500D01*
X132609167Y-99673833D01*
X132609167Y-99885500D01*
X132566834Y-100054833D01*
X132524501Y-100139500D01*
X132482167Y-100181833D01*
X132397501Y-100224167D01*
X132312834Y-100224167D01*
X132228167Y-100181833D01*
X132185834Y-100139500D01*
X132143501Y-100054833D01*
X132101167Y-99885500D01*
X132101167Y-99673833D01*
X132143501Y-99504500D01*
X132185834Y-99419833D01*
X132228167Y-99377500D01*
X132312834Y-99335167D01*
X142261167Y-101727000D02*
X142218833Y-101769333D01*
X142091833Y-101811667D01*
X142007167Y-101811667D01*
X141880167Y-101769333D01*
X141795500Y-101684667D01*
X141753167Y-101600000D01*
X141710833Y-101430667D01*
X141710833Y-101303667D01*
X141753167Y-101134333D01*
X141795500Y-101049667D01*
X141880167Y-100965000D01*
X142007167Y-100922667D01*
X142091833Y-100922667D01*
X142218833Y-100965000D01*
X142261167Y-101007333D01*
X143107833Y-101811667D02*
X142599833Y-101811667D01*
X142853833Y-101811667D02*
X142853833Y-100922667D01*
X142769167Y-101049667D01*
X142684500Y-101134333D01*
X142599833Y-101176667D01*
X143954500Y-101811667D02*
X143446500Y-101811667D01*
X143700500Y-101811667D02*
X143700500Y-100922667D01*
X143615834Y-101049667D01*
X143531167Y-101134333D01*
X143446500Y-101176667D01*
X144801167Y-101811667D02*
X144293167Y-101811667D01*
X144547167Y-101811667D02*
X144547167Y-100922667D01*
X144462501Y-101049667D01*
X144377834Y-101134333D01*
X144293167Y-101176667D01*
X128968500Y-95736833D02*
X129010833Y-95779167D01*
X129053167Y-95906167D01*
X129053167Y-95990833D01*
X129010833Y-96117833D01*
X128926167Y-96202500D01*
X128841500Y-96244833D01*
X128672167Y-96287167D01*
X128545167Y-96287167D01*
X128375833Y-96244833D01*
X128291167Y-96202500D01*
X128206500Y-96117833D01*
X128164167Y-95990833D01*
X128164167Y-95906167D01*
X128206500Y-95779167D01*
X128248833Y-95736833D01*
X129053167Y-94890167D02*
X129053167Y-95398167D01*
X129053167Y-95144167D02*
X128164167Y-95144167D01*
X128291167Y-95228833D01*
X128375833Y-95313500D01*
X128418167Y-95398167D01*
X129053167Y-94043500D02*
X129053167Y-94551500D01*
X129053167Y-94297500D02*
X128164167Y-94297500D01*
X128291167Y-94382166D01*
X128375833Y-94466833D01*
X128418167Y-94551500D01*
X128248833Y-93704833D02*
X128206500Y-93662499D01*
X128164167Y-93577833D01*
X128164167Y-93366166D01*
X128206500Y-93281499D01*
X128248833Y-93239166D01*
X128333500Y-93196833D01*
X128418167Y-93196833D01*
X128545167Y-93239166D01*
X129053167Y-93747166D01*
X129053167Y-93196833D01*
X126894167Y-88582500D02*
X126851833Y-88624833D01*
X126724833Y-88667167D01*
X126640167Y-88667167D01*
X126513167Y-88624833D01*
X126428500Y-88540167D01*
X126386167Y-88455500D01*
X126343833Y-88286167D01*
X126343833Y-88159167D01*
X126386167Y-87989833D01*
X126428500Y-87905167D01*
X126513167Y-87820500D01*
X126640167Y-87778167D01*
X126724833Y-87778167D01*
X126851833Y-87820500D01*
X126894167Y-87862833D01*
X127740833Y-88667167D02*
X127232833Y-88667167D01*
X127486833Y-88667167D02*
X127486833Y-87778167D01*
X127402167Y-87905167D01*
X127317500Y-87989833D01*
X127232833Y-88032167D01*
X128587500Y-88667167D02*
X128079500Y-88667167D01*
X128333500Y-88667167D02*
X128333500Y-87778167D01*
X128248834Y-87905167D01*
X128164167Y-87989833D01*
X128079500Y-88032167D01*
X128883834Y-87778167D02*
X129434167Y-87778167D01*
X129137834Y-88116833D01*
X129264834Y-88116833D01*
X129349501Y-88159167D01*
X129391834Y-88201500D01*
X129434167Y-88286167D01*
X129434167Y-88497833D01*
X129391834Y-88582500D01*
X129349501Y-88624833D01*
X129264834Y-88667167D01*
X129010834Y-88667167D01*
X128926167Y-88624833D01*
X128883834Y-88582500D01*
X134768167Y-88582500D02*
X134725833Y-88624833D01*
X134598833Y-88667167D01*
X134514167Y-88667167D01*
X134387167Y-88624833D01*
X134302500Y-88540167D01*
X134260167Y-88455500D01*
X134217833Y-88286167D01*
X134217833Y-88159167D01*
X134260167Y-87989833D01*
X134302500Y-87905167D01*
X134387167Y-87820500D01*
X134514167Y-87778167D01*
X134598833Y-87778167D01*
X134725833Y-87820500D01*
X134768167Y-87862833D01*
X135614833Y-88667167D02*
X135106833Y-88667167D01*
X135360833Y-88667167D02*
X135360833Y-87778167D01*
X135276167Y-87905167D01*
X135191500Y-87989833D01*
X135106833Y-88032167D01*
X136461500Y-88667167D02*
X135953500Y-88667167D01*
X136207500Y-88667167D02*
X136207500Y-87778167D01*
X136122834Y-87905167D01*
X136038167Y-87989833D01*
X135953500Y-88032167D01*
X137223501Y-88074500D02*
X137223501Y-88667167D01*
X137011834Y-87735833D02*
X136800167Y-88370833D01*
X137350501Y-88370833D01*
X148907500Y-102213833D02*
X148949833Y-102256167D01*
X148992167Y-102383167D01*
X148992167Y-102467833D01*
X148949833Y-102594833D01*
X148865167Y-102679500D01*
X148780500Y-102721833D01*
X148611167Y-102764167D01*
X148484167Y-102764167D01*
X148314833Y-102721833D01*
X148230167Y-102679500D01*
X148145500Y-102594833D01*
X148103167Y-102467833D01*
X148103167Y-102383167D01*
X148145500Y-102256167D01*
X148187833Y-102213833D01*
X148992167Y-101367167D02*
X148992167Y-101875167D01*
X148992167Y-101621167D02*
X148103167Y-101621167D01*
X148230167Y-101705833D01*
X148314833Y-101790500D01*
X148357167Y-101875167D01*
X148992167Y-100520500D02*
X148992167Y-101028500D01*
X148992167Y-100774500D02*
X148103167Y-100774500D01*
X148230167Y-100859166D01*
X148314833Y-100943833D01*
X148357167Y-101028500D01*
X148103167Y-99716166D02*
X148103167Y-100139499D01*
X148526500Y-100181833D01*
X148484167Y-100139499D01*
X148441833Y-100054833D01*
X148441833Y-99843166D01*
X148484167Y-99758499D01*
X148526500Y-99716166D01*
X148611167Y-99673833D01*
X148822833Y-99673833D01*
X148907500Y-99716166D01*
X148949833Y-99758499D01*
X148992167Y-99843166D01*
X148992167Y-100054833D01*
X148949833Y-100139499D01*
X148907500Y-100181833D01*
X146939000Y-102213833D02*
X146981333Y-102256167D01*
X147023667Y-102383167D01*
X147023667Y-102467833D01*
X146981333Y-102594833D01*
X146896667Y-102679500D01*
X146812000Y-102721833D01*
X146642667Y-102764167D01*
X146515667Y-102764167D01*
X146346333Y-102721833D01*
X146261667Y-102679500D01*
X146177000Y-102594833D01*
X146134667Y-102467833D01*
X146134667Y-102383167D01*
X146177000Y-102256167D01*
X146219333Y-102213833D01*
X147023667Y-101367167D02*
X147023667Y-101875167D01*
X147023667Y-101621167D02*
X146134667Y-101621167D01*
X146261667Y-101705833D01*
X146346333Y-101790500D01*
X146388667Y-101875167D01*
X147023667Y-100520500D02*
X147023667Y-101028500D01*
X147023667Y-100774500D02*
X146134667Y-100774500D01*
X146261667Y-100859166D01*
X146346333Y-100943833D01*
X146388667Y-101028500D01*
X146134667Y-99758499D02*
X146134667Y-99927833D01*
X146177000Y-100012499D01*
X146219333Y-100054833D01*
X146346333Y-100139499D01*
X146515667Y-100181833D01*
X146854333Y-100181833D01*
X146939000Y-100139499D01*
X146981333Y-100097166D01*
X147023667Y-100012499D01*
X147023667Y-99843166D01*
X146981333Y-99758499D01*
X146939000Y-99716166D01*
X146854333Y-99673833D01*
X146642667Y-99673833D01*
X146558000Y-99716166D01*
X146515667Y-99758499D01*
X146473333Y-99843166D01*
X146473333Y-100012499D01*
X146515667Y-100097166D01*
X146558000Y-100139499D01*
X146642667Y-100181833D01*
X132101167Y-94424500D02*
X132058833Y-94466833D01*
X131931833Y-94509167D01*
X131847167Y-94509167D01*
X131720167Y-94466833D01*
X131635500Y-94382167D01*
X131593167Y-94297500D01*
X131550833Y-94128167D01*
X131550833Y-94001167D01*
X131593167Y-93831833D01*
X131635500Y-93747167D01*
X131720167Y-93662500D01*
X131847167Y-93620167D01*
X131931833Y-93620167D01*
X132058833Y-93662500D01*
X132101167Y-93704833D01*
X132947833Y-94509167D02*
X132439833Y-94509167D01*
X132693833Y-94509167D02*
X132693833Y-93620167D01*
X132609167Y-93747167D01*
X132524500Y-93831833D01*
X132439833Y-93874167D01*
X133794500Y-94509167D02*
X133286500Y-94509167D01*
X133540500Y-94509167D02*
X133540500Y-93620167D01*
X133455834Y-93747167D01*
X133371167Y-93831833D01*
X133286500Y-93874167D01*
X134090834Y-93620167D02*
X134683501Y-93620167D01*
X134302501Y-94509167D01*
X150262167Y-89090500D02*
X150897167Y-89090500D01*
X151024167Y-89132834D01*
X151108833Y-89217500D01*
X151151167Y-89344500D01*
X151151167Y-89429167D01*
X151151167Y-88201501D02*
X151151167Y-88709501D01*
X151151167Y-88455501D02*
X150262167Y-88455501D01*
X150389167Y-88540167D01*
X150473833Y-88624834D01*
X150516167Y-88709501D01*
X150262167Y-87651167D02*
X150262167Y-87566500D01*
X150304500Y-87481834D01*
X150346833Y-87439500D01*
X150431500Y-87397167D01*
X150600833Y-87354834D01*
X150812500Y-87354834D01*
X150981833Y-87397167D01*
X151066500Y-87439500D01*
X151108833Y-87481834D01*
X151151167Y-87566500D01*
X151151167Y-87651167D01*
X151108833Y-87735834D01*
X151066500Y-87778167D01*
X150981833Y-87820500D01*
X150812500Y-87862834D01*
X150600833Y-87862834D01*
X150431500Y-87820500D01*
X150346833Y-87778167D01*
X150304500Y-87735834D01*
X150262167Y-87651167D01*
X151151167Y-86508167D02*
X151151167Y-87016167D01*
X151151167Y-86762167D02*
X150262167Y-86762167D01*
X150389167Y-86846833D01*
X150473833Y-86931500D01*
X150516167Y-87016167D01*
X150262167Y-109706833D02*
X149838833Y-110003167D01*
X150262167Y-110214833D02*
X149373167Y-110214833D01*
X149373167Y-109876167D01*
X149415500Y-109791500D01*
X149457833Y-109749167D01*
X149542500Y-109706833D01*
X149669500Y-109706833D01*
X149754167Y-109749167D01*
X149796500Y-109791500D01*
X149838833Y-109876167D01*
X149838833Y-110214833D01*
X150262167Y-108860167D02*
X150262167Y-109368167D01*
X150262167Y-109114167D02*
X149373167Y-109114167D01*
X149500167Y-109198833D01*
X149584833Y-109283500D01*
X149627167Y-109368167D01*
X149373167Y-108309833D02*
X149373167Y-108225166D01*
X149415500Y-108140500D01*
X149457833Y-108098166D01*
X149542500Y-108055833D01*
X149711833Y-108013500D01*
X149923500Y-108013500D01*
X150092833Y-108055833D01*
X150177500Y-108098166D01*
X150219833Y-108140500D01*
X150262167Y-108225166D01*
X150262167Y-108309833D01*
X150219833Y-108394500D01*
X150177500Y-108436833D01*
X150092833Y-108479166D01*
X149923500Y-108521500D01*
X149711833Y-108521500D01*
X149542500Y-108479166D01*
X149457833Y-108436833D01*
X149415500Y-108394500D01*
X149373167Y-108309833D01*
X149457833Y-107674833D02*
X149415500Y-107632499D01*
X149373167Y-107547833D01*
X149373167Y-107336166D01*
X149415500Y-107251499D01*
X149457833Y-107209166D01*
X149542500Y-107166833D01*
X149627167Y-107166833D01*
X149754167Y-107209166D01*
X150262167Y-107717166D01*
X150262167Y-107166833D01*
X153056167Y-109706833D02*
X152632833Y-110003167D01*
X153056167Y-110214833D02*
X152167167Y-110214833D01*
X152167167Y-109876167D01*
X152209500Y-109791500D01*
X152251833Y-109749167D01*
X152336500Y-109706833D01*
X152463500Y-109706833D01*
X152548167Y-109749167D01*
X152590500Y-109791500D01*
X152632833Y-109876167D01*
X152632833Y-110214833D01*
X153056167Y-108860167D02*
X153056167Y-109368167D01*
X153056167Y-109114167D02*
X152167167Y-109114167D01*
X152294167Y-109198833D01*
X152378833Y-109283500D01*
X152421167Y-109368167D01*
X152167167Y-108309833D02*
X152167167Y-108225166D01*
X152209500Y-108140500D01*
X152251833Y-108098166D01*
X152336500Y-108055833D01*
X152505833Y-108013500D01*
X152717500Y-108013500D01*
X152886833Y-108055833D01*
X152971500Y-108098166D01*
X153013833Y-108140500D01*
X153056167Y-108225166D01*
X153056167Y-108309833D01*
X153013833Y-108394500D01*
X152971500Y-108436833D01*
X152886833Y-108479166D01*
X152717500Y-108521500D01*
X152505833Y-108521500D01*
X152336500Y-108479166D01*
X152251833Y-108436833D01*
X152209500Y-108394500D01*
X152167167Y-108309833D01*
X152167167Y-107717166D02*
X152167167Y-107166833D01*
X152505833Y-107463166D01*
X152505833Y-107336166D01*
X152548167Y-107251499D01*
X152590500Y-107209166D01*
X152675167Y-107166833D01*
X152886833Y-107166833D01*
X152971500Y-107209166D01*
X153013833Y-107251499D01*
X153056167Y-107336166D01*
X153056167Y-107590166D01*
X153013833Y-107674833D01*
X152971500Y-107717166D01*
X154453167Y-109706833D02*
X154029833Y-110003167D01*
X154453167Y-110214833D02*
X153564167Y-110214833D01*
X153564167Y-109876167D01*
X153606500Y-109791500D01*
X153648833Y-109749167D01*
X153733500Y-109706833D01*
X153860500Y-109706833D01*
X153945167Y-109749167D01*
X153987500Y-109791500D01*
X154029833Y-109876167D01*
X154029833Y-110214833D01*
X154453167Y-108860167D02*
X154453167Y-109368167D01*
X154453167Y-109114167D02*
X153564167Y-109114167D01*
X153691167Y-109198833D01*
X153775833Y-109283500D01*
X153818167Y-109368167D01*
X153564167Y-108309833D02*
X153564167Y-108225166D01*
X153606500Y-108140500D01*
X153648833Y-108098166D01*
X153733500Y-108055833D01*
X153902833Y-108013500D01*
X154114500Y-108013500D01*
X154283833Y-108055833D01*
X154368500Y-108098166D01*
X154410833Y-108140500D01*
X154453167Y-108225166D01*
X154453167Y-108309833D01*
X154410833Y-108394500D01*
X154368500Y-108436833D01*
X154283833Y-108479166D01*
X154114500Y-108521500D01*
X153902833Y-108521500D01*
X153733500Y-108479166D01*
X153648833Y-108436833D01*
X153606500Y-108394500D01*
X153564167Y-108309833D01*
X153860500Y-107251499D02*
X154453167Y-107251499D01*
X153521833Y-107463166D02*
X154156833Y-107674833D01*
X154156833Y-107124499D01*
X155850167Y-109706833D02*
X155426833Y-110003167D01*
X155850167Y-110214833D02*
X154961167Y-110214833D01*
X154961167Y-109876167D01*
X155003500Y-109791500D01*
X155045833Y-109749167D01*
X155130500Y-109706833D01*
X155257500Y-109706833D01*
X155342167Y-109749167D01*
X155384500Y-109791500D01*
X155426833Y-109876167D01*
X155426833Y-110214833D01*
X155850167Y-108860167D02*
X155850167Y-109368167D01*
X155850167Y-109114167D02*
X154961167Y-109114167D01*
X155088167Y-109198833D01*
X155172833Y-109283500D01*
X155215167Y-109368167D01*
X154961167Y-108309833D02*
X154961167Y-108225166D01*
X155003500Y-108140500D01*
X155045833Y-108098166D01*
X155130500Y-108055833D01*
X155299833Y-108013500D01*
X155511500Y-108013500D01*
X155680833Y-108055833D01*
X155765500Y-108098166D01*
X155807833Y-108140500D01*
X155850167Y-108225166D01*
X155850167Y-108309833D01*
X155807833Y-108394500D01*
X155765500Y-108436833D01*
X155680833Y-108479166D01*
X155511500Y-108521500D01*
X155299833Y-108521500D01*
X155130500Y-108479166D01*
X155045833Y-108436833D01*
X155003500Y-108394500D01*
X154961167Y-108309833D01*
X154961167Y-107209166D02*
X154961167Y-107632499D01*
X155384500Y-107674833D01*
X155342167Y-107632499D01*
X155299833Y-107547833D01*
X155299833Y-107336166D01*
X155342167Y-107251499D01*
X155384500Y-107209166D01*
X155469167Y-107166833D01*
X155680833Y-107166833D01*
X155765500Y-107209166D01*
X155807833Y-107251499D01*
X155850167Y-107336166D01*
X155850167Y-107547833D01*
X155807833Y-107632499D01*
X155765500Y-107674833D01*
X151659167Y-109706833D02*
X151235833Y-110003167D01*
X151659167Y-110214833D02*
X150770167Y-110214833D01*
X150770167Y-109876167D01*
X150812500Y-109791500D01*
X150854833Y-109749167D01*
X150939500Y-109706833D01*
X151066500Y-109706833D01*
X151151167Y-109749167D01*
X151193500Y-109791500D01*
X151235833Y-109876167D01*
X151235833Y-110214833D01*
X151659167Y-108860167D02*
X151659167Y-109368167D01*
X151659167Y-109114167D02*
X150770167Y-109114167D01*
X150897167Y-109198833D01*
X150981833Y-109283500D01*
X151024167Y-109368167D01*
X150770167Y-108309833D02*
X150770167Y-108225166D01*
X150812500Y-108140500D01*
X150854833Y-108098166D01*
X150939500Y-108055833D01*
X151108833Y-108013500D01*
X151320500Y-108013500D01*
X151489833Y-108055833D01*
X151574500Y-108098166D01*
X151616833Y-108140500D01*
X151659167Y-108225166D01*
X151659167Y-108309833D01*
X151616833Y-108394500D01*
X151574500Y-108436833D01*
X151489833Y-108479166D01*
X151320500Y-108521500D01*
X151108833Y-108521500D01*
X150939500Y-108479166D01*
X150854833Y-108436833D01*
X150812500Y-108394500D01*
X150770167Y-108309833D01*
X150770167Y-107251499D02*
X150770167Y-107420833D01*
X150812500Y-107505499D01*
X150854833Y-107547833D01*
X150981833Y-107632499D01*
X151151167Y-107674833D01*
X151489833Y-107674833D01*
X151574500Y-107632499D01*
X151616833Y-107590166D01*
X151659167Y-107505499D01*
X151659167Y-107336166D01*
X151616833Y-107251499D01*
X151574500Y-107209166D01*
X151489833Y-107166833D01*
X151278167Y-107166833D01*
X151193500Y-107209166D01*
X151151167Y-107251499D01*
X151108833Y-107336166D01*
X151108833Y-107505499D01*
X151151167Y-107590166D01*
X151193500Y-107632499D01*
X151278167Y-107674833D01*
X152167167Y-102975833D02*
X151743833Y-103272167D01*
X152167167Y-103483833D02*
X151278167Y-103483833D01*
X151278167Y-103145167D01*
X151320500Y-103060500D01*
X151362833Y-103018167D01*
X151447500Y-102975833D01*
X151574500Y-102975833D01*
X151659167Y-103018167D01*
X151701500Y-103060500D01*
X151743833Y-103145167D01*
X151743833Y-103483833D01*
X152167167Y-102129167D02*
X152167167Y-102637167D01*
X152167167Y-102383167D02*
X151278167Y-102383167D01*
X151405167Y-102467833D01*
X151489833Y-102552500D01*
X151532167Y-102637167D01*
X151278167Y-101578833D02*
X151278167Y-101494166D01*
X151320500Y-101409500D01*
X151362833Y-101367166D01*
X151447500Y-101324833D01*
X151616833Y-101282500D01*
X151828500Y-101282500D01*
X151997833Y-101324833D01*
X152082500Y-101367166D01*
X152124833Y-101409500D01*
X152167167Y-101494166D01*
X152167167Y-101578833D01*
X152124833Y-101663500D01*
X152082500Y-101705833D01*
X151997833Y-101748166D01*
X151828500Y-101790500D01*
X151616833Y-101790500D01*
X151447500Y-101748166D01*
X151362833Y-101705833D01*
X151320500Y-101663500D01*
X151278167Y-101578833D01*
X151278167Y-100986166D02*
X151278167Y-100393499D01*
X152167167Y-100774499D01*
X153945167Y-103026633D02*
X153521833Y-103322967D01*
X153945167Y-103534633D02*
X153056167Y-103534633D01*
X153056167Y-103195967D01*
X153098500Y-103111300D01*
X153140833Y-103068967D01*
X153225500Y-103026633D01*
X153352500Y-103026633D01*
X153437167Y-103068967D01*
X153479500Y-103111300D01*
X153521833Y-103195967D01*
X153521833Y-103534633D01*
X153945167Y-102179967D02*
X153945167Y-102687967D01*
X153945167Y-102433967D02*
X153056167Y-102433967D01*
X153183167Y-102518633D01*
X153267833Y-102603300D01*
X153310167Y-102687967D01*
X153056167Y-101629633D02*
X153056167Y-101544966D01*
X153098500Y-101460300D01*
X153140833Y-101417966D01*
X153225500Y-101375633D01*
X153394833Y-101333300D01*
X153606500Y-101333300D01*
X153775833Y-101375633D01*
X153860500Y-101417966D01*
X153902833Y-101460300D01*
X153945167Y-101544966D01*
X153945167Y-101629633D01*
X153902833Y-101714300D01*
X153860500Y-101756633D01*
X153775833Y-101798966D01*
X153606500Y-101841300D01*
X153394833Y-101841300D01*
X153225500Y-101798966D01*
X153140833Y-101756633D01*
X153098500Y-101714300D01*
X153056167Y-101629633D01*
X153437167Y-100825299D02*
X153394833Y-100909966D01*
X153352500Y-100952299D01*
X153267833Y-100994633D01*
X153225500Y-100994633D01*
X153140833Y-100952299D01*
X153098500Y-100909966D01*
X153056167Y-100825299D01*
X153056167Y-100655966D01*
X153098500Y-100571299D01*
X153140833Y-100528966D01*
X153225500Y-100486633D01*
X153267833Y-100486633D01*
X153352500Y-100528966D01*
X153394833Y-100571299D01*
X153437167Y-100655966D01*
X153437167Y-100825299D01*
X153479500Y-100909966D01*
X153521833Y-100952299D01*
X153606500Y-100994633D01*
X153775833Y-100994633D01*
X153860500Y-100952299D01*
X153902833Y-100909966D01*
X153945167Y-100825299D01*
X153945167Y-100655966D01*
X153902833Y-100571299D01*
X153860500Y-100528966D01*
X153775833Y-100486633D01*
X153606500Y-100486633D01*
X153521833Y-100528966D01*
X153479500Y-100571299D01*
X153437167Y-100655966D01*
X150312967Y-102975833D02*
X149889633Y-103272167D01*
X150312967Y-103483833D02*
X149423967Y-103483833D01*
X149423967Y-103145167D01*
X149466300Y-103060500D01*
X149508633Y-103018167D01*
X149593300Y-102975833D01*
X149720300Y-102975833D01*
X149804967Y-103018167D01*
X149847300Y-103060500D01*
X149889633Y-103145167D01*
X149889633Y-103483833D01*
X150312967Y-102129167D02*
X150312967Y-102637167D01*
X150312967Y-102383167D02*
X149423967Y-102383167D01*
X149550967Y-102467833D01*
X149635633Y-102552500D01*
X149677967Y-102637167D01*
X150312967Y-101282500D02*
X150312967Y-101790500D01*
X150312967Y-101536500D02*
X149423967Y-101536500D01*
X149550967Y-101621166D01*
X149635633Y-101705833D01*
X149677967Y-101790500D01*
X149423967Y-100732166D02*
X149423967Y-100647499D01*
X149466300Y-100562833D01*
X149508633Y-100520499D01*
X149593300Y-100478166D01*
X149762633Y-100435833D01*
X149974300Y-100435833D01*
X150143633Y-100478166D01*
X150228300Y-100520499D01*
X150270633Y-100562833D01*
X150312967Y-100647499D01*
X150312967Y-100732166D01*
X150270633Y-100816833D01*
X150228300Y-100859166D01*
X150143633Y-100901499D01*
X149974300Y-100943833D01*
X149762633Y-100943833D01*
X149593300Y-100901499D01*
X149508633Y-100859166D01*
X149466300Y-100816833D01*
X149423967Y-100732166D01*
X149881167Y-90889667D02*
X149584833Y-90466333D01*
X149373167Y-90889667D02*
X149373167Y-90000667D01*
X149711833Y-90000667D01*
X149796500Y-90043000D01*
X149838833Y-90085333D01*
X149881167Y-90170000D01*
X149881167Y-90297000D01*
X149838833Y-90381667D01*
X149796500Y-90424000D01*
X149711833Y-90466333D01*
X149373167Y-90466333D01*
X150727833Y-90889667D02*
X150219833Y-90889667D01*
X150473833Y-90889667D02*
X150473833Y-90000667D01*
X150389167Y-90127667D01*
X150304500Y-90212333D01*
X150219833Y-90254667D01*
X151574500Y-90889667D02*
X151066500Y-90889667D01*
X151320500Y-90889667D02*
X151320500Y-90000667D01*
X151235834Y-90127667D01*
X151151167Y-90212333D01*
X151066500Y-90254667D01*
X152421167Y-90889667D02*
X151913167Y-90889667D01*
X152167167Y-90889667D02*
X152167167Y-90000667D01*
X152082501Y-90127667D01*
X151997834Y-90212333D01*
X151913167Y-90254667D01*
X147341167Y-92096167D02*
X147044833Y-91672833D01*
X146833167Y-92096167D02*
X146833167Y-91207167D01*
X147171833Y-91207167D01*
X147256500Y-91249500D01*
X147298833Y-91291833D01*
X147341167Y-91376500D01*
X147341167Y-91503500D01*
X147298833Y-91588167D01*
X147256500Y-91630500D01*
X147171833Y-91672833D01*
X146833167Y-91672833D01*
X148187833Y-92096167D02*
X147679833Y-92096167D01*
X147933833Y-92096167D02*
X147933833Y-91207167D01*
X147849167Y-91334167D01*
X147764500Y-91418833D01*
X147679833Y-91461167D01*
X149034500Y-92096167D02*
X148526500Y-92096167D01*
X148780500Y-92096167D02*
X148780500Y-91207167D01*
X148695834Y-91334167D01*
X148611167Y-91418833D01*
X148526500Y-91461167D01*
X149373167Y-91291833D02*
X149415501Y-91249500D01*
X149500167Y-91207167D01*
X149711834Y-91207167D01*
X149796501Y-91249500D01*
X149838834Y-91291833D01*
X149881167Y-91376500D01*
X149881167Y-91461167D01*
X149838834Y-91588167D01*
X149330834Y-92096167D01*
X149881167Y-92096167D01*
X139848167Y-109706833D02*
X139424833Y-110003167D01*
X139848167Y-110214833D02*
X138959167Y-110214833D01*
X138959167Y-109876167D01*
X139001500Y-109791500D01*
X139043833Y-109749167D01*
X139128500Y-109706833D01*
X139255500Y-109706833D01*
X139340167Y-109749167D01*
X139382500Y-109791500D01*
X139424833Y-109876167D01*
X139424833Y-110214833D01*
X139848167Y-108860167D02*
X139848167Y-109368167D01*
X139848167Y-109114167D02*
X138959167Y-109114167D01*
X139086167Y-109198833D01*
X139170833Y-109283500D01*
X139213167Y-109368167D01*
X139848167Y-108013500D02*
X139848167Y-108521500D01*
X139848167Y-108267500D02*
X138959167Y-108267500D01*
X139086167Y-108352166D01*
X139170833Y-108436833D01*
X139213167Y-108521500D01*
X138959167Y-107717166D02*
X138959167Y-107166833D01*
X139297833Y-107463166D01*
X139297833Y-107336166D01*
X139340167Y-107251499D01*
X139382500Y-107209166D01*
X139467167Y-107166833D01*
X139678833Y-107166833D01*
X139763500Y-107209166D01*
X139805833Y-107251499D01*
X139848167Y-107336166D01*
X139848167Y-107590166D01*
X139805833Y-107674833D01*
X139763500Y-107717166D01*
X142896167Y-109706833D02*
X142472833Y-110003167D01*
X142896167Y-110214833D02*
X142007167Y-110214833D01*
X142007167Y-109876167D01*
X142049500Y-109791500D01*
X142091833Y-109749167D01*
X142176500Y-109706833D01*
X142303500Y-109706833D01*
X142388167Y-109749167D01*
X142430500Y-109791500D01*
X142472833Y-109876167D01*
X142472833Y-110214833D01*
X142896167Y-108860167D02*
X142896167Y-109368167D01*
X142896167Y-109114167D02*
X142007167Y-109114167D01*
X142134167Y-109198833D01*
X142218833Y-109283500D01*
X142261167Y-109368167D01*
X142896167Y-108013500D02*
X142896167Y-108521500D01*
X142896167Y-108267500D02*
X142007167Y-108267500D01*
X142134167Y-108352166D01*
X142218833Y-108436833D01*
X142261167Y-108521500D01*
X142303500Y-107251499D02*
X142896167Y-107251499D01*
X141964833Y-107463166D02*
X142599833Y-107674833D01*
X142599833Y-107124499D01*
X145690167Y-109706833D02*
X145266833Y-110003167D01*
X145690167Y-110214833D02*
X144801167Y-110214833D01*
X144801167Y-109876167D01*
X144843500Y-109791500D01*
X144885833Y-109749167D01*
X144970500Y-109706833D01*
X145097500Y-109706833D01*
X145182167Y-109749167D01*
X145224500Y-109791500D01*
X145266833Y-109876167D01*
X145266833Y-110214833D01*
X145690167Y-108860167D02*
X145690167Y-109368167D01*
X145690167Y-109114167D02*
X144801167Y-109114167D01*
X144928167Y-109198833D01*
X145012833Y-109283500D01*
X145055167Y-109368167D01*
X145690167Y-108013500D02*
X145690167Y-108521500D01*
X145690167Y-108267500D02*
X144801167Y-108267500D01*
X144928167Y-108352166D01*
X145012833Y-108436833D01*
X145055167Y-108521500D01*
X144801167Y-107209166D02*
X144801167Y-107632499D01*
X145224500Y-107674833D01*
X145182167Y-107632499D01*
X145139833Y-107547833D01*
X145139833Y-107336166D01*
X145182167Y-107251499D01*
X145224500Y-107209166D01*
X145309167Y-107166833D01*
X145520833Y-107166833D01*
X145605500Y-107209166D01*
X145647833Y-107251499D01*
X145690167Y-107336166D01*
X145690167Y-107547833D01*
X145647833Y-107632499D01*
X145605500Y-107674833D01*
X135657167Y-109706833D02*
X135233833Y-110003167D01*
X135657167Y-110214833D02*
X134768167Y-110214833D01*
X134768167Y-109876167D01*
X134810500Y-109791500D01*
X134852833Y-109749167D01*
X134937500Y-109706833D01*
X135064500Y-109706833D01*
X135149167Y-109749167D01*
X135191500Y-109791500D01*
X135233833Y-109876167D01*
X135233833Y-110214833D01*
X135657167Y-108860167D02*
X135657167Y-109368167D01*
X135657167Y-109114167D02*
X134768167Y-109114167D01*
X134895167Y-109198833D01*
X134979833Y-109283500D01*
X135022167Y-109368167D01*
X135657167Y-108013500D02*
X135657167Y-108521500D01*
X135657167Y-108267500D02*
X134768167Y-108267500D01*
X134895167Y-108352166D01*
X134979833Y-108436833D01*
X135022167Y-108521500D01*
X134768167Y-107251499D02*
X134768167Y-107420833D01*
X134810500Y-107505499D01*
X134852833Y-107547833D01*
X134979833Y-107632499D01*
X135149167Y-107674833D01*
X135487833Y-107674833D01*
X135572500Y-107632499D01*
X135614833Y-107590166D01*
X135657167Y-107505499D01*
X135657167Y-107336166D01*
X135614833Y-107251499D01*
X135572500Y-107209166D01*
X135487833Y-107166833D01*
X135276167Y-107166833D01*
X135191500Y-107209166D01*
X135149167Y-107251499D01*
X135106833Y-107336166D01*
X135106833Y-107505499D01*
X135149167Y-107590166D01*
X135191500Y-107632499D01*
X135276167Y-107674833D01*
X132863167Y-109706833D02*
X132439833Y-110003167D01*
X132863167Y-110214833D02*
X131974167Y-110214833D01*
X131974167Y-109876167D01*
X132016500Y-109791500D01*
X132058833Y-109749167D01*
X132143500Y-109706833D01*
X132270500Y-109706833D01*
X132355167Y-109749167D01*
X132397500Y-109791500D01*
X132439833Y-109876167D01*
X132439833Y-110214833D01*
X132863167Y-108860167D02*
X132863167Y-109368167D01*
X132863167Y-109114167D02*
X131974167Y-109114167D01*
X132101167Y-109198833D01*
X132185833Y-109283500D01*
X132228167Y-109368167D01*
X132863167Y-108013500D02*
X132863167Y-108521500D01*
X132863167Y-108267500D02*
X131974167Y-108267500D01*
X132101167Y-108352166D01*
X132185833Y-108436833D01*
X132228167Y-108521500D01*
X131974167Y-107717166D02*
X131974167Y-107124499D01*
X132863167Y-107505499D01*
X130069167Y-109706833D02*
X129645833Y-110003167D01*
X130069167Y-110214833D02*
X129180167Y-110214833D01*
X129180167Y-109876167D01*
X129222500Y-109791500D01*
X129264833Y-109749167D01*
X129349500Y-109706833D01*
X129476500Y-109706833D01*
X129561167Y-109749167D01*
X129603500Y-109791500D01*
X129645833Y-109876167D01*
X129645833Y-110214833D01*
X130069167Y-108860167D02*
X130069167Y-109368167D01*
X130069167Y-109114167D02*
X129180167Y-109114167D01*
X129307167Y-109198833D01*
X129391833Y-109283500D01*
X129434167Y-109368167D01*
X130069167Y-108013500D02*
X130069167Y-108521500D01*
X130069167Y-108267500D02*
X129180167Y-108267500D01*
X129307167Y-108352166D01*
X129391833Y-108436833D01*
X129434167Y-108521500D01*
X129561167Y-107505499D02*
X129518833Y-107590166D01*
X129476500Y-107632499D01*
X129391833Y-107674833D01*
X129349500Y-107674833D01*
X129264833Y-107632499D01*
X129222500Y-107590166D01*
X129180167Y-107505499D01*
X129180167Y-107336166D01*
X129222500Y-107251499D01*
X129264833Y-107209166D01*
X129349500Y-107166833D01*
X129391833Y-107166833D01*
X129476500Y-107209166D01*
X129518833Y-107251499D01*
X129561167Y-107336166D01*
X129561167Y-107505499D01*
X129603500Y-107590166D01*
X129645833Y-107632499D01*
X129730500Y-107674833D01*
X129899833Y-107674833D01*
X129984500Y-107632499D01*
X130026833Y-107590166D01*
X130069167Y-107505499D01*
X130069167Y-107336166D01*
X130026833Y-107251499D01*
X129984500Y-107209166D01*
X129899833Y-107166833D01*
X129730500Y-107166833D01*
X129645833Y-107209166D01*
X129603500Y-107251499D01*
X129561167Y-107336166D01*
X127021167Y-109706833D02*
X126597833Y-110003167D01*
X127021167Y-110214833D02*
X126132167Y-110214833D01*
X126132167Y-109876167D01*
X126174500Y-109791500D01*
X126216833Y-109749167D01*
X126301500Y-109706833D01*
X126428500Y-109706833D01*
X126513167Y-109749167D01*
X126555500Y-109791500D01*
X126597833Y-109876167D01*
X126597833Y-110214833D01*
X127021167Y-108860167D02*
X127021167Y-109368167D01*
X127021167Y-109114167D02*
X126132167Y-109114167D01*
X126259167Y-109198833D01*
X126343833Y-109283500D01*
X126386167Y-109368167D01*
X127021167Y-108013500D02*
X127021167Y-108521500D01*
X127021167Y-108267500D02*
X126132167Y-108267500D01*
X126259167Y-108352166D01*
X126343833Y-108436833D01*
X126386167Y-108521500D01*
X127021167Y-107590166D02*
X127021167Y-107420833D01*
X126978833Y-107336166D01*
X126936500Y-107293833D01*
X126809500Y-107209166D01*
X126640167Y-107166833D01*
X126301500Y-107166833D01*
X126216833Y-107209166D01*
X126174500Y-107251499D01*
X126132167Y-107336166D01*
X126132167Y-107505499D01*
X126174500Y-107590166D01*
X126216833Y-107632499D01*
X126301500Y-107674833D01*
X126513167Y-107674833D01*
X126597833Y-107632499D01*
X126640167Y-107590166D01*
X126682500Y-107505499D01*
X126682500Y-107336166D01*
X126640167Y-107251499D01*
X126597833Y-107209166D01*
X126513167Y-107166833D01*
X140102167Y-106150833D02*
X139678833Y-106447167D01*
X140102167Y-106658833D02*
X139213167Y-106658833D01*
X139213167Y-106320167D01*
X139255500Y-106235500D01*
X139297833Y-106193167D01*
X139382500Y-106150833D01*
X139509500Y-106150833D01*
X139594167Y-106193167D01*
X139636500Y-106235500D01*
X139678833Y-106320167D01*
X139678833Y-106658833D01*
X140102167Y-105304167D02*
X140102167Y-105812167D01*
X140102167Y-105558167D02*
X139213167Y-105558167D01*
X139340167Y-105642833D01*
X139424833Y-105727500D01*
X139467167Y-105812167D01*
X139297833Y-104965500D02*
X139255500Y-104923166D01*
X139213167Y-104838500D01*
X139213167Y-104626833D01*
X139255500Y-104542166D01*
X139297833Y-104499833D01*
X139382500Y-104457500D01*
X139467167Y-104457500D01*
X139594167Y-104499833D01*
X140102167Y-105007833D01*
X140102167Y-104457500D01*
X139213167Y-103907166D02*
X139213167Y-103822499D01*
X139255500Y-103737833D01*
X139297833Y-103695499D01*
X139382500Y-103653166D01*
X139551833Y-103610833D01*
X139763500Y-103610833D01*
X139932833Y-103653166D01*
X140017500Y-103695499D01*
X140059833Y-103737833D01*
X140102167Y-103822499D01*
X140102167Y-103907166D01*
X140059833Y-103991833D01*
X140017500Y-104034166D01*
X139932833Y-104076499D01*
X139763500Y-104118833D01*
X139551833Y-104118833D01*
X139382500Y-104076499D01*
X139297833Y-104034166D01*
X139255500Y-103991833D01*
X139213167Y-103907166D01*
X143023167Y-106150833D02*
X142599833Y-106447167D01*
X143023167Y-106658833D02*
X142134167Y-106658833D01*
X142134167Y-106320167D01*
X142176500Y-106235500D01*
X142218833Y-106193167D01*
X142303500Y-106150833D01*
X142430500Y-106150833D01*
X142515167Y-106193167D01*
X142557500Y-106235500D01*
X142599833Y-106320167D01*
X142599833Y-106658833D01*
X143023167Y-105304167D02*
X143023167Y-105812167D01*
X143023167Y-105558167D02*
X142134167Y-105558167D01*
X142261167Y-105642833D01*
X142345833Y-105727500D01*
X142388167Y-105812167D01*
X142218833Y-104965500D02*
X142176500Y-104923166D01*
X142134167Y-104838500D01*
X142134167Y-104626833D01*
X142176500Y-104542166D01*
X142218833Y-104499833D01*
X142303500Y-104457500D01*
X142388167Y-104457500D01*
X142515167Y-104499833D01*
X143023167Y-105007833D01*
X143023167Y-104457500D01*
X143023167Y-103610833D02*
X143023167Y-104118833D01*
X143023167Y-103864833D02*
X142134167Y-103864833D01*
X142261167Y-103949499D01*
X142345833Y-104034166D01*
X142388167Y-104118833D01*
X145817167Y-106150833D02*
X145393833Y-106447167D01*
X145817167Y-106658833D02*
X144928167Y-106658833D01*
X144928167Y-106320167D01*
X144970500Y-106235500D01*
X145012833Y-106193167D01*
X145097500Y-106150833D01*
X145224500Y-106150833D01*
X145309167Y-106193167D01*
X145351500Y-106235500D01*
X145393833Y-106320167D01*
X145393833Y-106658833D01*
X145817167Y-105304167D02*
X145817167Y-105812167D01*
X145817167Y-105558167D02*
X144928167Y-105558167D01*
X145055167Y-105642833D01*
X145139833Y-105727500D01*
X145182167Y-105812167D01*
X145012833Y-104965500D02*
X144970500Y-104923166D01*
X144928167Y-104838500D01*
X144928167Y-104626833D01*
X144970500Y-104542166D01*
X145012833Y-104499833D01*
X145097500Y-104457500D01*
X145182167Y-104457500D01*
X145309167Y-104499833D01*
X145817167Y-105007833D01*
X145817167Y-104457500D01*
X145012833Y-104118833D02*
X144970500Y-104076499D01*
X144928167Y-103991833D01*
X144928167Y-103780166D01*
X144970500Y-103695499D01*
X145012833Y-103653166D01*
X145097500Y-103610833D01*
X145182167Y-103610833D01*
X145309167Y-103653166D01*
X145817167Y-104161166D01*
X145817167Y-103610833D01*
X138451167Y-102975833D02*
X138027833Y-103272167D01*
X138451167Y-103483833D02*
X137562167Y-103483833D01*
X137562167Y-103145167D01*
X137604500Y-103060500D01*
X137646833Y-103018167D01*
X137731500Y-102975833D01*
X137858500Y-102975833D01*
X137943167Y-103018167D01*
X137985500Y-103060500D01*
X138027833Y-103145167D01*
X138027833Y-103483833D01*
X138451167Y-102129167D02*
X138451167Y-102637167D01*
X138451167Y-102383167D02*
X137562167Y-102383167D01*
X137689167Y-102467833D01*
X137773833Y-102552500D01*
X137816167Y-102637167D01*
X137646833Y-101790500D02*
X137604500Y-101748166D01*
X137562167Y-101663500D01*
X137562167Y-101451833D01*
X137604500Y-101367166D01*
X137646833Y-101324833D01*
X137731500Y-101282500D01*
X137816167Y-101282500D01*
X137943167Y-101324833D01*
X138451167Y-101832833D01*
X138451167Y-101282500D01*
X137562167Y-100986166D02*
X137562167Y-100435833D01*
X137900833Y-100732166D01*
X137900833Y-100605166D01*
X137943167Y-100520499D01*
X137985500Y-100478166D01*
X138070167Y-100435833D01*
X138281833Y-100435833D01*
X138366500Y-100478166D01*
X138408833Y-100520499D01*
X138451167Y-100605166D01*
X138451167Y-100859166D01*
X138408833Y-100943833D01*
X138366500Y-100986166D01*
X137054167Y-103102833D02*
X136630833Y-103399167D01*
X137054167Y-103610833D02*
X136165167Y-103610833D01*
X136165167Y-103272167D01*
X136207500Y-103187500D01*
X136249833Y-103145167D01*
X136334500Y-103102833D01*
X136461500Y-103102833D01*
X136546167Y-103145167D01*
X136588500Y-103187500D01*
X136630833Y-103272167D01*
X136630833Y-103610833D01*
X137054167Y-102256167D02*
X137054167Y-102764167D01*
X137054167Y-102510167D02*
X136165167Y-102510167D01*
X136292167Y-102594833D01*
X136376833Y-102679500D01*
X136419167Y-102764167D01*
X136249833Y-101917500D02*
X136207500Y-101875166D01*
X136165167Y-101790500D01*
X136165167Y-101578833D01*
X136207500Y-101494166D01*
X136249833Y-101451833D01*
X136334500Y-101409500D01*
X136419167Y-101409500D01*
X136546167Y-101451833D01*
X137054167Y-101959833D01*
X137054167Y-101409500D01*
X136461500Y-100647499D02*
X137054167Y-100647499D01*
X136122833Y-100859166D02*
X136757833Y-101070833D01*
X136757833Y-100520499D01*
X134387167Y-106150833D02*
X133963833Y-106447167D01*
X134387167Y-106658833D02*
X133498167Y-106658833D01*
X133498167Y-106320167D01*
X133540500Y-106235500D01*
X133582833Y-106193167D01*
X133667500Y-106150833D01*
X133794500Y-106150833D01*
X133879167Y-106193167D01*
X133921500Y-106235500D01*
X133963833Y-106320167D01*
X133963833Y-106658833D01*
X134387167Y-105304167D02*
X134387167Y-105812167D01*
X134387167Y-105558167D02*
X133498167Y-105558167D01*
X133625167Y-105642833D01*
X133709833Y-105727500D01*
X133752167Y-105812167D01*
X133582833Y-104965500D02*
X133540500Y-104923166D01*
X133498167Y-104838500D01*
X133498167Y-104626833D01*
X133540500Y-104542166D01*
X133582833Y-104499833D01*
X133667500Y-104457500D01*
X133752167Y-104457500D01*
X133879167Y-104499833D01*
X134387167Y-105007833D01*
X134387167Y-104457500D01*
X133498167Y-103653166D02*
X133498167Y-104076499D01*
X133921500Y-104118833D01*
X133879167Y-104076499D01*
X133836833Y-103991833D01*
X133836833Y-103780166D01*
X133879167Y-103695499D01*
X133921500Y-103653166D01*
X134006167Y-103610833D01*
X134217833Y-103610833D01*
X134302500Y-103653166D01*
X134344833Y-103695499D01*
X134387167Y-103780166D01*
X134387167Y-103991833D01*
X134344833Y-104076499D01*
X134302500Y-104118833D01*
X131466167Y-106150833D02*
X131042833Y-106447167D01*
X131466167Y-106658833D02*
X130577167Y-106658833D01*
X130577167Y-106320167D01*
X130619500Y-106235500D01*
X130661833Y-106193167D01*
X130746500Y-106150833D01*
X130873500Y-106150833D01*
X130958167Y-106193167D01*
X131000500Y-106235500D01*
X131042833Y-106320167D01*
X131042833Y-106658833D01*
X131466167Y-105304167D02*
X131466167Y-105812167D01*
X131466167Y-105558167D02*
X130577167Y-105558167D01*
X130704167Y-105642833D01*
X130788833Y-105727500D01*
X130831167Y-105812167D01*
X130661833Y-104965500D02*
X130619500Y-104923166D01*
X130577167Y-104838500D01*
X130577167Y-104626833D01*
X130619500Y-104542166D01*
X130661833Y-104499833D01*
X130746500Y-104457500D01*
X130831167Y-104457500D01*
X130958167Y-104499833D01*
X131466167Y-105007833D01*
X131466167Y-104457500D01*
X130577167Y-103695499D02*
X130577167Y-103864833D01*
X130619500Y-103949499D01*
X130661833Y-103991833D01*
X130788833Y-104076499D01*
X130958167Y-104118833D01*
X131296833Y-104118833D01*
X131381500Y-104076499D01*
X131423833Y-104034166D01*
X131466167Y-103949499D01*
X131466167Y-103780166D01*
X131423833Y-103695499D01*
X131381500Y-103653166D01*
X131296833Y-103610833D01*
X131085167Y-103610833D01*
X131000500Y-103653166D01*
X130958167Y-103695499D01*
X130915833Y-103780166D01*
X130915833Y-103949499D01*
X130958167Y-104034166D01*
X131000500Y-104076499D01*
X131085167Y-104118833D01*
X128672167Y-106150833D02*
X128248833Y-106447167D01*
X128672167Y-106658833D02*
X127783167Y-106658833D01*
X127783167Y-106320167D01*
X127825500Y-106235500D01*
X127867833Y-106193167D01*
X127952500Y-106150833D01*
X128079500Y-106150833D01*
X128164167Y-106193167D01*
X128206500Y-106235500D01*
X128248833Y-106320167D01*
X128248833Y-106658833D01*
X128672167Y-105304167D02*
X128672167Y-105812167D01*
X128672167Y-105558167D02*
X127783167Y-105558167D01*
X127910167Y-105642833D01*
X127994833Y-105727500D01*
X128037167Y-105812167D01*
X127867833Y-104965500D02*
X127825500Y-104923166D01*
X127783167Y-104838500D01*
X127783167Y-104626833D01*
X127825500Y-104542166D01*
X127867833Y-104499833D01*
X127952500Y-104457500D01*
X128037167Y-104457500D01*
X128164167Y-104499833D01*
X128672167Y-105007833D01*
X128672167Y-104457500D01*
X127783167Y-104161166D02*
X127783167Y-103568499D01*
X128672167Y-103949499D01*
X130069167Y-103018167D02*
X129772833Y-102594833D01*
X129561167Y-103018167D02*
X129561167Y-102129167D01*
X129899833Y-102129167D01*
X129984500Y-102171500D01*
X130026833Y-102213833D01*
X130069167Y-102298500D01*
X130069167Y-102425500D01*
X130026833Y-102510167D01*
X129984500Y-102552500D01*
X129899833Y-102594833D01*
X129561167Y-102594833D01*
X130915833Y-103018167D02*
X130407833Y-103018167D01*
X130661833Y-103018167D02*
X130661833Y-102129167D01*
X130577167Y-102256167D01*
X130492500Y-102340833D01*
X130407833Y-102383167D01*
X131254500Y-102213833D02*
X131296834Y-102171500D01*
X131381500Y-102129167D01*
X131593167Y-102129167D01*
X131677834Y-102171500D01*
X131720167Y-102213833D01*
X131762500Y-102298500D01*
X131762500Y-102383167D01*
X131720167Y-102510167D01*
X131212167Y-103018167D01*
X131762500Y-103018167D01*
X132270501Y-102510167D02*
X132185834Y-102467833D01*
X132143501Y-102425500D01*
X132101167Y-102340833D01*
X132101167Y-102298500D01*
X132143501Y-102213833D01*
X132185834Y-102171500D01*
X132270501Y-102129167D01*
X132439834Y-102129167D01*
X132524501Y-102171500D01*
X132566834Y-102213833D01*
X132609167Y-102298500D01*
X132609167Y-102340833D01*
X132566834Y-102425500D01*
X132524501Y-102467833D01*
X132439834Y-102510167D01*
X132270501Y-102510167D01*
X132185834Y-102552500D01*
X132143501Y-102594833D01*
X132101167Y-102679500D01*
X132101167Y-102848833D01*
X132143501Y-102933500D01*
X132185834Y-102975833D01*
X132270501Y-103018167D01*
X132439834Y-103018167D01*
X132524501Y-102975833D01*
X132566834Y-102933500D01*
X132609167Y-102848833D01*
X132609167Y-102679500D01*
X132566834Y-102594833D01*
X132524501Y-102552500D01*
X132439834Y-102510167D01*
X130069167Y-101621167D02*
X129772833Y-101197833D01*
X129561167Y-101621167D02*
X129561167Y-100732167D01*
X129899833Y-100732167D01*
X129984500Y-100774500D01*
X130026833Y-100816833D01*
X130069167Y-100901500D01*
X130069167Y-101028500D01*
X130026833Y-101113167D01*
X129984500Y-101155500D01*
X129899833Y-101197833D01*
X129561167Y-101197833D01*
X130915833Y-101621167D02*
X130407833Y-101621167D01*
X130661833Y-101621167D02*
X130661833Y-100732167D01*
X130577167Y-100859167D01*
X130492500Y-100943833D01*
X130407833Y-100986167D01*
X131254500Y-100816833D02*
X131296834Y-100774500D01*
X131381500Y-100732167D01*
X131593167Y-100732167D01*
X131677834Y-100774500D01*
X131720167Y-100816833D01*
X131762500Y-100901500D01*
X131762500Y-100986167D01*
X131720167Y-101113167D01*
X131212167Y-101621167D01*
X131762500Y-101621167D01*
X132185834Y-101621167D02*
X132355167Y-101621167D01*
X132439834Y-101578833D01*
X132482167Y-101536500D01*
X132566834Y-101409500D01*
X132609167Y-101240167D01*
X132609167Y-100901500D01*
X132566834Y-100816833D01*
X132524501Y-100774500D01*
X132439834Y-100732167D01*
X132270501Y-100732167D01*
X132185834Y-100774500D01*
X132143501Y-100816833D01*
X132101167Y-100901500D01*
X132101167Y-101113167D01*
X132143501Y-101197833D01*
X132185834Y-101240167D01*
X132270501Y-101282500D01*
X132439834Y-101282500D01*
X132524501Y-101240167D01*
X132566834Y-101197833D01*
X132609167Y-101113167D01*
X142261167Y-103208667D02*
X141964833Y-102785333D01*
X141753167Y-103208667D02*
X141753167Y-102319667D01*
X142091833Y-102319667D01*
X142176500Y-102362000D01*
X142218833Y-102404333D01*
X142261167Y-102489000D01*
X142261167Y-102616000D01*
X142218833Y-102700667D01*
X142176500Y-102743000D01*
X142091833Y-102785333D01*
X141753167Y-102785333D01*
X143107833Y-103208667D02*
X142599833Y-103208667D01*
X142853833Y-103208667D02*
X142853833Y-102319667D01*
X142769167Y-102446667D01*
X142684500Y-102531333D01*
X142599833Y-102573667D01*
X143404167Y-102319667D02*
X143954500Y-102319667D01*
X143658167Y-102658333D01*
X143785167Y-102658333D01*
X143869834Y-102700667D01*
X143912167Y-102743000D01*
X143954500Y-102827667D01*
X143954500Y-103039333D01*
X143912167Y-103124000D01*
X143869834Y-103166333D01*
X143785167Y-103208667D01*
X143531167Y-103208667D01*
X143446500Y-103166333D01*
X143404167Y-103124000D01*
X144504834Y-102319667D02*
X144589501Y-102319667D01*
X144674167Y-102362000D01*
X144716501Y-102404333D01*
X144758834Y-102489000D01*
X144801167Y-102658333D01*
X144801167Y-102870000D01*
X144758834Y-103039333D01*
X144716501Y-103124000D01*
X144674167Y-103166333D01*
X144589501Y-103208667D01*
X144504834Y-103208667D01*
X144420167Y-103166333D01*
X144377834Y-103124000D01*
X144335501Y-103039333D01*
X144293167Y-102870000D01*
X144293167Y-102658333D01*
X144335501Y-102489000D01*
X144377834Y-102404333D01*
X144420167Y-102362000D01*
X144504834Y-102319667D01*
X127656167Y-95736833D02*
X127232833Y-96033167D01*
X127656167Y-96244833D02*
X126767167Y-96244833D01*
X126767167Y-95906167D01*
X126809500Y-95821500D01*
X126851833Y-95779167D01*
X126936500Y-95736833D01*
X127063500Y-95736833D01*
X127148167Y-95779167D01*
X127190500Y-95821500D01*
X127232833Y-95906167D01*
X127232833Y-96244833D01*
X127656167Y-94890167D02*
X127656167Y-95398167D01*
X127656167Y-95144167D02*
X126767167Y-95144167D01*
X126894167Y-95228833D01*
X126978833Y-95313500D01*
X127021167Y-95398167D01*
X126767167Y-94593833D02*
X126767167Y-94043500D01*
X127105833Y-94339833D01*
X127105833Y-94212833D01*
X127148167Y-94128166D01*
X127190500Y-94085833D01*
X127275167Y-94043500D01*
X127486833Y-94043500D01*
X127571500Y-94085833D01*
X127613833Y-94128166D01*
X127656167Y-94212833D01*
X127656167Y-94466833D01*
X127613833Y-94551500D01*
X127571500Y-94593833D01*
X127656167Y-93196833D02*
X127656167Y-93704833D01*
X127656167Y-93450833D02*
X126767167Y-93450833D01*
X126894167Y-93535499D01*
X126978833Y-93620166D01*
X127021167Y-93704833D01*
X126640167Y-92858167D02*
X126343833Y-92434833D01*
X126132167Y-92858167D02*
X126132167Y-91969167D01*
X126470833Y-91969167D01*
X126555500Y-92011500D01*
X126597833Y-92053833D01*
X126640167Y-92138500D01*
X126640167Y-92265500D01*
X126597833Y-92350167D01*
X126555500Y-92392500D01*
X126470833Y-92434833D01*
X126132167Y-92434833D01*
X127486833Y-92858167D02*
X126978833Y-92858167D01*
X127232833Y-92858167D02*
X127232833Y-91969167D01*
X127148167Y-92096167D01*
X127063500Y-92180833D01*
X126978833Y-92223167D01*
X127783167Y-91969167D02*
X128333500Y-91969167D01*
X128037167Y-92307833D01*
X128164167Y-92307833D01*
X128248834Y-92350167D01*
X128291167Y-92392500D01*
X128333500Y-92477167D01*
X128333500Y-92688833D01*
X128291167Y-92773500D01*
X128248834Y-92815833D01*
X128164167Y-92858167D01*
X127910167Y-92858167D01*
X127825500Y-92815833D01*
X127783167Y-92773500D01*
X128672167Y-92053833D02*
X128714501Y-92011500D01*
X128799167Y-91969167D01*
X129010834Y-91969167D01*
X129095501Y-92011500D01*
X129137834Y-92053833D01*
X129180167Y-92138500D01*
X129180167Y-92223167D01*
X129137834Y-92350167D01*
X128629834Y-92858167D01*
X129180167Y-92858167D01*
X136546167Y-92858167D02*
X136249833Y-92434833D01*
X136038167Y-92858167D02*
X136038167Y-91969167D01*
X136376833Y-91969167D01*
X136461500Y-92011500D01*
X136503833Y-92053833D01*
X136546167Y-92138500D01*
X136546167Y-92265500D01*
X136503833Y-92350167D01*
X136461500Y-92392500D01*
X136376833Y-92434833D01*
X136038167Y-92434833D01*
X137392833Y-92858167D02*
X136884833Y-92858167D01*
X137138833Y-92858167D02*
X137138833Y-91969167D01*
X137054167Y-92096167D01*
X136969500Y-92180833D01*
X136884833Y-92223167D01*
X137689167Y-91969167D02*
X138239500Y-91969167D01*
X137943167Y-92307833D01*
X138070167Y-92307833D01*
X138154834Y-92350167D01*
X138197167Y-92392500D01*
X138239500Y-92477167D01*
X138239500Y-92688833D01*
X138197167Y-92773500D01*
X138154834Y-92815833D01*
X138070167Y-92858167D01*
X137816167Y-92858167D01*
X137731500Y-92815833D01*
X137689167Y-92773500D01*
X138535834Y-91969167D02*
X139086167Y-91969167D01*
X138789834Y-92307833D01*
X138916834Y-92307833D01*
X139001501Y-92350167D01*
X139043834Y-92392500D01*
X139086167Y-92477167D01*
X139086167Y-92688833D01*
X139043834Y-92773500D01*
X139001501Y-92815833D01*
X138916834Y-92858167D01*
X138662834Y-92858167D01*
X138578167Y-92815833D01*
X138535834Y-92773500D01*
X129540000Y-94763167D02*
X129540000Y-95482833D01*
X129582333Y-95567500D01*
X129624666Y-95609833D01*
X129709333Y-95652167D01*
X129878666Y-95652167D01*
X129963333Y-95609833D01*
X130005666Y-95567500D01*
X130048000Y-95482833D01*
X130048000Y-94763167D01*
X130936999Y-95652167D02*
X130428999Y-95652167D01*
X130682999Y-95652167D02*
X130682999Y-94763167D01*
X130598333Y-94890167D01*
X130513666Y-94974833D01*
X130428999Y-95017167D01*
X131487333Y-94763167D02*
X131572000Y-94763167D01*
X131656666Y-94805500D01*
X131699000Y-94847833D01*
X131741333Y-94932500D01*
X131783666Y-95101833D01*
X131783666Y-95313500D01*
X131741333Y-95482833D01*
X131699000Y-95567500D01*
X131656666Y-95609833D01*
X131572000Y-95652167D01*
X131487333Y-95652167D01*
X131402666Y-95609833D01*
X131360333Y-95567500D01*
X131318000Y-95482833D01*
X131275666Y-95313500D01*
X131275666Y-95101833D01*
X131318000Y-94932500D01*
X131360333Y-94847833D01*
X131402666Y-94805500D01*
X131487333Y-94763167D01*
X132122333Y-94847833D02*
X132164667Y-94805500D01*
X132249333Y-94763167D01*
X132461000Y-94763167D01*
X132545667Y-94805500D01*
X132588000Y-94847833D01*
X132630333Y-94932500D01*
X132630333Y-95017167D01*
X132588000Y-95144167D01*
X132080000Y-95652167D01*
X132630333Y-95652167D01*
X148399500Y-109706833D02*
X148441833Y-109749167D01*
X148484167Y-109876167D01*
X148484167Y-109960833D01*
X148441833Y-110087833D01*
X148357167Y-110172500D01*
X148272500Y-110214833D01*
X148103167Y-110257167D01*
X147976167Y-110257167D01*
X147806833Y-110214833D01*
X147722167Y-110172500D01*
X147637500Y-110087833D01*
X147595167Y-109960833D01*
X147595167Y-109876167D01*
X147637500Y-109749167D01*
X147679833Y-109706833D01*
X148484167Y-108860167D02*
X148484167Y-109368167D01*
X148484167Y-109114167D02*
X147595167Y-109114167D01*
X147722167Y-109198833D01*
X147806833Y-109283500D01*
X147849167Y-109368167D01*
X147595167Y-108309833D02*
X147595167Y-108225166D01*
X147637500Y-108140500D01*
X147679833Y-108098166D01*
X147764500Y-108055833D01*
X147933833Y-108013500D01*
X148145500Y-108013500D01*
X148314833Y-108055833D01*
X148399500Y-108098166D01*
X148441833Y-108140500D01*
X148484167Y-108225166D01*
X148484167Y-108309833D01*
X148441833Y-108394500D01*
X148399500Y-108436833D01*
X148314833Y-108479166D01*
X148145500Y-108521500D01*
X147933833Y-108521500D01*
X147764500Y-108479166D01*
X147679833Y-108436833D01*
X147637500Y-108394500D01*
X147595167Y-108309833D01*
X147595167Y-107463166D02*
X147595167Y-107378499D01*
X147637500Y-107293833D01*
X147679833Y-107251499D01*
X147764500Y-107209166D01*
X147933833Y-107166833D01*
X148145500Y-107166833D01*
X148314833Y-107209166D01*
X148399500Y-107251499D01*
X148441833Y-107293833D01*
X148484167Y-107378499D01*
X148484167Y-107463166D01*
X148441833Y-107547833D01*
X148399500Y-107590166D01*
X148314833Y-107632499D01*
X148145500Y-107674833D01*
X147933833Y-107674833D01*
X147764500Y-107632499D01*
X147679833Y-107590166D01*
X147637500Y-107547833D01*
X147595167Y-107463166D01*
X144335500Y-86762167D02*
X144335500Y-87397167D01*
X144293166Y-87524167D01*
X144208500Y-87608833D01*
X144081500Y-87651167D01*
X143996833Y-87651167D01*
X145224499Y-87651167D02*
X144716499Y-87651167D01*
X144970499Y-87651167D02*
X144970499Y-86762167D01*
X144885833Y-86889167D01*
X144801166Y-86973833D01*
X144716499Y-87016167D01*
X145774833Y-86762167D02*
X145859500Y-86762167D01*
X145944166Y-86804500D01*
X145986500Y-86846833D01*
X146028833Y-86931500D01*
X146071166Y-87100833D01*
X146071166Y-87312500D01*
X146028833Y-87481833D01*
X145986500Y-87566500D01*
X145944166Y-87608833D01*
X145859500Y-87651167D01*
X145774833Y-87651167D01*
X145690166Y-87608833D01*
X145647833Y-87566500D01*
X145605500Y-87481833D01*
X145563166Y-87312500D01*
X145563166Y-87100833D01*
X145605500Y-86931500D01*
X145647833Y-86846833D01*
X145690166Y-86804500D01*
X145774833Y-86762167D01*
X146409833Y-86846833D02*
X146452167Y-86804500D01*
X146536833Y-86762167D01*
X146748500Y-86762167D01*
X146833167Y-86804500D01*
X146875500Y-86846833D01*
X146917833Y-86931500D01*
X146917833Y-87016167D01*
X146875500Y-87143167D01*
X146367500Y-87651167D01*
X146917833Y-87651167D01*
M02*
